<svg width="111" height="49" viewBox="0 0 111 49" fill="none" xmlns="http://www.w3.org/2000/svg">
<path d="M41.3212 32.8874C40.8343 32.3299 40.308 31.8282 39.6556 31.3002C39.1309 30.8755 38.5686 30.3925 38.4064 30.2269C37.893 29.7028 37.1835 29.4359 35.2804 29.0517C34.6541 28.9253 34.099 28.7637 34.0469 28.6922C33.8617 28.4383 33.7536 27.4359 33.8833 27.177C34.0308 26.8826 34.5573 26.5664 35.3404 26.3022C35.925 26.105 36.2041 26.1424 36.7469 26.4908C37.4954 26.9712 39.2516 28.6446 39.8084 29.4083C40.1485 29.8746 44.5029 34.3787 45.0475 34.8853C45.3771 35.2535 44.2478 35.8672 44.0878 35.7176L41.3212 32.8874ZM42.8828 31.763C42.5473 31.3652 42.1943 30.949 41.9549 30.6627C40.6905 29.1509 39.8559 28.2818 39.1343 27.7257C38.7967 27.4655 38.3126 27.0826 38.0583 26.8748C37.8041 26.6671 37.54 26.4878 37.4717 26.4766C37.2578 26.4414 37.2555 26.3443 37.468 26.3165C37.5798 26.3018 37.9249 26.3054 38.2348 26.3244C39.1776 26.3825 39.2853 26.3223 41.3449 24.5872C41.7808 24.2199 41.9901 24.0925 42.3363 23.9832C43.5324 23.6055 44.7232 24.0048 45.6729 25.1017C45.8982 25.3619 46.0949 25.5661 46.1098 25.5553C46.1248 25.5446 46.1895 25.4307 46.2539 25.3023C46.3385 25.1336 46.3303 24.9317 46.2243 24.5752C45.897 23.4734 45.6757 23.087 45.1721 22.7387C44.5434 22.3039 43.0776 21.8553 42.8416 22.0253C42.7739 22.074 42.527 22.0611 42.2929 21.9962C40.4873 21.4959 40.0114 21.4404 39.4747 21.6677C39.0977 21.8273 37.2327 23.422 37.1804 23.6294C37.1587 23.7153 37.1132 23.781 37.079 23.7752C37.0448 23.7697 37.1047 23.4222 37.2123 23.0037C37.5599 21.6516 37.5619 21.7204 37.1091 19.6103C37.0468 19.3198 37.0653 18.9815 37.164 18.6004L37.3128 18.0273L37.0517 18.2862C36.6541 18.6802 36.3725 19.2881 36.1159 20.3074C35.9878 20.8163 35.7899 21.4294 35.6757 21.6699C35.4813 22.0797 35.4135 22.1477 34.6028 22.7462L33.7377 23.3849L33.8379 22.9706C33.8931 22.7427 33.9582 22.541 33.9826 22.5228C34.0069 22.5045 34.019 22.1293 34.0097 21.6892C33.985 20.5256 34.0369 20.3646 35.0128 18.5897C35.4792 17.7416 35.6239 17.2658 35.5421 16.8483C35.2621 15.4188 35.2637 15.4681 35.4797 14.963C35.6618 14.5373 35.9109 12.9502 35.8603 12.5386C35.7915 11.9789 34.8491 10.784 33.2521 9.23157C32.4094 8.41251 32.2775 8.24899 30.9239 6.35162C29.6486 4.56385 29.4428 4.30565 29.0769 4.03078C28.6033 3.67504 28.1256 3.46625 27.4722 3.32933C26.8969 3.20876 26.2109 2.93607 24.9851 2.34053C23.5749 1.6554 23.5127 1.65597 23.2901 2.36012C23.1518 2.79758 22.7463 3.25354 22.0364 3.77007C21.8337 3.91823 21.5732 4.15597 21.4586 4.29968C21.1741 4.65657 21.0318 5.4997 21.1374 6.20056C21.3223 7.42626 21.3261 7.88642 21.1567 8.52773C21.0621 8.88542 20.9979 9.3502 21.0138 9.56068C21.0414 9.92874 20.9658 10.1118 20.7068 10.301C20.6404 10.3496 20.0767 10.3134 19.454 10.2206C18.2747 10.0449 17.6162 9.79858 17.0427 9.31864C16.7375 9.06324 16.7207 9.03521 16.1826 7.86265C15.7965 7.02135 14.8173 6.66113 13.5136 6.88063C12.4468 7.06024 11.8991 7.29706 11.0967 7.92633C10.7193 8.22224 10.1544 8.65171 9.84122 8.88081C9.20656 9.34544 8.76881 9.37089 7.72543 9.38006C7.07331 9.38576 6.9456 9.39143 6.81128 9.48005L6.81117 9.47989C6.7308 9.53337 6.64795 9.61684 6.44737 9.74732C5.77756 10.1845 4.96828 11.0784 4.66607 11.7152C4.50463 12.0553 4.46988 12.3281 4.49487 13.0593C4.51323 13.5967 4.45652 14.2958 4.35817 14.748L4.19044 15.5197L3.74488 15.7289C3.49982 15.8439 3.06679 15.9801 2.78263 16.0318C1.88288 16.1953 1.25817 16.8877 1.46913 17.4876C1.57144 17.7786 1.53025 18.2943 1.3871 18.5148C1.31228 18.63 1.11827 18.8907 0.955914 19.0942C0.673585 19.4481 0.0131794 20.9389 5.44865e-05 21.2518C-0.00336709 21.334 0.154794 21.6675 0.351854 21.993C0.553771 22.3265 0.786094 22.8459 0.883889 23.1826C1.13428 24.0447 1.43001 24.798 1.62884 25.0799C1.72825 25.2209 1.98029 25.4121 2.22228 25.5298C2.45372 25.6425 3.01465 25.9314 3.4687 26.1722C4.37014 26.6501 4.99757 26.8124 5.42655 26.6782L5.70332 26.5912L5.71655 27.0384C5.72393 27.2843 5.68695 27.5159 5.63454 27.5537C5.58211 27.5914 5.3409 27.6723 5.09867 27.7332C4.83416 27.7993 4.49933 27.9584 4.26081 28.1302C4.04227 28.2876 3.49544 28.5654 3.04554 28.7475C1.95344 29.1895 1.75923 29.3361 1.70263 29.7617C1.66609 30.0367 1.73155 30.2637 2.05428 30.9792C2.81109 32.6572 3.48061 33.5197 4.20839 33.7541L4.53513 33.8592L4.20264 34.3151C4.01987 34.5657 3.84751 34.8773 3.81949 35.0078C3.74928 35.3347 3.86288 35.7578 4.11344 36.1032C4.31199 36.3768 4.31353 36.4107 4.13997 36.697C3.91235 37.0725 3.9397 37.4836 4.23211 38.0782C4.35444 38.3269 4.53676 38.9447 4.6371 39.4511L4.81918 40.3715L5.45634 41.3199L6.09328 42.268L6.11384 42.9853C6.12943 43.5346 6.18228 43.7834 6.33982 44.0476L6.54544 44.3929L7.26724 44.3889C7.87088 44.3858 8.09585 44.4347 8.64229 44.6887C9.00164 44.8557 9.41614 45.0452 9.56306 45.1097C10.0398 45.319 10.6019 45.349 11.0777 45.1902L11.5358 45.0376L11.5295 45.6504C11.5232 46.282 11.6287 46.687 11.896 47.0547C12.113 47.3533 12.7757 47.4715 13.7851 47.3919C15.3721 47.2666 15.8065 47.3855 16.9176 48.2507C17.8244 48.9567 18.1271 49.0697 18.8377 48.9676C19.5022 48.8721 21.448 47.3591 22.8691 45.8329C23.1746 45.5051 23.5014 45.2355 23.8379 45.0339C24.4543 44.6647 24.5582 44.6346 24.8403 44.7432C25.0461 44.8224 25.0594 44.8492 25.0391 45.1499C25.0008 45.7172 25.1345 46.0993 25.4624 46.3594C25.9581 46.7526 26.6383 46.7827 26.9436 46.4252C27.021 46.3346 27.2165 45.9977 27.3781 45.6769C27.6117 45.2132 27.7661 45.0162 28.1324 44.7142C28.7593 44.1974 30.3982 43.2459 31.006 43.0457C31.9769 42.7259 32.2401 42.397 32.4775 41.2072C32.5586 40.8005 32.7695 40.0653 32.9459 39.5735C33.4392 38.1988 33.5237 37.4234 33.2863 36.451C33.0453 35.464 33.1031 35.1437 33.6629 34.3629C33.8981 34.0346 34.1147 33.624 34.1599 33.4207L34.2402 33.0606L34.6595 33.2534C35.3643 33.5772 35.411 33.5915 36.4319 33.7924L37.4216 33.9872L37.6006 34.3187C37.9774 35.0168 37.9495 35.5077 37.4614 36.759C36.9449 38.0829 36.9786 38.909 37.588 39.8568C37.7781 40.1523 37.9741 40.3917 38.0237 40.3884C38.0733 40.3853 38.1141 40.164 38.1148 39.8976C38.1157 39.5012 38.2 39.2468 38.5785 38.4978C39.2752 37.119 39.2484 36.6386 38.3603 34.5928C38.1162 34.0306 37.8236 33.2888 37.7103 32.9447C37.2503 31.5482 36.8626 30.7825 36.4342 30.4242C36.2681 30.2852 36.1192 30.1316 36.1036 30.0827C36.0552 29.9322 37.435 30.3697 37.9673 30.6737C38.8936 31.2027 40.2465 32.2548 40.9129 32.9644C41.1905 33.2601 43.9755 36.2081 43.9755 36.2081C43.9755 36.2081 45.0443 36.1046 45.616 35.0398L42.8828 31.763ZM6.88943 9.92146C7.01827 9.83964 7.17788 9.76831 7.35952 9.70169C7.72282 9.56845 8.34557 9.66428 9.304 10.2628C9.51554 10.3927 9.71687 10.5077 9.93982 10.6196C10.2872 10.794 10.6672 10.9502 10.9939 11.1728C11.8129 11.7309 12.582 12.3944 13.3692 12.8235C13.7235 13.0165 14.0593 13.2009 14.3471 13.3879C14.6348 13.5479 14.8623 13.6846 14.853 13.6913C14.8436 13.6976 14.6195 13.7156 14.3547 13.7306C13.553 13.776 11.8849 14.2667 11.1824 14.6642C10.8425 14.8566 10.4372 15.062 10.2819 15.1202C10.1266 15.1785 9.66202 15.4686 9.24969 15.7652L8.50029 16.3043L8.43741 15.9763C8.41732 15.8212 8.69309 15.2879 8.6652 14.6694C8.63735 14.0509 8.20883 12.8383 7.75648 11.952C7.30415 11.0658 6.73113 10.4877 6.60368 10.2061C6.66256 10.096 6.76068 10.0034 6.8894 9.92142L6.88943 9.92146ZM6.00117 10.5676C6.1773 10.4332 6.34956 10.3291 6.43114 10.3238C6.54155 10.3166 6.69354 10.6009 6.90838 10.9251C7.11686 11.2398 7.38709 11.5895 7.56977 11.901C7.81009 12.3107 8.4704 13.7285 8.5161 14.4295C8.5618 15.1305 8.49589 15.3464 8.32353 15.7727C8.11545 15.2258 7.85377 14.4267 7.43402 13.7259C6.77369 12.6234 5.94092 11.5963 5.49585 11.1864C5.40486 11.1026 5.70798 10.7922 6.00116 10.5676L6.00117 10.5676ZM5.34668 11.3546C5.45421 11.2827 5.79901 11.7701 6.24953 12.3718C6.63748 12.8899 7.11738 13.4755 7.43066 14.0598C7.96483 15.0562 8.32448 16.1308 8.29723 16.5549C8.27426 16.9128 8.18876 16.8855 8.01662 16.5061C7.90664 16.2636 7.75163 15.9474 7.47315 15.6539C7.25314 15.422 6.92876 15.224 6.67716 14.9515C6.17105 14.4034 6.0074 14.3169 5.35815 13.1801C4.99253 12.54 4.61833 11.845 5.34668 11.3546L5.34668 11.3546ZM9.47148 9.41296L9.66959 9.27079C9.7785 9.19256 10.3149 8.85558 10.8614 8.52205C12.9858 7.22584 14.1349 6.96985 15.2448 7.545C15.641 7.7503 15.7644 7.85552 15.8751 8.08339C16.0757 8.49636 16.2036 9.00789 16.2021 9.39185C16.2014 9.57683 16.1637 9.75475 16.1183 9.78747C15.9453 9.91201 15.5823 9.84362 15.3749 9.64767C15.2561 9.53548 15.1191 9.44649 15.07 9.44987C14.898 9.46166 14.6351 9.8461 14.5559 10.2021L14.476 10.5615L14.1693 10.4346C14.0007 10.3647 13.6684 10.194 13.4308 10.0553C12.8405 9.71044 12.4724 9.63151 11.2353 9.58586C10.6508 9.56434 10.0149 9.5168 9.82214 9.47996L9.47148 9.41296ZM8.89551 9.82986C8.91523 9.79849 9.04067 9.78532 9.27629 9.7857C9.91052 9.7863 10.6164 9.96822 11.2292 10.4205C11.357 10.5148 11.5044 10.5907 11.6227 10.7094C12.4511 11.5237 13.0149 12.1467 13.3441 12.5036C13.5636 12.7415 13.6887 12.8537 13.6816 12.8526C13.6501 12.8473 13.1002 12.4662 12.3784 11.9609C12.0098 11.7028 11.6043 11.3732 11.1498 11.0772C10.5332 10.6757 9.77702 10.3455 9.14937 9.98372C8.96165 9.91089 8.8758 9.86125 8.89552 9.8299L8.89551 9.82986ZM4.79162 12.9879L5.46581 13.8188C5.63255 14.0241 5.78769 14.3332 6.00445 14.565C6.24936 14.8269 6.55645 15.0097 6.74202 15.1968C8.02 16.4853 8.24386 16.9563 7.24836 19.1854C6.70921 20.3927 6.6624 20.5796 6.69741 21.4813C6.71305 21.8835 6.7085 22.2552 6.68747 22.3067C6.66632 22.3586 6.51521 22.3206 6.34874 22.2219C6.11703 22.0847 5.79338 21.7187 4.93652 20.6252C4.32516 19.8449 3.6788 19.0697 3.50031 18.9025C3.18352 18.6056 2.75346 18.0693 2.12749 17.1901L1.81804 16.7551L2.13601 16.5956C2.31097 16.508 2.69042 16.4106 2.97927 16.3788C4.70892 16.1886 4.71983 16.1812 4.86642 15.1104C4.92609 14.6745 4.93906 14.1689 4.89512 13.9867C4.8512 13.8045 4.80983 13.5052 4.80329 13.3217L4.79162 12.9879ZM10.5552 9.80878C10.5507 9.78926 10.6034 9.78172 10.7101 9.76795C11.0724 9.72054 12.1241 9.89575 12.7376 10.1057C13.5894 10.3971 14.1049 10.6923 14.4938 11.1116C14.6832 11.3158 15.0138 11.635 15.2285 11.821C15.4432 12.0071 15.7346 12.3172 15.876 12.5102C16.0862 12.7968 16.1202 12.9 16.0606 13.0741C15.9798 13.3106 15.9745 13.3148 15.5108 13.5118L15.1828 13.651L14.3084 13.0209C13.6577 12.552 13.2697 12.2062 12.7928 11.6696C12.5033 11.3439 12.199 10.9678 11.856 10.6685C11.452 10.316 11.0123 10.0572 10.7463 9.92264C10.6218 9.85967 10.5597 9.82799 10.5551 9.80854L10.5552 9.80878ZM2.20297 18.0232C2.2288 18.0123 2.26109 18.0258 2.30798 18.0533C2.57472 18.21 3.21136 18.9457 4.46814 20.5498C5.57431 21.9616 5.78734 22.2004 6.15049 22.4347C6.37919 22.5822 6.57124 22.7099 6.57726 22.7181C6.58336 22.7262 6.46088 22.8969 6.30507 23.0972C6.14928 23.2976 5.99603 23.5471 5.96458 23.6516C5.88618 23.9122 5.84498 23.9321 5.51848 23.8657C5.21785 23.8045 3.39163 22.5806 2.66366 21.9524C2.10294 21.4685 1.53738 20.6048 1.41747 20.0493C1.33359 19.6607 1.34911 19.6062 1.66964 19.1592C1.85738 18.8975 2.04636 18.5233 2.08992 18.3276C2.13453 18.1272 2.15984 18.0414 2.20296 18.0232L2.20297 18.0232ZM24.0448 2.49466C24.0619 2.47579 24.0768 2.46506 24.0882 2.46426C24.1334 2.4611 24.5096 2.96519 24.9243 3.58423L25.6783 4.70999L27.3627 6.33514L29.0471 7.96081L30.6824 10.1893C31.7454 11.6381 32.5129 12.6204 32.8758 12.9966C33.1828 13.3148 33.7999 14.0782 34.2473 14.6926C34.9705 15.686 35.0756 15.8651 35.1944 16.3077C35.3641 16.94 35.2724 17.2507 34.643 18.1758C34.3715 18.5749 34.1061 18.9606 34.0533 19.0326C33.9649 19.1532 33.9403 19.1318 33.7384 18.7641C33.6179 18.5445 33.2878 17.8813 33.005 17.2901C32.412 16.0504 31.5633 14.8241 30.2115 13.2537C29.5381 12.4715 29.2662 12.2167 28.4993 11.65C27.9978 11.2794 27.3475 10.7304 27.054 10.4299C26.3076 9.42031 25.3472 7.45013 24.3585 6.4096C24.1624 6.1119 23.6243 5.48628 23.1828 5.00556C22.7413 4.52488 22.3838 4.10745 22.3883 4.07815C22.3929 4.04895 22.6231 3.96086 22.8998 3.88228C23.4566 3.72476 23.5114 3.66386 23.8588 2.82501C23.9195 2.67859 23.9928 2.55067 24.0447 2.49458L24.0448 2.49466ZM21.8233 4.44105L22.01 4.30659L22.0271 4.74958C22.0943 6.47934 22.8005 8.09215 24.0111 9.09716L24.0113 9.09747C25.046 9.94301 26.2963 10.4308 27.4472 11.0963C27.8802 11.3625 27.8254 11.4073 27.2277 11.2762C26.5022 11.117 25.092 11.1677 24.3512 11.3796C23.7971 11.5382 23.7796 11.5358 23.0847 11.2293C21.8984 10.7058 21.5339 10.1119 21.5389 8.71101C21.5403 8.32884 21.4792 7.60763 21.4034 7.10836C21.3276 6.60908 21.2759 6.02009 21.2885 5.79969C21.3178 5.28729 21.583 4.61396 21.8233 4.44098L21.8233 4.44105ZM22.3228 4.23625L22.868 4.87574C23.1679 5.22748 23.7741 5.78544 24.0725 6.2275C24.4458 6.77207 24.9011 7.34536 25.3047 7.97288C25.8878 8.87952 26.3889 9.7974 26.9691 10.5616C27.1527 10.8699 25.981 10.0354 25.6745 9.92282C24.8088 9.56802 23.9429 8.78859 23.2736 7.87194C22.4998 6.81317 22.306 6.21331 22.3171 4.91125L22.3228 4.23625ZM24.9606 2.69809C25.0479 2.63523 25.5087 2.82314 26.1504 3.18315C26.4828 3.36959 26.9937 3.58203 27.2858 3.65549C28.5059 3.96227 29.1259 4.49555 30.7808 6.66108C31.3824 7.44835 32.1681 8.39561 32.5266 8.76647C33.4702 9.74254 34.7332 11.5828 34.9327 12.2723C35.1065 12.8728 35.2352 14.1705 35.1517 14.4779C35.0231 14.9507 35.0615 15.0118 34.184 12.932L33.6162 11.5863L32.6348 10.3317C31.7347 9.05028 30.548 7.67782 28.9296 6.91509C28.2842 6.17499 27.8078 5.73766 27.2711 4.9541C27.1305 4.74385 26.7564 4.24585 26.5921 4.07159C26.244 3.70283 25.8147 3.45472 25.6036 3.28757C25.2207 2.98429 24.9313 2.71914 24.9606 2.6981L24.9606 2.69809ZM0.874994 20.1483C0.901799 20.1281 0.924489 20.1181 0.940581 20.1205C0.978336 20.1267 1.0695 20.3827 1.14356 20.6893C1.3592 21.5821 1.45358 21.7863 1.86372 22.247C2.22267 22.6502 2.63845 23.0102 3.96043 24.0635C4.25983 24.3021 4.62009 24.5935 4.76137 24.7113C4.90266 24.8291 5.14431 24.9415 5.29823 24.9609L5.57802 24.9959L5.47719 25.336C5.3626 25.7221 5.31707 25.7616 4.81959 25.9055C4.32154 26.0493 3.59005 25.9169 2.83459 25.5451C2.25176 25.2582 2.167 25.1885 1.86115 24.7493C1.62467 24.4098 1.45702 24.0443 1.29202 23.5076C1.12715 22.9711 0.935678 22.5534 0.64241 22.0897C0.29909 21.5468 0.232452 21.3858 0.258245 21.1636C0.2855 20.9289 0.687535 20.29 0.874989 20.1483L0.874994 20.1483ZM15.1937 10.0826C15.2176 10.0418 15.3657 10.1093 15.6363 10.2864C15.9332 10.4809 16.0651 10.5007 16.6633 10.4413C17.5135 10.3569 17.7923 10.389 18.7651 10.6833C19.1896 10.8118 19.6795 10.9039 19.8535 10.8881C20.0274 10.8723 20.4171 10.8374 20.7196 10.8102C21.3093 10.7572 21.4397 10.8109 22.0139 11.3448C22.2712 11.584 22.5065 11.713 22.8521 11.8039C23.5052 11.9755 23.7518 12.172 24.5515 13.1591C24.8312 13.5159 24.9713 13.8092 25.2762 14.089C25.4451 14.2439 25.6225 14.4122 25.9948 14.5485C26.0902 14.595 26.4091 14.8083 26.7034 15.0221C27.18 15.3686 27.3319 15.5372 28.0972 16.5696C28.2375 16.9375 29.6691 18.5907 29.7266 18.9395C29.7491 19.076 28.7049 18.3549 28.503 18.4157C27.2375 17.7562 26.883 17.4622 25.8927 16.2512C25.1178 15.3036 24.9035 15.0887 24.1855 14.5391C23.169 13.7611 22.3275 13.3024 21.6246 13.144C21.3282 13.0773 20.8226 12.8757 20.5011 12.6956C20.0716 12.4551 19.5846 12.2953 18.6668 12.0945C17.9796 11.9442 17.2674 11.7603 17.0842 11.6859C16.5474 11.4681 15.9204 11.0111 15.4944 10.5272C15.2697 10.272 15.1697 10.1233 15.1937 10.0826H15.1937ZM14.9524 10.5781C14.9713 10.5843 15.0281 10.6572 15.1392 10.802C15.8481 11.7261 16.6244 12.1049 18.5291 12.4556C19.9016 12.7083 20.1117 12.7738 20.8819 13.1887C22.0494 13.8177 23.2229 14.8488 24.0498 15.9717C24.2645 16.2633 24.2476 16.2884 23.8159 16.3205C23.3876 16.3523 22.7926 16.1008 21.8334 15.4826C20.845 14.8456 20.2804 14.5487 19.1752 14.0857C18.0512 13.6147 17.0296 13.0434 16.5072 12.5938C15.9652 12.1273 15.0978 11.0733 14.9922 10.753C14.9523 10.6319 14.9334 10.5718 14.9524 10.5781ZM25.3205 3.3727C25.3242 3.367 25.3322 3.36669 25.3456 3.37216C25.597 3.48062 25.9954 3.74832 26.4499 4.2531C26.7916 4.63257 28.7275 6.93887 28.6477 6.84994C27.8425 6.59957 27.1791 5.92449 26.0778 4.47374C25.5321 3.75479 25.2979 3.41495 25.3205 3.37261L25.3205 3.3727ZM1.42943 20.7251L1.86972 21.4035C2.30232 22.0699 2.31945 22.0865 2.85035 22.3489C3.14752 22.4958 3.62044 22.8221 3.90112 23.0742C4.66612 23.7611 4.86096 23.8943 5.27911 24.0158C5.5774 24.1025 5.66656 24.1648 5.68569 24.2994C5.69915 24.3942 5.69371 24.5387 5.67301 24.6206C5.62614 24.8064 5.54613 24.7879 4.87724 24.4355C3.37695 23.645 1.75316 22.0214 1.51681 21.0752L1.42943 20.7251ZM9.06581 16.3337C9.42565 16.0546 10.1291 15.6451 10.7651 15.3601C11.6065 14.9831 12.4962 14.7754 13.8451 14.6409C14.4987 14.5756 15.3836 14.4457 15.8113 14.3523C17.1113 14.0685 17.3227 14.083 18.8676 14.5612C19.3021 14.6957 19.7694 14.8385 19.9061 14.8785C20.1135 14.9392 20.1462 14.9726 20.1039 15.0796L20.1037 15.0793C20.0431 15.2324 19.9956 15.2645 19.6315 15.3943C19.152 15.5652 18.5161 15.5217 16.6124 15.1882C15.4107 14.9777 14.6181 14.8885 14.3328 14.9319C13.6382 15.0376 12.9789 15.3477 11.8264 16.1112C10.7674 16.8126 10.7415 16.825 9.91351 17.0096C9.01296 17.2104 8.40307 17.5094 8.25061 17.8249C8.17786 17.9761 8.15589 17.9914 8.14852 17.8975C8.14339 17.8318 8.27472 17.5446 8.44042 17.2594C8.60613 16.9742 8.7839 16.6592 8.83566 16.5598C8.86401 16.5053 8.94588 16.4268 9.06581 16.3338V16.3337ZM8.998 17.5918C9.16486 17.4793 9.4751 17.4228 10.0336 17.3153L10.8895 17.1506L12.1367 16.3254C12.8548 15.8504 13.5177 15.4611 13.699 15.4082C14.0504 15.3056 15.6173 15.2052 15.6048 15.286C15.6004 15.3144 15.1345 15.4545 14.5694 15.5975C13.0914 15.9714 12.3606 16.4686 10.8383 18.1366C9.70472 19.3786 9.45869 19.7786 9.1139 20.9393C8.86991 21.7608 8.71893 22.1066 8.45131 22.4568C8.26067 22.7064 8.07553 22.9955 8.03991 23.0994C7.92549 23.4332 7.84382 23.3927 7.88441 23.0222C7.95632 22.3653 8.09548 21.8172 8.5034 20.5856C8.8804 19.4473 8.90357 19.3102 8.84746 18.5319C8.80729 17.9747 8.78376 17.7367 8.998 17.5918V17.5918ZM8.45435 18.3175C8.55052 18.3333 8.49978 19.6728 8.39053 20.0006C8.33496 20.1674 8.12281 20.5605 7.91914 20.8741C7.35199 21.7474 7.36501 21.7344 7.28555 21.5038C7.15074 21.1125 7.1061 20.6269 7.1806 20.3613C7.22231 20.2126 7.42573 19.8715 7.63246 19.6033C7.8392 19.3352 8.09552 18.9343 8.20205 18.712C8.30861 18.4897 8.42204 18.3122 8.45431 18.3175H8.45435ZM13.0148 16.46C13.7489 15.9314 14.1667 15.7824 14.7505 15.8408C15.1378 15.8795 15.3884 15.8325 15.9688 15.6136C16.3706 15.462 16.7456 15.3351 16.802 15.3312C16.8584 15.3273 17.1213 15.4088 17.386 15.5125C17.8511 15.6947 18.9942 15.8929 19.6353 15.9024L19.9469 15.9071L19.8867 16.1567C19.7956 16.5338 19.2573 16.8856 18.4735 17.0802C18.1216 17.1677 17.6098 17.3693 17.3305 17.5309C15.7404 18.4508 13.9608 18.9409 12.7802 18.7839C11.944 18.6728 11.8037 18.7916 11.4611 19.9011C11.1821 20.8812 10.7446 21.8093 9.25892 21.7051C9.2233 21.5942 10.0719 19.8764 10.4912 19.2103C10.9893 18.4192 12.3431 16.9436 13.0148 16.4599V16.46ZM28.1128 6.77204C28.1379 6.7715 28.1917 6.79945 28.2823 6.85582C28.4076 6.93366 28.7447 7.09674 29.0316 7.21815C29.3184 7.33958 29.8234 7.6283 30.1537 7.85958C30.7116 8.25236 31.3803 8.90965 31.8344 9.58153C32.6941 10.781 33.3238 11.8325 33.7715 12.8163C33.9466 13.2011 34.1769 13.6759 34.2832 13.8717C34.3896 14.0675 34.5054 14.3557 34.5407 14.5121C34.6027 14.7864 34.5911 14.7776 34.2065 14.2575C33.9873 13.9612 33.4542 13.2999 33.0219 12.7881C32.5895 12.2762 31.4687 10.854 30.531 9.62745C29.078 7.72672 28.7782 7.36819 28.5009 7.19919C28.322 7.09015 28.1485 6.93626 28.1151 6.85752C28.091 6.80056 28.0876 6.77239 28.1127 6.77203L28.1128 6.77204ZM7.73715 21.7053C7.75737 21.6905 7.77563 22.0778 7.77751 22.5656C7.78221 23.7866 7.63514 24.4162 7.1617 25.2053C6.71325 25.9527 6.70482 26.1375 7.0661 27.2706C7.18706 27.65 7.28466 28.2467 7.30051 28.7051C7.32679 29.465 7.47629 30.1485 7.67627 30.4227C7.77821 30.5625 7.69323 30.6696 7.471 30.6822C7.36246 30.6883 7.28407 30.5845 7.03033 30.0982C6.17101 28.4514 5.76545 26.4864 5.94668 24.8478C6.03728 24.0285 6.30504 23.4884 6.98566 22.7523C7.29173 22.4213 7.57784 22.0564 7.62128 21.9413C7.66472 21.8262 7.71686 21.7199 7.73715 21.7053ZM11.9234 19.4385C11.9858 19.3891 12.0963 19.3526 12.3121 19.2838C13.2878 18.9724 15.1533 18.8413 15.3218 19.0724C15.4207 19.208 15.3013 19.6159 15.0174 20.1117C14.3792 21.2264 14.0145 23.9204 14.3875 24.766C14.5038 25.0296 14.5097 25.0227 14.056 25.1549C13.8504 25.2146 13.5118 25.2065 13.1953 25.1339L12.6735 25.0144L12.2246 24.402C11.7342 23.7326 11.2299 23.2959 10.8053 23.1734C10.269 23.0186 10.2036 22.345 10.6542 21.6177L10.6545 21.6174C10.749 21.4767 10.9352 21.33 11.0797 21.1342C11.2323 20.9272 11.344 20.6675 11.4847 20.3817C11.5932 20.1613 11.7395 20.0244 11.8241 19.6713C11.8467 19.5506 11.861 19.488 11.9234 19.4385L11.9234 19.4385ZM9.00978 22.4127C9.34206 22.1852 9.48654 22.1285 9.62272 22.173C9.95165 22.2805 9.83862 22.4627 9.12359 22.9775C8.41304 23.4892 8.19257 23.7476 8.19927 24.0608C8.20387 24.2792 8.00865 24.4668 7.84626 24.3994C7.70126 24.3393 7.82696 23.9769 8.23021 23.2939C8.51074 22.8189 8.65597 22.655 9.00978 22.4127H9.00978ZM21.8661 13.3898C21.9587 13.323 22.808 13.7053 23.2401 14.0084C24.3766 14.8056 24.9844 15.3834 25.7626 16.4057C26.195 16.9737 26.6141 17.4579 26.7412 17.5362C27.046 17.724 27.0046 17.8115 26.6581 17.7115C26.1976 17.5787 25.8725 17.3402 25.3268 16.7357C25.0453 16.4239 24.1403 15.5518 23.3156 14.7973C22.491 14.0429 21.8387 13.4095 21.866 13.3898H21.8661ZM24.8051 11.5832C25.0104 11.4354 26.1188 11.359 26.7047 11.4525C27.9247 11.6472 28.8914 12.2991 30.1707 13.7894C31.9906 15.9096 33.4417 19.3037 33.5229 21.6299C33.5358 21.9986 33.4726 22.8493 33.3826 23.5201L33.2192 24.7394L33.0461 24.502C32.6623 23.9757 32.2377 23.0603 31.8786 21.9848C31.6705 21.3611 31.208 20.0628 30.8508 19.0996C29.952 16.6763 29.8625 16.3941 29.663 15.3415C29.4783 14.3667 29.3161 13.9032 29.0124 13.4806C28.771 13.1451 27.9579 12.8328 27.466 12.8869C26.7865 12.9617 26.5138 12.8683 26.2147 12.4581C25.9383 12.079 25.6543 11.8936 25.0828 11.7185C24.9031 11.6634 24.7783 11.6026 24.8051 11.5832L24.8051 11.5832ZM10.0505 22.4724C10.0821 22.4645 10.1109 22.4925 10.1539 22.5514C10.34 22.8067 10.4007 23.2987 10.3223 23.9189C10.2792 24.2599 10.1867 24.6715 10.1166 24.8335C9.99031 25.1252 9.98707 25.128 9.72672 25.1164C9.51217 25.1068 9.39429 25.0271 9.08403 24.6825C8.87509 24.4503 8.64607 24.2313 8.57534 24.1956C8.5046 24.1599 8.4379 24.0572 8.42685 23.9673C8.40988 23.8289 8.51416 23.7264 9.10633 23.3C9.49106 23.023 9.8617 22.7109 9.93022 22.6061C9.98427 22.5235 10.019 22.4803 10.0507 22.4726L10.0505 22.4724ZM24.4338 12.1599C24.8604 11.8527 25.524 12.0742 25.9572 12.6681L26.2443 13.0619L27.2639 13.2141C28.5112 13.4004 28.7364 13.5317 28.9877 14.2212C29.0821 14.4802 29.2285 15.0139 29.3131 15.4071C29.3976 15.8003 29.4639 16.1623 29.4605 16.2111C29.4512 16.3434 29.2884 16.2121 28.8584 15.7266C28.2913 15.086 25.9683 13.3372 24.9415 12.7777C24.2484 12.4 24.1935 12.3329 24.4338 12.1599ZM7.70022 24.7902C7.73194 24.7629 7.76741 24.7396 7.81076 24.7171C7.86833 24.6867 7.93909 24.6574 8.03108 24.6206C8.41263 24.468 8.42002 24.4694 8.65152 24.7436C8.93531 25.0797 8.93538 25.2365 8.65206 25.5329C8.15921 26.0484 8.04724 26.3797 8.09116 27.1904C8.14508 28.1856 8.30208 29.0021 8.54136 29.5309L8.73262 29.9533L9.23929 30.0577C9.51801 30.1151 9.76588 30.1894 9.79007 30.2226C9.81426 30.2557 9.73401 30.3835 9.61191 30.5066C9.31641 30.8045 9.29196 30.8185 9.00484 30.8543C8.53594 30.9127 7.82913 30.2828 7.62194 29.6218C7.52764 29.3208 7.50631 28.9146 7.53327 27.9163C7.54468 27.4938 7.49095 27.1772 7.35414 26.8639C7.11916 26.3255 7.14087 25.8811 7.43334 25.2392C7.54673 24.9904 7.60525 24.8721 7.70025 24.7902L7.70022 24.7902ZM17.3568 17.9891C17.6172 17.8016 17.7936 17.7252 18.0886 17.6467C18.8091 17.455 18.9066 17.4737 19.243 17.8685L19.5373 18.2139L19.432 19.2021C19.374 19.7457 19.3386 20.3402 19.353 20.5234C19.3675 20.7066 19.3514 20.8765 19.3174 20.901C19.2833 20.9255 19.1179 20.7572 18.9501 20.527C18.5338 19.9562 18.1275 19.7554 17.1913 19.6573C16.8247 19.6481 16.5577 19.5775 16.3538 19.5631C15.9495 19.5344 15.8756 19.5298 16.0478 19.3105C16.1971 19.1201 16.5256 18.7566 17.0609 18.2179C17.1739 18.1267 17.27 18.0515 17.3568 17.989L17.3568 17.9891ZM20.6673 15.618C20.6949 15.6225 20.8029 15.8979 20.9072 16.2298C21.0595 16.7134 20.9446 17.1834 21.1797 17.6211C21.5316 18.276 22.0559 19.0696 22.5522 19.7588C22.8586 20.2073 23.1343 20.7006 23.4322 21.1503C23.6217 21.4364 23.8155 21.7041 24.0463 21.9341C24.9006 22.8215 26.8277 23.4398 28.4693 23.3534C28.7631 23.3379 29.014 23.3398 29.0268 23.3572C29.0671 23.4125 29.0243 23.4217 27.7278 23.6369C27.0288 23.7529 25.9332 23.9774 25.293 24.1354C22.8586 24.7364 21.9746 24.5083 20.7505 22.963C20.0967 22.1376 19.7622 21.4595 19.7152 20.8649C19.7013 20.6911 19.7751 20.2209 19.8793 19.8199C20.042 19.1937 20.049 18.9867 19.9286 18.3512C19.8516 17.9443 19.8095 17.4757 19.8352 17.3099C19.882 17.0075 20.573 15.6025 20.6673 15.618L20.6673 15.618ZM24.5154 12.8749L25.8481 13.8247C28.2718 15.5527 28.7573 16.0832 29.7569 18.0957C30.0636 18.7133 30.3116 19.2361 30.3083 19.2575C30.2978 19.3253 30.0627 19.1434 29.9357 18.9693L29.9354 18.9696C29.1209 17.8464 28.5154 16.8997 27.6744 15.7608C27.2042 15.1589 27.1022 15.0697 26.5267 14.7553C25.9474 14.4326 25.6289 14.2665 25.3442 13.9988C25.2499 13.91 25.1633 13.8217 25.0504 13.6743C25.0005 13.609 24.8681 13.3994 24.8188 13.2991L24.5154 12.8749ZM20.9714 15.8394L21.6722 16.8834C22.3675 17.9187 22.3848 17.9378 23.8722 19.3243C24.6968 20.093 25.6335 20.9293 25.9535 21.183C26.8361 21.8828 28.255 22.7911 28.657 22.9135C28.9475 23.002 28.98 23.0273 28.8305 23.0469C28.2994 23.1164 25.9944 22.2008 24.678 21.3975C24.1406 21.0696 23.172 20.1191 22.3298 19.0931C21.9499 18.5634 21.6064 18.154 21.3224 17.6193C21.1481 17.291 21.1723 16.8646 21.065 16.314L20.9714 15.8394ZM21.2143 15.6645L21.6351 15.8776C21.8664 15.9949 22.3136 16.2767 22.6289 16.5038C23.4107 17.067 23.8965 17.2669 25.2241 17.5701C27.1162 18.0022 28.3208 18.5471 29.8955 19.6836C30.6114 20.2003 30.7802 20.3614 31.1897 20.9193C31.5801 21.4508 31.6698 21.6247 31.7128 21.9359C31.7414 22.1424 31.7669 22.3709 31.7696 22.4435C31.7727 22.526 31.5509 22.2987 31.1777 21.8375C29.9584 20.3305 28.9677 19.6461 27.6763 19.419C27.2672 19.3471 26.4726 19.2375 25.9103 19.1754C24.7402 19.0462 23.923 18.7734 23.2966 18.3028C22.7591 17.8991 22.0109 17.0137 21.5565 16.2439L21.2143 15.6645ZM2.08767 29.4889C2.25907 29.3654 4.8845 28.217 5.04254 28.1963C5.50902 28.1352 6.24891 28.9554 6.57264 29.8927C6.77194 30.4697 6.7467 30.8166 6.48417 31.1122C6.09517 31.5503 6.05203 31.6971 6.18822 32.1201L6.32033 32.5303L5.96997 32.7782C5.3245 33.2353 4.72165 33.3214 4.1004 33.0469C3.61108 32.8306 3.55103 32.722 3.27867 31.56C3.04493 30.5627 2.77484 30.1419 2.26271 29.9769C1.94618 29.875 1.92639 29.8557 1.97656 29.6985C2.00626 29.6056 2.05633 29.5112 2.08756 29.4887L2.08767 29.4889ZM15.7679 19.7526L15.7682 19.7529C15.8491 19.6554 16.8318 19.7705 17.0857 19.7992C18.1481 20.0208 18.4045 20.1706 19.0101 20.9219C19.1621 21.1149 19.5257 21.7293 19.464 21.7936C19.3762 21.8852 19.0558 21.5191 18.6557 21.3978C17.8693 21.1592 16.7371 21.0182 16.1927 21.2216C15.929 21.2704 15.5014 21.4331 15.238 21.5849L14.7611 21.8592L14.9013 21.4364C15.0555 20.9716 15.3889 20.2087 15.7679 19.7526ZM10.8266 23.4923L11.0831 23.5909C11.2959 23.6727 11.4234 23.8106 11.8278 24.3969C12.4708 25.3295 12.6565 25.4404 13.8217 25.5897C14.3292 25.6547 14.759 25.7531 14.7768 25.8084C14.7951 25.8653 14.5779 25.8671 14.277 25.8122C13.3559 25.6446 12.7309 25.6443 12.4965 25.8113C12.2622 25.9779 10.8752 26.1855 10.6363 26.089C10.4113 25.9982 10.3514 25.4793 10.5006 24.9126C10.5716 24.6426 10.6741 24.2129 10.7282 23.9573L10.8266 23.4923ZM8.77155 26.0245C8.81427 25.9915 8.8582 25.9599 8.90361 25.9316C9.20597 25.7422 9.54795 25.6647 9.66188 25.821C9.69429 25.8654 9.63684 26.0738 9.53416 26.2843C9.24481 26.8774 9.24086 27.3161 9.52042 27.8196C9.73543 28.2069 9.74807 28.2983 9.65565 28.791C9.59952 29.0901 9.59158 29.3865 9.63766 29.4498C9.73873 29.5884 9.69473 29.6224 9.35978 29.6642C8.94577 29.7159 8.78092 29.592 8.5986 29.0912C8.39468 28.5311 8.29935 26.6516 8.46026 26.3671C8.53154 26.2412 8.6433 26.1232 8.77122 26.0241L8.77155 26.0245ZM15.1577 21.926C15.6285 21.598 16.335 21.2796 16.7965 21.2472C16.935 21.2374 17.2919 21.2639 17.5896 21.3058C17.897 21.3771 18.2345 21.382 18.6639 21.5458C18.8779 21.6273 19.172 21.7833 19.3826 21.9371C19.7018 22.17 19.9915 22.7693 20.2517 22.9915C21.1951 24.2271 21.3675 24.3515 22.5277 24.6344C23.2945 24.8214 23.5893 24.9175 23.4361 24.9309C23.3881 24.935 23.0478 24.9609 22.6804 24.9886C21.827 25.0253 20.66 25.0771 19.6902 25.1559C19.5867 25.1694 18.9054 25.1311 18.1749 25.0377C16.6999 24.8493 15.894 24.8803 15.2594 25.1503L14.8355 25.3308L14.7055 25.059C14.5048 24.6392 14.4761 24.2938 14.5706 23.442C14.6186 23.0101 14.6629 22.5717 14.6692 22.4678C14.6779 22.3234 14.8753 22.1229 15.1577 21.926L15.1577 21.926ZM10.0821 26.0675L10.3072 26.1572C10.4308 26.2065 10.698 26.2718 10.9011 26.3022L11.2702 26.3572L11.2955 26.6493C11.3094 26.8097 11.316 27.1705 11.3104 27.4513L11.3007 27.9618L11.7292 28.4577C12.1309 28.9227 12.1569 28.9754 12.1506 29.3014C12.1467 29.5018 12.2361 29.8402 12.3615 30.1005C12.481 30.3489 12.5895 30.6258 12.6023 30.7162C12.6303 30.9127 12.1532 31.2796 11.6895 31.4184C11.367 31.5146 11.3727 31.52 10.7674 30.5527C10.5933 30.2745 10.5207 30.2204 10.3035 30.2076L10.0459 30.1923L9.83872 29.602C9.65335 29.0733 9.64841 28.9789 9.7916 28.697C9.98506 28.3162 9.99391 28.1946 9.85685 27.7816C9.73007 27.3996 9.76747 26.8388 9.94953 26.3926L10.0821 26.0675ZM11.6571 26.2289C11.659 26.2091 11.8836 26.1526 12.1564 26.1031C12.7879 25.9883 13.5234 26.0615 13.9777 26.2846L14.3329 26.4591L14.2001 26.6604C14.0005 26.9634 13.926 27.5446 13.997 28.2417C14.032 28.5855 14.0443 29.0062 14.0244 29.1766C13.9802 29.555 13.9375 29.5876 13.3296 29.702C13.0638 29.752 12.8016 29.8248 12.7472 29.8639C12.6854 29.9084 12.6284 29.8819 12.595 29.7932C12.5656 29.715 12.3732 29.285 12.167 28.8374C11.9608 28.3898 11.7565 27.9453 11.7131 27.8498C11.6698 27.7543 11.6878 27.5694 11.7531 27.4389C11.8315 27.2826 11.835 27.0421 11.763 26.7336C11.7028 26.4761 11.6553 26.249 11.6573 26.2292L11.6571 26.2289ZM23.5237 18.7035C23.5268 18.7009 23.5315 18.6988 23.5392 18.6999C23.6218 18.7058 24.0192 18.8501 24.4223 19.0206C25.3094 19.3958 25.5741 19.4514 26.5449 19.4659C27.4896 19.48 28.1296 19.6255 28.8715 19.9949C29.8045 20.4593 30.2286 20.8721 31.0737 22.1389C31.4702 22.7332 31.861 23.3576 31.9423 23.5261L32.0902 23.8328L31.5611 23.7375C30.5364 23.5533 27.4596 22.0743 26.0419 21.0847C25.2781 20.5514 23.4317 18.7983 23.5241 18.7039L23.5237 18.7035ZM6.53383 31.4702C6.60965 31.3993 6.75249 31.3204 7.02723 31.1741C7.34183 31.0064 7.70439 30.8647 7.83273 30.8594C8.16203 30.8457 9.1219 31.5603 9.53475 32.1265L9.85001 32.5588L9.59026 32.6346C9.21047 32.746 8.78504 33.1656 8.72487 33.4867L8.67367 33.7582L9.94368 35.5371C11.2065 37.3062 11.2116 37.3145 10.8745 37.0952C10.6882 36.9739 10.2677 36.6054 9.93991 36.2761C9.61215 35.9469 9.04188 35.4282 8.67279 35.1238C7.71056 34.3304 6.90451 33.3067 6.633 32.5324C6.52237 32.2168 6.43713 31.8506 6.44348 31.7188C6.44904 31.6037 6.45781 31.5406 6.53369 31.4698L6.53383 31.4702ZM15.0675 25.4155L15.8479 25.2556C16.8399 25.0525 17.3492 25.0445 18.4971 25.2143C19.6272 25.3347 19.378 25.292 18.318 25.7554C17.8407 25.9142 17.0397 26.0556 16.5096 26.1307C15.6565 26.1629 15.2906 25.8208 15.1661 25.5944L15.0675 25.4155ZM22.7696 19.9119L23.116 20.23C23.3064 20.4051 23.6482 20.7365 23.8753 20.9662C24.5472 21.6459 26.4594 22.6137 27.781 22.943C28.1515 23.0353 28.451 23.1346 28.4465 23.1639C28.4331 23.2502 27.4347 23.1775 26.8558 23.0481C26.1262 22.8851 25.0262 22.4459 24.5203 22.1153C24.0135 21.7885 23.8445 21.4744 23.592 21.0941C23.392 20.7929 23.0918 20.4846 22.7696 19.9119V19.9119ZM14.5739 26.7029C14.627 26.6669 14.694 26.6286 14.7813 26.5804C14.9851 26.4681 15.2351 26.3168 15.3367 26.244C15.4828 26.1395 15.5766 26.1458 15.7856 26.2736C16.1647 26.5056 17.0612 26.8553 17.5023 26.9432C17.7101 26.9846 18.3602 27.0364 18.9475 27.0589C19.5347 27.0814 20.1773 27.1498 20.3751 27.21C20.5729 27.2703 21.2666 27.3564 21.9167 27.4015C22.6268 27.4508 23.1628 27.5372 23.259 27.6178C23.5225 27.8724 23.9172 28.4277 24.0861 28.9918C24.1965 29.3607 24.202 29.7396 24.4157 29.9938C24.6521 30.3179 24.1587 30.7706 23.3651 30.9576C22.6244 31.1321 21.3856 31.1264 20.2761 30.9437C18.4987 30.6511 16.6407 29.8036 15.5144 28.7714C15.1748 28.4603 14.8238 28.1699 14.7348 28.1263C14.3935 27.9597 14.2533 27.6355 14.334 27.1997C14.3884 26.9061 14.4162 26.8126 14.5742 26.7031L14.5739 26.7029ZM5.26601 33.679C5.53042 33.4748 5.80303 33.3335 6.10095 33.2419L6.53365 33.1088L7.07517 33.9267C7.60555 34.7275 7.63214 34.7553 8.35684 35.2609C8.87716 35.6239 9.32551 36.0212 9.86665 36.5992C10.9273 37.732 11.3435 38.0521 11.9081 38.1685L12.3692 38.2635L12.2345 38.468C12.1606 38.5805 11.9858 38.8285 11.8462 39.0189C11.52 39.4638 11.3291 39.5947 10.8745 39.6847C10.1995 39.8183 9.6646 39.5635 8.52071 38.5629C7.95716 38.07 7.52541 37.7819 6.63819 37.3071C5.21079 36.5433 4.81055 36.2386 4.36941 35.5793L4.03178 35.0745L4.48077 34.4929C4.74544 34.1502 5.00162 33.8831 5.26604 33.679L5.26601 33.679ZM9.99944 30.535C10.0283 30.5164 10.06 30.5012 10.093 30.4866L10.3397 30.3808L10.5954 30.7903C10.7855 31.0945 10.8653 31.344 10.9058 31.7602C10.9358 32.0683 10.9361 32.3506 10.9062 32.3872C10.7733 32.5501 10.267 32.542 10.0849 32.374C9.6717 31.9926 9.53078 31.7128 9.59199 31.395C9.68686 30.9021 9.79629 30.6639 9.9999 30.5356L9.99944 30.535ZM16.3884 26.3056C16.4706 26.1846 17.4347 26.1586 18.2337 25.9061C18.4791 25.8003 19.0592 25.5062 19.3482 25.4184C20.418 25.0934 21.8037 25.1972 22.8954 25.0861C23.3873 25.0721 23.8051 25.0794 23.8238 25.1025C23.8426 25.1255 23.8214 25.2049 23.7768 25.2791C23.7321 25.3534 23.3713 25.6667 22.9748 25.9753C22.1156 26.644 22.0186 26.6714 20.3901 26.6995C19.7933 26.7101 19.0941 26.778 18.8363 26.8506C18.4126 26.9701 18.2771 26.9554 17.4195 26.6954C16.6074 26.4848 16.3391 26.3778 16.3883 26.3052L16.3884 26.3056ZM14.2962 28.0249C14.3303 27.9592 14.552 28.1807 15.219 28.8061C15.7553 29.3091 16.0512 29.5113 16.8679 29.9315C17.4154 30.2131 17.8606 30.4627 17.857 30.486C17.837 30.615 16.7525 30.2682 16.0843 29.9194C15.6582 29.697 15.1937 29.4753 15.0521 29.4265C14.7173 29.3112 14.5525 29.0656 14.382 28.4286C14.3227 28.2073 14.2758 28.0643 14.2962 28.0249H14.2962ZM12.9403 30.1951C13.0372 30.1459 13.2572 30.0881 13.5093 30.0497C13.9527 29.9819 14.1289 29.992 14.1546 30.0872C14.3241 30.716 15.1422 31.9025 15.5674 32.136C15.8091 32.2687 15.8442 32.3115 15.801 32.4208C15.6892 32.7035 15.0441 32.9582 14.5953 32.8962C14.1962 32.8414 13.7404 32.5147 13.2153 31.9068L12.7948 31.42L12.8356 30.8793C12.858 30.5817 12.8815 30.2941 12.8878 30.2403C12.8896 30.2269 12.9085 30.2123 12.9402 30.195L12.9403 30.1951ZM14.4425 29.2646C14.4633 29.2474 14.9467 29.5053 15.516 29.8362C16.4755 30.3938 16.6056 30.444 17.289 30.5209C17.6945 30.5665 18.0481 30.5881 18.0748 30.5689C18.1014 30.5498 18.4743 30.6411 18.9035 30.772C20.6166 31.2943 21.8999 31.4173 23.2089 31.1846C23.8018 31.0791 23.9108 31.0329 24.2282 30.751C24.5173 30.4944 24.5693 30.4682 24.5066 30.6114C24.4643 30.7083 24.103 31.037 23.7039 31.3419C22.7846 32.0441 22.5224 32.1035 21.3409 31.8768C20.714 31.7565 20.1403 31.7323 19.2254 31.7879C16.2117 31.9713 15.3347 31.8175 14.7305 31.0004C14.4777 30.6584 14.4469 30.5532 14.4265 29.9577C14.4141 29.5933 14.4215 29.2815 14.4426 29.2646L14.4425 29.2646ZM9.30274 33.0081C9.4178 32.9261 9.57132 32.8905 9.92241 32.8238C10.4342 32.7266 10.7704 32.7532 12.1521 32.9997C13.0471 33.1593 13.8508 33.3493 13.938 33.4224C14.1686 33.6156 14.3304 34.1444 14.2919 34.5784C14.272 34.802 14.07 35.3279 13.7963 35.8681C13.5421 36.3699 13.298 36.9435 13.2537 37.1426C13.2093 37.3416 13.1598 37.51 13.144 37.5169C12.8244 37.6562 12.33 37.6188 11.8814 37.4212C11.4703 37.2402 11.4515 37.2205 10.483 35.9319C8.6766 33.5286 8.75348 33.6789 9.10263 33.2221C9.17845 33.1228 9.23367 33.0572 9.30276 33.0081H9.30274ZM11.4743 31.9981C11.4959 31.976 11.5239 31.9568 11.5581 31.9377C11.6576 31.883 11.9212 31.7083 12.1443 31.5494L12.5496 31.2598L13.1307 32.0205L13.1309 32.0208C13.4505 32.4391 13.7041 32.7868 13.6945 32.7936C13.6007 32.8589 12.9369 32.8154 12.2793 32.7007C11.4835 32.562 11.4715 32.5561 11.4247 32.2983C11.3976 32.1492 11.409 32.0635 11.4742 31.9979L11.4743 31.9981ZM4.86708 37.0008C4.92267 36.9724 4.99983 37.002 5.10061 37.0863C5.19664 37.1667 5.57276 37.3244 5.9361 37.4366C7.24295 37.8399 7.58919 38.0488 8.44516 38.9478C9.11207 39.6483 9.51226 39.9273 10.0292 40.0537C10.2675 40.112 10.4754 40.1777 10.4915 40.1997C10.5984 40.3464 9.7683 40.4576 9.11559 40.3842C7.82222 40.2385 6.2352 39.5272 5.29722 38.6727L4.78635 38.2069L4.75978 37.6428C4.74185 37.2569 4.77451 37.0482 4.86707 37.0008L4.86708 37.0008ZM21.0106 26.8355C21.0357 26.8053 21.238 26.7696 21.7019 26.6989C22.5114 26.576 22.5806 26.5498 23.1025 26.1731C23.4339 25.9336 23.7093 25.6762 23.797 25.5232C23.8767 25.3837 23.9746 25.2756 24.0142 25.2819C24.1296 25.3009 24.1609 25.6867 24.0897 26.2119C24.0535 26.4792 23.9764 26.7306 23.918 26.77C23.4751 27.0699 22.2328 27.1233 21.1382 26.8896C21.044 26.8695 20.9955 26.8536 21.0106 26.8354L21.0106 26.8355ZM24.5765 24.7032C24.8662 24.5523 26.0216 24.2421 26.711 24.1436C29.1255 23.7987 31.761 24.8163 32.8507 26.514C33.2337 27.1107 33.3319 27.6615 33.2801 28.9259C33.2589 29.443 33.217 29.8838 33.1872 29.9053C33.1573 29.9268 33.0539 29.7145 32.9574 29.4332C32.7149 28.7262 32.2456 27.9837 31.6598 27.3812C30.5198 26.2084 29.6147 25.6989 28.1642 25.4137C27.6032 25.3034 26.8106 25.1201 26.4027 25.006C25.7571 24.8255 25.1319 24.7552 24.6409 24.808C24.5628 24.8164 24.5036 24.7936 24.5093 24.7572C24.5115 24.7433 24.5355 24.7254 24.5765 24.7033L24.5765 24.7032ZM5.07722 38.7861C5.08192 38.7794 5.08791 38.7767 5.09491 38.7757C5.11432 38.774 5.14267 38.7913 5.18065 38.8211C5.27495 38.8951 5.43317 39.0601 5.53221 39.1874C6.11325 39.9345 8.80918 40.7358 10.1385 40.5568C10.42 40.5189 10.6643 40.4884 10.6816 40.489C10.6988 40.4897 10.7975 40.7677 10.9011 41.1071C11.1144 41.8062 11.4541 42.325 11.8192 42.5097C11.9558 42.5788 12.0585 42.6406 12.0479 42.6474C11.8887 42.7442 10.3708 42.9558 9.64435 42.9824C8.12053 43.0383 7.14209 42.7904 6.74482 42.2475C6.6194 42.0761 6.3475 41.7677 6.14029 41.5621C5.62024 41.0462 5.35579 40.4872 5.16619 39.5025C5.07495 39.0284 5.04455 38.8317 5.0772 38.7862L5.07722 38.7861ZM24.6698 25.2045C26.1785 25.0422 28.6264 25.5374 29.8981 26.2359C30.6507 26.6493 31.0713 27.0026 31.5961 27.7367L31.9671 28.255L31.3619 27.8136C30.6349 27.2833 29.7817 26.8326 28.7161 26.4161L28.7158 26.4163C28.4641 26.2601 27.3799 25.9 26.6189 25.7247C25.858 25.5494 25.357 25.5913 24.9948 25.4712C24.7265 25.3822 24.6176 25.2688 24.6697 25.2045L24.6698 25.2045ZM24.5969 25.7721L25.8365 26.1722C26.5002 26.5266 27.524 26.8944 28.5921 27.3705C29.5811 27.739 29.901 27.9168 30.7162 28.5525C31.0509 28.8136 31.433 29.0845 31.5652 29.1541C31.8457 29.3021 33.2668 31.1898 33.1571 31.2688C33.1218 31.2942 32.9339 31.2222 32.7394 31.1086C31.8659 30.5985 30.6013 30.3406 29.0058 30.3474C27.8914 30.3521 27.8034 30.3795 27.2103 30.0805C26.6173 29.7815 25.902 29.111 25.2925 28.6067C24.7452 28.1404 24.2827 27.7048 24.2648 27.6391C24.2469 27.5733 24.3141 27.1263 24.4144 26.6458L24.5969 25.7721ZM24.8203 25.6121C25.7401 25.7325 25.1097 25.6086 26.5716 25.9312C28.0335 26.2537 30.5333 27.3661 31.4173 28.0978C31.9623 28.5488 32.7213 29.5757 32.7757 29.9359C32.8144 30.1921 32.8045 30.1858 32.3752 29.6827C31.3549 28.4868 30.0228 27.649 27.8584 26.8421C27.4934 26.5949 25.7602 25.9834 24.8203 25.6121H24.8203ZM27.7593 23.8631C27.7649 23.8276 28.0543 23.7494 28.4024 23.6896C29.5614 23.4899 30.6479 23.8399 31.6238 24.7273C31.8824 24.9624 32.1744 25.2863 32.2731 25.4468L32.4526 25.7385L32.2006 25.5068C31.7302 25.074 31.2507 24.7476 30.7042 24.4882C30.2008 24.2492 29.8534 24.1772 28.3108 23.9943C28.0021 23.9577 27.7539 23.8988 27.7594 23.8633L27.7593 23.8631ZM17.0311 32.0131L17.6398 32.1928C18.0995 32.3286 18.428 32.3525 18.9808 32.2904C20.1625 32.1576 20.3241 32.1635 21.1046 32.3691C21.756 32.5407 21.9149 32.5463 22.3919 32.4131C22.6912 32.3295 22.98 32.2657 23.034 32.2711C23.1771 32.2853 22.842 33.0876 22.4758 33.5869C21.5594 34.8365 20.2705 35.7841 19.0772 36.2863C18.6908 36.4489 18.2783 36.5848 17.9872 36.6464C17.4677 36.7701 17.5362 36.8597 17.9688 36.7932C18.4207 36.6986 19.107 36.5703 19.7416 36.2488C20.1909 36.0212 20.6398 35.8335 21.0008 35.5754C21.1864 35.5038 21.9471 34.7916 21.8758 34.8434C21.7299 35.218 20.807 36.1718 19.8929 36.8924C19.3753 37.2145 18.8937 37.6453 18.0583 37.8893C17.7312 37.985 17.3429 38.0951 16.8872 38.0937C16.6025 38.0925 16.3153 37.9661 15.9641 37.9195C14.9106 37.6071 14.4739 37.3728 14.0708 36.9033C13.7287 36.5048 13.7258 36.4971 13.8754 36.3189C13.9588 36.2194 14.1096 35.8046 14.2105 35.397C14.3561 34.8083 14.4345 34.6366 14.5913 34.5631C14.6998 34.5123 15.0445 34.3148 15.3572 34.1238C15.6699 33.9329 16.0516 33.6372 16.2545 33.5932C16.2545 33.5932 17.5199 33.2067 17.8177 33.1618C18.1156 33.1173 18.8129 33.1957 19.0354 33.2313C19.2671 33.2685 19.7105 33.2772 20.0118 33.2256C20.2393 33.1867 21.1407 33.0104 21.7123 32.8794C22.0255 32.8077 22.1331 32.8148 22.2598 32.6906C22.3892 32.5636 22.0353 32.6609 21.7049 32.7239C21.1675 32.8264 20.3698 33.0319 20.1301 33.0682C19.8067 33.1173 19.3541 33.1365 19.1865 33.1115C18.9108 33.0703 18.1836 32.9917 17.7971 33.033C17.4106 33.0742 16.2178 33.4339 16.2178 33.4339C15.9287 33.4867 15.6539 33.653 15.2763 33.9222C14.913 34.1816 14.779 34.2477 14.8236 34.1457C14.939 33.8823 15.713 33.0845 16.3772 32.5445L17.0311 32.0131ZM24.2626 28.0746C24.3532 28.0095 24.8502 28.4294 25.5812 29.1893C25.9336 29.572 26.4537 30.2297 26.7969 30.5368C27.9341 31.5543 28.9513 31.8481 30.9603 32.0753C31.861 32.2207 32.6148 32.3628 32.6355 32.3912C32.6975 32.4762 32.2643 32.7373 31.7078 32.9503C30.1607 33.5424 27.9077 33.1929 26.4718 32.1381C26.1028 31.867 25.8779 31.6103 25.1645 30.6485C24.7278 30.0612 24.304 29.6621 24.2396 28.6847C24.2261 28.368 24.2363 28.0935 24.2626 28.0746L24.2626 28.0746ZM36.7927 19.4651C36.834 19.4353 36.8552 19.5247 36.8396 19.6636C36.8241 19.8025 36.8672 20.2476 36.9353 20.6528C37.0941 21.5985 37.0869 21.9367 36.894 22.6071C36.8075 22.9077 36.6995 23.3467 36.6538 23.5826L36.5707 24.0115L36.3973 23.6718C35.9948 22.8828 36.0053 22.1394 36.4395 20.6949C36.6011 20.1573 36.7298 19.6729 36.7254 19.6183C36.7212 19.5637 36.7514 19.4948 36.7927 19.465V19.4651ZM13.7692 36.9485C13.818 36.9221 13.9238 36.9995 14.0935 37.1767C14.4663 37.5663 14.656 37.6672 15.5326 37.9409C15.9878 38.083 16.1081 38.1428 15.8958 38.1213C15.2469 38.0491 14.7258 38.0103 14.1684 37.7826C13.8842 37.658 13.8533 37.6224 13.7858 37.3427C13.7284 37.1049 13.7203 36.9748 13.7692 36.9485H13.7692ZM35.8806 21.7321L35.9317 22.0514C36.0888 23.0337 35.922 24.373 35.561 25.0316C35.4343 25.2627 35.2498 25.5312 35.1511 25.6281C34.9725 25.8035 34.136 26.2103 34.0001 26.188C33.8184 26.1581 33.7171 25.3194 33.8076 24.5958L33.9049 23.8149L34.4889 23.3944C35.1118 22.9459 35.6405 22.3687 35.7894 21.9739L35.8806 21.7321ZM6.86997 42.7651C6.92154 42.728 7.4195 42.838 7.97641 43.0098C9.12422 43.3637 9.47033 43.3708 11.2361 43.0756C11.8487 42.9731 12.3648 42.9091 12.3823 42.9332C12.3999 42.9574 12.2883 43.2008 12.1345 43.4742C11.9079 43.8774 11.7436 44.0584 11.2662 44.4319C10.5774 44.9708 10.6828 44.9695 9.27225 44.452C8.6024 44.2063 8.25099 44.1315 7.86285 44.1519C6.92955 44.2011 6.57468 43.9206 6.70191 43.2339C6.74277 43.0132 6.8184 42.8022 6.86997 42.7651V42.7651ZM12.8524 38.463L12.8527 38.4633L12.8529 38.4636L12.8531 38.4639C12.9604 38.3943 13.0611 38.3584 13.1322 38.37C13.2111 38.383 13.357 38.5519 13.5127 38.8115C13.7612 39.2256 13.781 39.2397 14.8024 39.7049C17.0796 40.7422 18.4857 41.01 19.7356 40.6443C19.9994 40.5668 20.2425 40.5093 20.2756 40.516C20.3091 40.5232 20.1258 40.6571 19.8684 40.8136C19.3083 41.1547 18.2328 41.3821 17.0899 41.4015L17.0897 41.4012C16.1046 41.4828 15.4619 41.2539 14.6689 40.9146C13.9395 40.5316 13.4073 40.1004 12.8433 39.4351C12.4133 38.9278 12.4062 38.9125 12.5325 38.757C12.6311 38.6357 12.7452 38.5325 12.8526 38.4631L12.8524 38.463ZM13.8188 37.8404L14.1799 37.9286C14.5537 38.0457 15.0132 38.1367 15.4812 38.1869C15.7157 38.2121 15.9545 38.2698 16.1819 38.2295C17.1213 38.2959 18.0505 38.0663 18.9435 37.6825C19.7104 37.3528 20.499 37.1226 21.1199 36.1798C21.5759 35.469 21.6145 35.4889 21.4548 36.3518C21.3711 36.8037 21.252 37.3162 21.1896 37.4904C20.8305 38.494 19.627 38.9682 17.3297 39.0118C16.9117 39.0197 16.3265 39.0469 16.0289 39.0721C15.1921 39.1429 14.2294 38.6993 13.9493 38.1136L13.8188 37.8404ZM12.172 39.2751L12.1722 39.2754C12.204 39.2504 12.2309 39.2386 12.2514 39.2434C12.3159 39.2603 12.5949 39.5223 12.8715 39.8262C13.2809 40.2759 13.5005 40.4446 14.0509 40.731C14.9994 41.3573 16.1116 41.6209 17.4555 41.6206C16.5771 41.7404 14.8718 42.1731 13.538 41.7842C13.0382 41.6618 12.5821 41.4843 12.3281 41.3135C12.1039 41.1628 11.8377 40.9966 11.7364 40.9444C11.5903 40.8691 11.5491 40.7966 11.5384 40.5932C11.5234 40.3064 11.9525 39.4544 12.172 39.2751L12.172 39.2751ZM25.9897 29.464L26.2979 29.6032C26.5857 29.7953 26.8906 30.0887 27.3232 30.2903C27.7558 30.4919 28.0336 30.5575 29.4779 30.5614C30.4905 30.5641 30.723 30.5996 31.3753 30.8523C31.7842 31.0106 32.3347 31.2131 32.5986 31.3021C33.1102 31.4747 33.2306 31.6523 33.0248 31.9309C32.8305 32.194 32.2074 32.1726 30.5507 31.8452C28.3497 31.4103 27.7485 31.201 26.7136 30.298C26.4027 30.0269 26.2926 29.6749 25.9897 29.464ZM24.3003 31.4681C24.4023 31.3969 24.5274 31.3597 24.6937 31.3355C24.9732 31.2949 24.9851 31.3035 25.2159 31.6991C25.4959 32.1791 25.8363 32.418 26.2177 32.4021C26.3833 32.3952 26.8267 32.5776 27.4337 32.9021C28.2648 33.3465 28.5113 33.4329 29.3266 33.5653C30.4598 33.7493 31.0964 33.676 32.222 33.2327C33.1116 32.8824 33.2181 32.8617 33.2321 33.0391C33.2377 33.1094 32.913 33.4112 32.3619 33.8474C31.5121 34.5201 31.4603 34.5502 30.8041 34.7396C28.6043 35.3746 26.1816 35.2357 24.8017 34.2053C23.8777 33.5153 23.6266 33.0837 23.8981 32.2061C24.0239 31.7993 24.1301 31.5864 24.3003 31.4681V31.4681ZM11.4309 41.0685C11.5079 41.0413 11.726 41.1463 12.1463 41.3958C12.5913 41.66 12.997 41.8153 13.547 41.9326C14.2387 42.117 15.0408 42.1175 15.8855 42.0064C17.1798 41.8363 18.5511 41.5004 19.6746 41.1712C19.8516 41.1041 20.4343 40.8024 20.969 40.5012C22.1097 39.8586 22.5869 39.7407 23.175 39.9546C23.3845 40.0308 23.5735 40.1151 23.5951 40.1422C23.6167 40.1693 23.2448 40.4656 22.7686 40.8003C19.1317 43.3587 16.4862 44.2678 14.7988 43.5391C14.5285 43.4224 13.9334 43.096 13.4763 42.8139C13.0192 42.5318 12.4684 42.219 12.2524 42.1183C11.8682 41.9391 11.5781 41.6351 11.4319 41.2583C11.3895 41.149 11.3848 41.0848 11.431 41.0684L11.4309 41.0685ZM14.4504 38.9602C14.4643 38.9498 14.7125 39.0399 15.0016 39.1599C15.4629 39.3514 15.6494 39.3628 16.5261 39.2938C18.0904 39.1705 19.8792 38.884 20.4284 38.5671C21.1907 38.1273 21.5607 37.5793 21.846 36.0428L21.997 35.2292L22.0664 35.6439C22.1044 35.8719 22.1552 36.4157 22.1794 36.8524C22.2702 38.4961 22.035 38.8564 20.7353 39.0643C20.1741 39.1306 19.8127 39.3266 19.3334 39.6764C19.1355 39.7747 18.8176 39.9696 18.5372 39.9886C17.3213 40.0711 15.3935 39.8145 14.6042 39.1331C14.5056 39.048 14.4364 38.9702 14.4504 38.9601V38.9602ZM23.4163 33.1237C23.4977 33.0652 23.6809 33.2386 24.1592 33.8273C24.6204 34.3949 24.9225 34.5724 25.8861 34.8418C26.2483 34.9431 26.5529 35.0373 26.563 35.0512C26.6117 35.118 26.4356 35.1451 25.9898 35.1403C25.6915 35.137 25.1726 35.0129 24.6551 34.8212C24.1896 34.6487 23.7635 34.5107 23.7083 34.5145C23.6533 34.5182 23.5178 34.3974 23.4072 34.2458C23.2407 34.0174 23.2191 33.9016 23.2806 33.5692C23.3215 33.3485 23.3826 33.148 23.4163 33.1237L23.4163 33.1237ZM38.0587 23.1184C38.3972 22.8575 39.0826 22.5424 39.5569 22.4431C39.9954 22.3512 41.8715 22.3772 41.9437 22.4761C41.9994 22.5525 42.0585 22.5402 41.3184 22.6046C40.4927 22.6763 39.7263 22.8633 39.0765 23.1511C38.523 23.3962 37.8196 23.5822 37.7591 23.4992C37.7396 23.4725 37.8193 23.3493 37.9364 23.226C37.9689 23.1917 38.0103 23.1557 38.0587 23.1185L38.0587 23.1184ZM22.915 34.0536C22.9254 34.0396 22.9359 34.0319 22.9461 34.0312C22.9919 34.028 23.154 34.1556 23.306 34.3145C23.8048 34.8362 24.0441 34.9572 24.9072 35.1238C26.9214 35.5126 29.8775 35.2918 31.5912 34.6243C32.0845 34.4322 32.3272 34.2541 32.9534 33.6245L33.181 33.3962L33.225 33.678C33.2738 33.9895 33.1468 34.5216 32.8046 35.4403C32.6804 35.7736 32.5457 36.2339 32.5047 36.4629L32.43 36.8793L31.8499 37.2242C31.5308 37.4138 31.0092 37.6647 30.6907 37.7816C29.7807 38.1156 26.7813 38.699 26.2905 38.692C25.7997 38.6849 24.9756 38.4822 24.85 38.527C24.6888 38.4874 24.1808 38.4022 23.9531 38.3159C23.5816 38.1752 23.4981 38.1033 23.1405 37.613C22.7799 37.1184 22.7342 37.0087 22.6561 36.4577C22.5737 35.8755 22.7571 34.2625 22.9152 34.0539L22.915 34.0536ZM37.4933 24.6749C37.7688 24.4629 38.1127 24.3249 38.5244 24.2608C39.0639 24.1767 39.6903 23.9513 40.3923 23.5886C41.0075 23.2707 41.5961 23.045 41.9313 22.9983C42.3684 22.9374 43.4895 23.0344 44.1725 23.1924C44.558 23.2815 44.8697 23.3796 44.865 23.4105C44.8553 23.4733 44.105 23.489 43.6705 23.4355C43.5154 23.4164 43.1291 23.4219 42.8122 23.4476C42.2717 23.4915 42.2001 23.5199 41.659 23.9089C41.1303 24.2888 39.6472 25.1424 39.0863 25.3895C38.7405 25.5419 38.294 25.5909 37.4353 25.5712C36.6785 25.5538 36.6687 25.5508 36.8291 25.3739C36.9187 25.275 37.1037 25.067 37.2405 24.9117C37.3172 24.8246 37.4014 24.7456 37.4933 24.6749L37.4933 24.6749ZM16.5727 40.1151C16.6074 40.0901 17.0115 40.071 17.4693 40.1025C18.5491 40.1768 18.877 40.0953 19.3963 39.7614C19.7977 39.535 20.0619 39.2954 20.6687 39.2597C21.0436 39.2599 21.1817 39.2108 21.6542 38.9109C22.08 38.6405 22.2348 38.5005 22.3409 38.2889C22.4162 38.1386 22.4977 38.019 22.5221 38.023C22.5466 38.0271 22.572 38.1914 22.579 38.3882C22.5875 38.6265 22.5308 38.8123 22.409 38.9436C22.3085 39.0522 22.2053 39.1518 22.1796 39.165C22.1537 39.1776 21.8744 39.3101 21.5584 39.4578C21.2424 39.6056 20.7331 39.858 20.4266 40.0187C19.6359 40.4335 18.7258 40.5824 17.7951 40.4493C17.0002 40.3356 16.4683 40.1903 16.5727 40.1152L16.5727 40.1151ZM12.581 43.3556C12.6008 43.3359 12.6228 43.3223 12.6465 43.3106L12.6463 43.3103C12.678 43.2948 12.7159 43.2874 12.7609 43.2802C13.127 43.2263 13.5934 43.3208 14.2632 43.5844C14.6201 43.7248 15.1346 43.8815 15.4068 43.9331C15.8438 44.0159 15.8779 44.0352 15.6966 44.0976C15.5839 44.137 15.4359 44.1872 15.3683 44.2106C15.3006 44.2339 15.4763 44.2215 15.7586 44.182C16.0409 44.1431 16.6321 44.0659 17.0719 44.0105C18.2182 43.8663 19.2108 43.4782 20.1481 42.8058C20.7114 42.4025 21.065 42.2079 21.6143 41.9991C22.0124 41.8479 22.3258 41.7389 22.3107 41.7569C22.2958 41.7752 22.0018 42.1011 21.6578 42.4815C21.3138 42.862 20.6995 43.5786 20.2925 44.0739C19.7191 44.8009 18.7603 45.9009 17.5668 46.5571C16.9749 46.8827 16.3051 46.9734 15.6545 47.221C15.0895 47.3101 12.7031 46.8882 12.5404 46.6688C12.3463 46.4073 12.217 45.8132 12.2086 45.1431L12.2005 44.4803L12.8539 44.5834C13.2951 44.653 13.726 44.6437 14.1812 44.5546C15.2061 44.354 15.3694 44.2567 14.4256 44.4087C13.4514 44.5656 12.4676 44.4947 12.3426 44.2589C12.2974 44.1736 12.3254 43.9253 12.405 43.7072C12.4747 43.5163 12.5212 43.4131 12.5809 43.3548L12.581 43.3556ZM33.719 29.7094L34.0242 29.6413C34.5065 29.5338 34.7963 29.6506 35.5236 30.2457C36.3314 30.9069 36.6702 31.3498 36.9193 32.0704C37.0214 32.3659 37.2136 32.7967 37.3464 33.0277L37.3467 33.0274C37.4796 33.2584 37.5884 33.5258 37.5885 33.6216C37.5887 33.7757 37.5642 33.7742 37.3777 33.6083C37.2411 33.4869 36.826 33.3514 36.1994 33.2239C34.9473 32.9692 34.4669 32.7112 34.0834 32.0866C33.7579 31.5564 33.6184 30.9014 33.6786 30.1873L33.719 29.7094ZM23.0868 37.8658L23.087 37.8661C23.1307 37.8621 23.3036 37.993 23.5054 38.1861C24.4351 39.0753 26.5955 39.7273 28.2381 39.6143C28.5655 39.5917 28.8415 39.5842 28.8512 39.5976C28.9146 39.6844 27.3527 40.4349 26.9218 40.5245C26.3573 40.6421 26.0118 40.5404 24.807 39.902C24.0274 39.4889 23.6689 39.2531 23.5285 39.0606C23.3397 38.8017 23.0576 38.0625 23.0763 37.8761C23.0774 37.8703 23.0808 37.8664 23.087 37.8657L23.0868 37.8658ZM24.4637 38.6288C24.5004 38.638 25.4923 38.8474 26.3747 38.8214C27.2571 38.7954 27.6945 38.7739 29.4341 38.284C30.1137 38.0926 30.8239 37.9126 31.0125 37.8838C31.2045 37.8543 31.4981 37.7296 31.6791 37.5999C31.9126 37.4326 31.9876 37.4071 31.9491 37.507C31.8877 37.6668 31.2568 38.1211 30.9052 38.2587C30.7734 38.3104 30.3415 38.58 29.9462 38.8584C29.2906 39.3193 29.1776 39.3716 28.6711 39.4524C27.9082 39.5741 27.2636 39.4929 26.1341 39.1324C25.6052 38.9637 25.0238 38.7933 24.842 38.7539C24.6601 38.7145 24.4747 38.7119 24.4637 38.6289L24.4637 38.6288ZM22.8785 41.4965C22.9345 41.4594 22.9954 41.4221 23.0597 41.3862C23.4524 41.1664 23.5487 41.153 24.2017 41.2297C24.682 41.2862 24.9095 41.3524 24.8981 41.4317C24.8888 41.4964 24.6609 41.7862 24.3918 42.0758C24.1228 42.3654 23.5818 42.9863 23.1896 43.4557C21.589 45.3713 20.1282 46.5427 19.1319 46.7094C18.6409 46.7663 18.6333 46.8783 17.9146 46.7866C17.6963 46.7399 17.6982 46.7362 18.1581 46.4031C18.9815 45.8069 20.3645 44.3921 21.1827 43.3096C21.3696 43.0622 21.7358 42.6572 21.9964 42.4093C22.257 42.1613 22.5065 41.8836 22.5506 41.7923C22.5866 41.7177 22.7103 41.6075 22.8784 41.4965H22.8785ZM15.8618 47.2824C16.2928 47.148 16.639 47.0693 17.1413 46.9149C17.4279 46.877 17.6802 46.8675 17.7716 46.8914C18.3084 47.0472 18.8163 46.9428 19.395 46.87C19.7937 46.7421 19.9217 46.6927 20.9308 45.9923C21.93 45.2989 22.0748 45.1233 22.866 44.2089C23.3412 43.6597 23.9381 42.9888 24.1925 42.7178C24.4469 42.4469 24.6636 42.1762 24.6736 42.1164C24.6837 42.0565 24.7525 41.964 24.8267 41.9106C24.942 41.8276 24.9528 41.8757 24.9012 42.2437C24.8264 42.777 24.9007 43.0549 25.2441 43.5259C25.3917 43.7282 25.498 43.9041 25.4803 43.9168C25.4625 43.9296 25.1535 44.029 24.7937 44.1377C23.8028 44.437 22.8712 45.072 22.0644 45.9972C21.2628 46.9165 21.111 47.0527 20.5555 47.3521C19.6455 47.8427 18.532 48.1426 17.8663 48.0769C17.5581 48.0464 15.9559 47.4112 15.8616 47.2819L15.8618 47.2824ZM25.9768 41.1986C26.152 41.0835 26.3597 41.0169 26.5956 41.003C26.8139 40.9901 27.0819 40.956 27.191 40.9272C27.6081 40.8176 29.125 39.9717 30.08 39.3172C30.6279 38.9416 31.292 38.5181 31.5556 38.3761L32.0351 38.118L31.7743 38.6405C31.6309 38.9281 31.5831 39.1107 30.7462 40.2636C30.4267 40.7037 30.0004 41.0614 29.5825 41.3996C28.9055 41.9474 28.2536 42.3663 28.1352 42.4195C27.9439 42.5058 27.3694 42.8449 26.8583 43.173L25.9287 43.7695L25.6726 43.3247C25.3854 42.8256 25.3165 42.5383 25.3937 42.1601C25.484 41.7178 25.6851 41.3907 25.9769 41.1987L25.9768 41.1986ZM32.2169 38.1312C32.242 38.0999 32.2476 38.1405 32.261 38.2353C32.355 38.8967 31.8645 40.8723 31.3904 41.7419C31.0788 42.3135 30.7063 42.6112 29.8138 43.0014C28.7785 43.454 28.4273 43.7546 27.5857 44.909C26.7501 46.055 26.4621 46.3138 26.0909 46.2528C25.8825 46.2188 25.8065 46.1506 25.6011 45.814C25.4065 45.4953 25.3713 45.3591 25.4242 45.1323C25.5428 44.6244 25.7837 44.3823 27.9329 42.7761C28.6553 42.2361 29.0691 42.0691 29.64 41.6164C29.9698 41.3549 30.3781 41.0594 30.8614 40.3837C31.8877 38.9488 31.8546 38.8785 32.0546 38.4591C32.1468 38.2656 32.1918 38.1624 32.2169 38.1312L32.2169 38.1312ZM38.2309 36.0218C38.2853 35.9925 38.3621 36.0679 38.4093 36.2374C38.5129 36.6089 38.3984 37.1692 38.0407 38.0421C37.8577 38.4886 37.6892 38.9389 37.666 39.0426C37.6149 39.271 37.5668 39.2202 37.5163 38.8842C37.4624 38.5251 37.5977 37.8798 37.8974 37.0668C38.0403 36.6794 38.1619 36.2842 38.1676 36.1888C38.1735 36.0939 38.1982 36.0392 38.2309 36.0218V36.0218Z" fill="url(#paint0_radial_60_38)"/>
<path d="M53.966 29.3394C53.9587 29.3672 53.9451 29.3899 53.9254 29.4075C53.9058 29.4252 53.8837 29.4378 53.8592 29.4453C53.8346 29.4529 53.8089 29.4542 53.7818 29.4491C53.7573 29.4415 53.7339 29.4277 53.7118 29.4075C53.3606 29.0469 53.0107 28.6876 52.6621 28.3295C52.3158 27.9689 51.9671 27.6083 51.616 27.2477C51.5055 27.6941 51.3999 28.1416 51.2992 28.5905C51.1986 29.0393 51.0844 29.4844 50.9567 29.9257C50.942 29.9736 50.915 30.0051 50.8757 30.0203C50.8388 30.0354 50.802 30.0379 50.7652 30.0278C50.7283 30.0177 50.6976 29.9963 50.6731 29.9635C50.651 29.9307 50.6473 29.8904 50.662 29.8425C50.7332 29.6004 50.7983 29.357 50.8573 29.1125C50.9186 28.8679 50.9776 28.6233 51.0341 28.3787C51.093 28.1315 51.1507 27.8857 51.2072 27.6411C51.2636 27.394 51.3238 27.1481 51.3876 26.9035C51.395 26.8732 51.4085 26.8493 51.4282 26.8316C51.4478 26.8115 51.4699 26.7989 51.4945 26.7938C51.5215 26.7862 51.5485 26.7862 51.5755 26.7938C51.6025 26.7988 51.6258 26.8114 51.6455 26.8316C51.9966 27.1948 52.3465 27.5553 52.6952 27.9134C53.0439 28.2715 53.3938 28.6321 53.7449 28.9952C53.8113 28.7481 53.8714 28.4997 53.9254 28.25C53.9819 27.9979 54.0359 27.747 54.0875 27.4973C54.1415 27.2452 54.1955 26.9943 54.2496 26.7446C54.306 26.4925 54.3662 26.2416 54.43 25.9919C54.4423 25.944 54.4669 25.9125 54.5037 25.8974C54.5406 25.8797 54.5774 25.8759 54.6142 25.886C54.6511 25.8961 54.6817 25.9188 54.7063 25.9541C54.7308 25.9869 54.7369 26.0272 54.7247 26.0751C54.6535 26.345 54.5884 26.6173 54.5295 26.8922C54.473 27.1645 54.4153 27.4381 54.3564 27.7129C54.2999 27.9853 54.2398 28.2576 54.1759 28.5299C54.1146 28.8023 54.0446 29.0721 53.966 29.3394L53.966 29.3394Z" fill="black"/>
<path d="M65.2037 28.8213C65.2479 28.8439 65.2724 28.8755 65.2774 28.9158C65.2823 28.9562 65.2749 28.994 65.2553 29.0293C65.2356 29.0621 65.2074 29.0873 65.1706 29.1049C65.1338 29.1201 65.0932 29.115 65.049 29.0898C64.9189 29.0192 64.7973 28.936 64.6844 28.8402C64.5714 28.7418 64.4634 28.6359 64.3603 28.5224C64.2596 28.409 64.1638 28.2892 64.073 28.1631C63.9846 28.037 63.8999 27.9097 63.8188 27.7811C63.8114 27.7987 63.8028 27.8164 63.793 27.834C63.7857 27.8492 63.7783 27.8643 63.7709 27.8794C63.6997 28.0055 63.6125 28.1253 63.5094 28.2388C63.4087 28.3522 63.2958 28.4506 63.1705 28.5338C63.0478 28.617 62.9164 28.6826 62.7764 28.7305C62.6365 28.7784 62.4928 28.7998 62.3455 28.7948C62.2276 28.7923 62.122 28.7683 62.0287 28.7229C61.9379 28.6775 61.8667 28.617 61.8151 28.5413C61.7635 28.4657 61.7365 28.3774 61.7341 28.2766C61.7313 28.1732 61.7619 28.0648 61.8261 27.9513C61.8973 27.8202 61.9833 27.6979 62.0839 27.5844C62.1871 27.4684 62.2988 27.3675 62.4191 27.2818C62.5419 27.1935 62.6733 27.1229 62.8132 27.07C62.9532 27.0145 63.0981 26.9817 63.2479 26.9716C63.2994 26.9691 63.3534 26.9691 63.4099 26.9716C63.4664 26.9742 63.5204 26.983 63.572 26.9981C63.626 27.0132 63.6763 27.0359 63.723 27.0662C63.7697 27.0939 63.809 27.1318 63.8409 27.1797C63.8556 27.2024 63.8667 27.2251 63.874 27.2478C63.8838 27.2705 63.8912 27.2932 63.8961 27.3159C63.9796 27.4571 64.0668 27.5995 64.1576 27.7433C64.2509 27.887 64.3504 28.0257 64.456 28.1593C64.564 28.293 64.6794 28.4178 64.8022 28.5338C64.925 28.6473 65.0588 28.7431 65.2037 28.8213L65.2037 28.8213ZM62.5333 28.4619C62.742 28.4165 62.9299 28.3295 63.0969 28.2009C63.2638 28.0723 63.4001 27.9122 63.5057 27.7206C63.5131 27.7054 63.5229 27.6853 63.5352 27.66C63.5499 27.6348 63.5622 27.6083 63.572 27.5806C63.5843 27.5529 63.5941 27.5251 63.6014 27.4974C63.6088 27.4671 63.6112 27.4394 63.6088 27.4142C63.6088 27.4117 63.6074 27.4092 63.6046 27.4066C63.6046 27.4041 63.6046 27.4016 63.6046 27.3991C63.5997 27.3789 63.5911 27.3613 63.5788 27.3462C63.5689 27.331 63.5517 27.3197 63.5272 27.3121C63.4486 27.2844 63.3664 27.2743 63.2804 27.2819C63.1969 27.2869 63.1159 27.3007 63.0373 27.3235C62.9366 27.3512 62.8372 27.3915 62.739 27.4445C62.6432 27.4975 62.5524 27.5605 62.4664 27.6336C62.3829 27.7042 62.3068 27.7837 62.2381 27.8719C62.1693 27.9577 62.1128 28.0497 62.0686 28.148C62.0342 28.2313 62.0281 28.2968 62.0502 28.3447C62.0723 28.3926 62.1091 28.4279 62.1607 28.4506C62.2123 28.4708 62.2724 28.4809 62.3412 28.4809C62.4099 28.4809 62.4738 28.4746 62.5327 28.462L62.5333 28.4619Z" fill="black"/>
<path d="M72.0288 26.6539C72.0828 26.8632 72.1332 27.0737 72.1798 27.2856C72.2264 27.4974 72.2719 27.7092 72.3161 27.921C72.3628 28.1328 72.4107 28.3446 72.4597 28.5565C72.5089 28.7658 72.5641 28.9738 72.6255 29.1806C72.6402 29.2285 72.6353 29.2688 72.6107 29.3016C72.5862 29.3344 72.5555 29.3558 72.5187 29.3659C72.4818 29.376 72.445 29.3735 72.4082 29.3584C72.3714 29.3432 72.3456 29.3117 72.3308 29.2638C72.2695 29.057 72.2142 28.849 72.1651 28.6397C72.1159 28.4279 72.0681 28.2161 72.0214 28.0043C71.9773 27.7924 71.9318 27.5806 71.8851 27.3688C71.8385 27.157 71.7881 26.9464 71.7341 26.7371C71.7218 26.6892 71.7268 26.6489 71.7489 26.6161C71.7734 26.5808 71.8041 26.5581 71.841 26.548C71.8778 26.5379 71.9146 26.5417 71.9514 26.5594C71.9907 26.5745 72.0165 26.606 72.0288 26.6539V26.6539Z" fill="black"/>
<path d="M83.1191 28.7494C83.1682 28.7418 83.2038 28.7532 83.2259 28.7834C83.2504 28.8111 83.2627 28.8452 83.2627 28.8855C83.2627 28.9234 83.2504 28.9612 83.2259 28.999C83.2014 29.0343 83.1658 29.0557 83.1191 29.0633C82.6624 29.1264 82.2081 29.2007 81.7563 29.2865C81.3069 29.3722 80.8563 29.4643 80.4045 29.5626C80.3849 29.5702 80.3652 29.5739 80.3456 29.5739C80.3112 29.5765 80.2805 29.5676 80.2536 29.5475C80.229 29.5273 80.2106 29.5033 80.1983 29.4756C80.191 29.4655 80.1873 29.4504 80.1873 29.4302C80.1845 29.4277 80.1831 29.4227 80.1831 29.4151V29.4076C80.1831 29.3874 80.1845 29.3723 80.1873 29.3622C80.2732 28.8856 80.3445 28.4103 80.4009 27.9362C80.4574 27.4621 80.4881 26.9818 80.493 26.4951C80.493 26.4447 80.5089 26.4068 80.5409 26.3816C80.5728 26.3564 80.6072 26.3438 80.644 26.3438C80.6833 26.3438 80.7189 26.3564 80.7508 26.3816C80.7828 26.4068 80.7988 26.4447 80.7988 26.4951V26.5972C80.7988 26.6123 80.7974 26.6237 80.7946 26.6313C80.7848 27.07 80.7541 27.5037 80.7025 27.9324C80.6534 28.3586 80.5932 28.7872 80.522 29.2184C80.9542 29.1226 81.3852 29.0356 81.8149 28.9575C82.247 28.8768 82.6817 28.8074 83.1187 28.7494L83.1191 28.7494Z" fill="black"/>
<path d="M88.0216 25.0653C87.8497 25.2443 87.6852 25.4284 87.528 25.6175C87.3709 25.8066 87.2039 25.9882 87.0271 26.1622C86.9927 26.1975 86.9546 26.2126 86.9129 26.2076C86.8736 26.2 86.8405 26.1824 86.8134 26.1546C86.7864 26.1269 86.7705 26.0928 86.7655 26.0525C86.7606 26.0121 86.7766 25.9743 86.8134 25.939C86.9902 25.765 87.156 25.5835 87.3107 25.3943C87.4678 25.2052 87.6323 25.0211 87.8042 24.8421C87.8386 24.8068 87.8754 24.7917 87.9147 24.7967C87.954 24.8017 87.9872 24.8181 88.0142 24.8459C88.0412 24.8736 88.0572 24.9089 88.0621 24.9518C88.0695 24.9922 88.0559 25.03 88.0215 25.0653H88.0216Z" fill="black"/>
<path d="M94.8835 27.8643C95.0087 27.9425 95.0959 28.0244 95.145 28.1102C95.1966 28.1959 95.215 28.2804 95.2002 28.3636C95.1855 28.4468 95.1413 28.5275 95.0676 28.6056C94.9964 28.6838 94.9019 28.7544 94.784 28.8175C94.6956 28.8654 94.6011 28.9032 94.5004 28.9309C94.4022 28.9562 94.3015 28.9763 94.1984 28.9915C94.0953 29.0066 93.9921 29.0192 93.889 29.0293C93.7859 29.0369 93.6864 29.0469 93.5906 29.0595C93.3377 29.0923 93.086 29.1226 92.8356 29.1503C92.5876 29.1781 92.3371 29.202 92.0842 29.2222C92.0351 29.2272 91.9982 29.2146 91.9737 29.1844C91.9492 29.1516 91.9369 29.1163 91.9369 29.0785C91.9369 29.0381 91.9492 29.0015 91.9737 28.9688C91.9982 28.9335 92.0351 28.9133 92.0842 28.9082C92.369 28.883 92.6514 28.8553 92.9313 28.825C93.2137 28.7948 93.4961 28.7607 93.7785 28.7229C93.8571 28.7128 93.9381 28.704 94.0216 28.6964C94.1075 28.6863 94.1922 28.6737 94.2757 28.6586C94.3592 28.6435 94.4402 28.6233 94.5188 28.5981C94.5999 28.5703 94.6748 28.5325 94.7435 28.4846C94.8098 28.4392 94.8504 28.3976 94.8651 28.3598C94.8823 28.3194 94.8823 28.2829 94.8651 28.2501C94.8503 28.2173 94.8233 28.1883 94.784 28.1631C94.7448 28.1354 94.7018 28.1114 94.6551 28.0912C94.6109 28.0711 94.5654 28.0534 94.5188 28.0383C94.4747 28.0232 94.4391 28.0118 94.412 28.0042C94.2868 27.9664 94.1603 27.9311 94.0326 27.8983C93.9049 27.8656 93.7785 27.8315 93.6533 27.7962C93.528 27.7584 93.4028 27.7193 93.2776 27.6789C93.1523 27.6361 93.0296 27.5869 92.9092 27.5314C92.8577 27.5087 92.7987 27.4797 92.7324 27.4444C92.6661 27.4091 92.6072 27.3688 92.5556 27.3234C92.5065 27.2755 92.4746 27.2225 92.4598 27.1645C92.4475 27.104 92.4696 27.0385 92.5261 26.9679C92.558 26.9275 92.6059 26.8972 92.6697 26.8771C92.7336 26.8569 92.7999 26.843 92.8686 26.8355C92.9398 26.8254 93.0086 26.8191 93.0749 26.8166C93.1437 26.814 93.1989 26.8103 93.2406 26.8052C93.4494 26.7825 93.6556 26.7623 93.8594 26.7447C94.0632 26.7245 94.2695 26.7081 94.4782 26.6955C94.5273 26.693 94.5642 26.7069 94.5887 26.7371C94.6132 26.7674 94.6255 26.8027 94.6255 26.843C94.6255 26.8809 94.6132 26.9174 94.5887 26.9527C94.5642 26.988 94.5274 27.0069 94.4782 27.0094C94.24 27.0221 94.0043 27.0397 93.771 27.0624C93.5378 27.0851 93.3033 27.1103 93.0675 27.138C93.0331 27.1406 93 27.1443 92.968 27.1494C92.9361 27.1544 92.9029 27.1595 92.8686 27.1645C92.8784 27.1696 92.887 27.1746 92.8943 27.1797C92.9017 27.1822 92.9091 27.186 92.9165 27.191C92.9778 27.2213 93.038 27.249 93.0969 27.2742C93.1583 27.2994 93.2197 27.3234 93.2811 27.3461C93.4088 27.3915 93.5426 27.4318 93.6826 27.4671C93.8226 27.4999 93.9625 27.5339 94.1025 27.5692C94.2424 27.6045 94.3787 27.6449 94.5113 27.6903C94.6439 27.7357 94.7679 27.7937 94.8833 27.8643L94.8835 27.8643Z" fill="black"/>
<path d="M37.5978 0H45.4193V0.838522H38.5645V12.5778H44.2768V13.4164H38.5645V21.6859H37.5978V0Z" fill="black"/>
<path d="M53.9538 22.004C52.7039 22.004 51.5419 21.6955 50.4678 21.0787C49.3937 20.4619 48.5442 19.633 47.9192 18.5921C47.2943 17.5319 46.9818 16.3945 46.9818 15.1801C46.9818 13.9657 47.2943 12.838 47.9192 11.7971C48.5442 10.7369 49.3937 9.8984 50.4678 9.28156C51.5419 8.66472 52.7039 8.35629 53.9538 8.35629C55.2232 8.35629 56.4242 8.69363 57.5569 9.3683C58.6896 10.0237 59.4806 10.8815 59.9297 11.9417V8.67436H60.8671V21.6859H59.9297V18.4475C59.4024 19.527 58.5822 20.3944 57.469 21.0498C56.3754 21.6859 55.2036 22.004 53.9538 22.004ZM54.0124 21.1944C55.0865 21.1944 56.0825 20.9245 57.0003 20.3848C57.9182 19.8257 58.6408 19.0932 59.1681 18.1872C59.7149 17.262 59.9883 16.2596 59.9883 15.1801C59.9883 14.1199 59.7149 13.1272 59.1681 12.2019C58.6213 11.2767 57.8889 10.5442 56.971 10.0044C56.0532 9.44541 55.0572 9.1659 53.9831 9.1659C52.909 9.1659 51.9032 9.44541 50.9658 10.0044C50.0479 10.5634 49.3058 11.3056 48.7394 12.2308C48.1926 13.1561 47.9192 14.1488 47.9192 15.2091C47.9192 16.2693 48.1926 17.262 48.7394 18.1872C49.3058 19.0932 50.0577 19.8257 50.9951 20.3848C51.9325 20.9245 52.9382 21.1944 54.0124 21.1944Z" fill="black"/>
<path d="M64.2753 8.67436H65.2127V10.6405C66.111 9.11771 67.5562 8.35629 69.5482 8.35629C70.5051 8.35629 71.3351 8.62616 72.0382 9.1659C72.7412 9.68636 73.2295 10.4767 73.5029 11.5369C73.7567 10.5924 74.3133 9.83094 75.1726 9.25264C76.0514 8.65508 77.0377 8.35629 78.1313 8.35629C79.5569 8.35629 80.6603 8.77074 81.4415 9.59962C82.2227 10.4092 82.6133 11.5658 82.6133 13.0694V21.6859H81.6759V13.0694C81.6759 11.855 81.3536 10.9008 80.7092 10.2068C80.0842 9.51288 79.2542 9.1659 78.2192 9.1659C77.438 9.1659 76.7154 9.35867 76.0514 9.7442C75.3874 10.1104 74.8601 10.6116 74.4696 11.2478C74.079 11.8839 73.8837 12.5875 73.8837 13.3585V21.6859H72.9463V13.5898C72.9463 12.2019 72.6143 11.1225 71.9503 10.3514C71.2863 9.56107 70.427 9.1659 69.3724 9.1659C68.6694 9.1659 67.9956 9.33939 67.3511 9.68637C66.7262 10.0333 66.2087 10.5056 65.7986 11.1032C65.408 11.6815 65.2127 12.3176 65.2127 13.0115V21.6859H64.2753V8.67436Z" fill="black"/>
<path d="M87.164 5.69618C86.8905 5.69618 86.6464 5.5998 86.4316 5.40704C86.2363 5.21428 86.1387 4.97332 86.1387 4.68417C86.1387 4.4143 86.2363 4.18299 86.4316 3.99022C86.6464 3.79746 86.8905 3.70108 87.164 3.70108C87.4374 3.70108 87.6717 3.79746 87.867 3.99022C88.0818 4.18299 88.1892 4.4143 88.1892 4.68417C88.1892 4.97332 88.0818 5.21428 87.867 5.40704C87.6717 5.5998 87.4374 5.69618 87.164 5.69618ZM86.6953 8.67438H87.6327V21.6859H86.6953V8.67438Z" fill="black"/>
<path d="M96.7239 21.9462C95.806 21.9462 94.9662 21.7437 94.2046 21.3389C93.4429 20.9149 92.8375 20.3269 92.3884 19.5752C91.9392 18.8234 91.7146 17.9849 91.7146 17.0596V0H92.652V17.0596C92.652 17.8306 92.8278 18.5246 93.1793 19.1414C93.5503 19.7583 94.0483 20.2498 94.6733 20.6161C95.2982 20.9631 95.9817 21.1365 96.7239 21.1365V21.9462Z" fill="black"/>
<path d="M104.907 27.4399C102.72 27.4399 100.991 26.6689 99.7219 25.1268V23.6521C100.366 24.6545 101.099 25.3966 101.919 25.8785C102.739 26.3797 103.696 26.6303 104.79 26.6303C105.903 26.6303 106.85 26.399 107.631 25.9364C108.432 25.4737 109.037 24.8376 109.447 24.028C109.858 23.2377 110.063 22.351 110.063 21.3679V19.1704C109.594 20.0764 108.881 20.7799 107.924 21.2811C106.987 21.763 105.961 22.004 104.848 22.004C103.735 22.004 102.749 21.763 101.89 21.2811C101.03 20.7992 100.357 20.1245 99.8683 19.2571C99.3996 18.3897 99.1653 17.3873 99.1653 16.25V8.67438H100.103V16.25C100.103 17.2909 100.318 18.1873 100.747 18.939C101.196 19.6715 101.782 20.2306 102.505 20.6161C103.227 21.0016 104.018 21.1944 104.878 21.1944C105.815 21.1944 106.684 20.9727 107.485 20.5293C108.285 20.0667 108.91 19.4595 109.36 18.7077C109.828 17.9367 110.063 17.1174 110.063 16.25V8.67438H111V21.2811C111 22.4377 110.756 23.4786 110.268 24.4039C109.799 25.3484 109.106 26.0906 108.188 26.6303C107.27 27.1701 106.176 27.4399 104.907 27.4399Z" fill="black"/>
<defs>
<radialGradient id="paint0_radial_60_38" cx="0" cy="0" r="1" gradientUnits="userSpaceOnUse" gradientTransform="translate(29.5944 31.9025) rotate(-116.456) scale(21.4242 35.9531)">
<stop offset="0.0993031" stop-color="#E1C06F"/>
<stop offset="1" stop-color="#AC8E5A" stop-opacity="0.744076"/>
</radialGradient>
</defs>
</svg>
