<?xml version="1.0" standalone="no"?>
<!DOCTYPE svg PUBLIC "-//W3C//DTD SVG 20010904//EN"
        "http://www.w3.org/TR/2001/REC-SVG-20010904/DTD/svg10.dtd">
<svg version="1.0" xmlns="http://www.w3.org/2000/svg"
     width="944.000000pt" height="944.000000pt" viewBox="0 0 944.000000 944.000000"
     preserveAspectRatio="xMidYMid meet">
    <metadata>
        Created by potrace 1.14, written by Peter Selinger 2001-2017
    </metadata>
    <g transform="translate(0.000000,944.000000) scale(0.100000,-0.100000)"
       fill="#000000" stroke="none">
        <path d="M4782 9412 c-11 -15 -19 -29 -19 -32 0 -3 -5 -21 -13 -40 -7 -19 -14
-40 -14 -45 -1 -6 -11 -22 -24 -35 -12 -13 -22 -27 -22 -31 0 -10 -139 -147
-143 -142 -2 2 -16 -8 -30 -21 -15 -14 -27 -23 -27 -20 0 11 -102 -92 -121
-122 -27 -45 -58 -143 -47 -150 5 -3 4 -11 -2 -19 -8 -10 -7 -14 2 -18 10 -4
10 -6 1 -6 -9 -1 -13 -22 -13 -69 0 -41 5 -73 13 -81 10 -11 9 -12 -2 -6 -9 5
-12 4 -8 -2 18 -29 42 -361 28 -388 -7 -12 -11 -31 -15 -70 -2 -16 -6 -37 -9
-45 -4 -8 -9 -28 -11 -44 -3 -16 -7 -31 -10 -34 -3 -2 -1 -13 4 -23 6 -11 6
-20 1 -23 -5 -4 -9 -23 -9 -44 0 -89 -2 -98 -34 -133 -27 -27 -40 -34 -68 -32
-19 1 -37 2 -40 3 -3 1 -32 4 -65 6 -68 6 -110 11 -110 14 0 2 -34 8 -80 14
-22 2 -40 5 -40 6 0 1 -11 3 -25 6 -14 2 -36 9 -50 14 -14 5 -34 11 -45 13
-38 7 -106 37 -116 50 -4 5 -18 10 -32 10 -14 1 -23 5 -21 8 2 3 -18 21 -44
40 -55 39 -88 73 -105 112 -6 15 -15 27 -19 27 -5 0 -7 3 -6 8 5 15 -25 71
-35 65 -5 -3 -7 -1 -4 4 9 15 -21 85 -33 78 -6 -3 -7 1 -4 10 4 9 -2 25 -11
35 -10 11 -15 20 -11 20 16 0 -87 89 -122 105 -20 9 -50 23 -66 31 -36 17 -49
18 -40 2 4 -7 -1 -6 -12 3 -10 8 -29 14 -42 13 -12 -1 -24 1 -26 5 -2 3 -32 4
-65 3 -43 -3 -59 -7 -54 -15 5 -8 2 -8 -9 0 -8 7 -17 11 -19 8 -3 -2 -21 -5
-42 -7 -20 -1 -37 -5 -37 -8 0 -4 -10 -6 -21 -5 -21 1 -136 -27 -169 -42 -8
-3 -18 -7 -21 -7 -18 -3 -159 -80 -159 -87 0 -5 -6 -9 -14 -9 -8 0 -21 -8 -28
-19 -12 -17 -18 -21 -34 -21 -4 0 0 -8 7 -17 13 -17 12 -17 -4 -3 -17 12 -20
12 -29 -3 -5 -10 -13 -15 -18 -12 -5 3 -11 -4 -15 -15 -4 -11 -11 -18 -16 -15
-5 4 -9 2 -9 -2 0 -5 -14 -17 -30 -27 -17 -9 -28 -21 -25 -26 3 -4 -3 -7 -13
-6 -9 0 -16 -5 -14 -12 1 -8 -2 -11 -8 -7 -5 3 -10 1 -10 -6 0 -7 -3 -9 -7 -6
-9 10 -34 -14 -26 -26 3 -5 1 -7 -5 -3 -6 3 -17 1 -24 -6 -8 -7 -24 -19 -37
-26 -75 -43 -90 -50 -95 -45 -3 4 -6 2 -6 -3 0 -9 -20 -14 -67 -18 -13 0 -23
-3 -23 -6 0 -3 -23 -6 -52 -7 -29 -2 -55 -8 -60 -15 -6 -10 -8 -10 -8 0 0 7
-13 12 -30 12 -17 0 -30 -5 -30 -12 0 -10 -2 -10 -8 -1 -5 8 -36 11 -94 9 -82
-2 -89 -4 -142 -41 -31 -21 -56 -42 -56 -47 0 -5 -4 -6 -10 -3 -5 3 -10 1 -10
-4 0 -6 -5 -11 -10 -11 -6 0 -18 -8 -28 -17 -10 -10 -31 -29 -47 -42 -22 -19
-25 -25 -14 -33 11 -8 10 -8 -4 -4 -13 4 -27 -4 -45 -25 -15 -18 -35 -39 -44
-48 -10 -8 -18 -18 -18 -22 0 -4 -13 -21 -30 -39 -16 -18 -30 -38 -30 -46 0
-8 -4 -14 -8 -14 -10 0 -58 -90 -55 -102 2 -4 -2 -8 -8 -8 -8 0 -7 -6 2 -17 8
-9 9 -14 3 -10 -17 10 -21 -23 -20 -172 1 -72 -1 -131 -4 -131 -3 0 -5 -26 -6
-58 -1 -68 -10 -144 -23 -190 -7 -24 -7 -31 2 -25 8 4 8 1 -1 -9 -7 -9 -14
-29 -16 -44 -2 -16 -6 -36 -8 -44 -4 -17 -52 -50 -73 -50 -8 0 -15 -4 -15 -10
0 -5 -3 -9 -7 -8 -5 0 -15 -1 -23 -5 -75 -28 -140 -47 -177 -49 -7 -1 -13 -5
-13 -10 0 -5 -4 -7 -8 -4 -12 7 -83 -19 -75 -28 4 -4 0 -4 -10 0 -10 3 -17 1
-17 -5 0 -6 -7 -11 -15 -11 -7 0 -19 -8 -24 -17 -6 -10 -11 -15 -11 -10 0 4
-8 -1 -18 -10 -11 -10 -17 -21 -15 -25 2 -5 -2 -8 -10 -8 -8 0 -22 -18 -32
-40 -14 -32 -16 -51 -10 -97 14 -105 9 -207 -12 -225 -7 -6 -13 -15 -13 -20 0
-5 -6 -15 -12 -22 -7 -8 -20 -24 -28 -36 -8 -12 -20 -28 -26 -34 -25 -27 -63
-90 -58 -98 3 -4 0 -8 -6 -8 -7 0 -9 -7 -6 -16 3 -8 2 -13 -2 -10 -9 5 -69
-123 -65 -136 2 -5 -2 -8 -8 -8 -6 0 -9 -7 -5 -15 3 -8 2 -15 -3 -15 -12 0
-43 -99 -37 -117 3 -8 1 -11 -4 -8 -6 3 -9 -2 -7 -12 5 -29 50 -123 59 -123 5
0 7 -4 3 -9 -3 -5 -1 -12 4 -16 12 -7 103 -199 107 -225 6 -40 61 -200 74
-216 6 -6 8 -13 5 -16 -12 -12 69 -159 102 -185 19 -16 40 -33 47 -39 18 -17
401 -210 426 -216 8 -2 17 -6 20 -9 3 -3 31 -13 63 -21 64 -18 170 -18 205 1
12 6 22 8 23 4 1 -4 2 -19 3 -33 0 -14 5 -31 10 -39 6 -9 5 -12 0 -8 -6 3 -10
-15 -10 -45 0 -43 -4 -54 -23 -67 -13 -8 -30 -17 -37 -18 -58 -12 -124 -36
-124 -45 0 -4 -3 -7 -7 -6 -13 4 -73 -24 -73 -33 0 -5 -7 -9 -15 -9 -8 0 -24
-9 -35 -20 -11 -11 -22 -20 -25 -19 -15 2 -124 -59 -117 -66 4 -5 0 -6 -8 -3
-18 7 -113 -35 -103 -46 4 -4 0 -4 -9 -1 -9 4 -29 -2 -44 -12 -16 -10 -31 -17
-34 -17 -3 1 -23 -7 -45 -18 -51 -25 -92 -72 -99 -112 -7 -39 0 -117 11 -125
4 -3 9 -15 11 -25 5 -30 110 -252 161 -341 34 -59 102 -159 115 -167 6 -4 7
-8 2 -8 -6 0 -1 -6 9 -14 11 -8 23 -12 28 -9 4 2 7 1 6 -4 -3 -14 13 -43 23
-43 6 0 18 -8 27 -18 15 -18 56 -44 74 -48 4 -1 10 -3 15 -4 4 -1 10 -2 15 -1
4 0 7 -3 7 -9 0 -6 3 -9 8 -8 13 4 52 -13 52 -23 0 -5 -4 -9 -9 -9 -4 0 -21
-19 -37 -43 -16 -23 -32 -44 -36 -47 -3 -3 -8 -12 -10 -19 -2 -8 -9 -22 -16
-30 -7 -9 -12 -20 -11 -25 0 -5 -5 -12 -12 -16 -17 -11 -19 -96 -4 -147 7 -23
29 -67 48 -98 30 -48 34 -61 26 -88 -5 -17 -12 -33 -17 -36 -34 -23 -35 -149
-2 -231 42 -104 61 -155 66 -180 3 -14 10 -43 16 -65 14 -50 12 -41 23 -100 5
-27 9 -52 10 -55 1 -5 15 -71 20 -95 3 -15 68 -109 77 -113 4 -2 8 -8 8 -12 0
-8 50 -88 72 -115 5 -5 23 -32 40 -60 18 -27 35 -52 38 -55 16 -12 22 -54 25
-168 3 -67 9 -131 15 -142 6 -11 8 -20 4 -20 -5 0 50 -106 63 -120 3 -3 59 -6
126 -7 106 -2 135 -4 192 -17 6 -1 27 -10 49 -19 21 -9 40 -17 41 -17 2 0 47
-21 102 -46 54 -26 123 -54 153 -64 73 -22 185 -19 270 8 35 12 65 20 67 19 1
-2 3 -55 4 -120 2 -118 23 -211 55 -248 8 -8 14 -20 14 -25 0 -14 64 -54 86
-54 12 0 24 -3 28 -7 13 -13 52 -14 396 -10 85 1 173 -1 194 -6 73 -14 160
-61 296 -161 182 -133 231 -155 335 -152 92 3 129 17 248 95 177 116 319 236
556 470 136 134 218 205 256 222 11 5 43 23 70 39 28 16 62 29 76 30 36 0 89
-19 90 -33 1 -7 3 -46 4 -88 5 -148 70 -232 206 -267 44 -12 86 -8 134 12 37
16 71 63 141 196 36 68 99 143 164 195 60 48 349 225 367 225 6 0 13 3 15 8 3
8 150 77 188 87 49 14 135 64 168 96 49 48 90 151 116 294 7 37 37 139 96 320
32 99 64 216 72 261 14 78 16 231 3 284 -60 250 -54 300 58 472 71 109 88 142
106 209 l16 56 58 -28 c32 -15 60 -28 62 -28 3 -1 22 -8 43 -17 61 -26 209
-64 352 -89 117 -20 112 -18 141 -67 88 -150 84 -224 -29 -549 -22 -64 -44
-136 -47 -160 -29 -182 9 -322 128 -478 l41 -54 12 29 c7 16 12 50 12 76 1 78
9 100 124 348 52 112 63 156 62 255 0 113 -17 170 -136 460 -113 276 -109 266
-159 410 -22 66 -66 171 -96 233 -45 91 -69 126 -126 184 -38 40 -65 74 -59
76 16 5 124 -25 210 -59 42 -17 82 -31 87 -32 20 -4 130 -70 210 -125 256
-176 385 -297 888 -836 155 -165 169 -177 201 -171 73 15 159 66 223 130 35
36 61 70 58 75 -3 4 1 10 7 12 14 5 -31 72 -64 96 -10 7 -18 17 -18 23 0 5 -8
17 -17 27 -10 10 -36 40 -58 67 -22 27 -47 56 -55 65 -8 9 -44 52 -80 95 -35
44 -69 85 -75 91 -6 6 -27 31 -46 54 -18 23 -38 47 -44 54 -5 6 -57 67 -115
136 -57 69 -109 130 -115 136 -5 6 -23 28 -40 49 -16 21 -37 46 -45 55 -8 9
-30 34 -49 55 -164 192 -340 370 -446 455 -39 31 -115 92 -170 135 -125 101
-175 135 -197 135 -26 0 -22 19 5 25 12 3 76 4 142 2 121 -4 182 5 240 35 29
15 178 125 227 167 126 108 251 207 293 230 27 16 81 36 119 46 230 56 438
-23 635 -243 36 -40 69 -72 75 -72 18 0 46 59 46 95 0 18 -11 68 -23 111 -13
44 -26 85 -28 93 -13 46 -81 171 -108 199 -60 61 -178 126 -300 164 -117 36
-161 45 -199 41 -91 -9 -164 -3 -201 16 -10 6 -29 12 -42 15 -13 2 -55 12 -94
21 -240 57 -316 55 -423 -14 -26 -16 -56 -38 -67 -48 -11 -10 -38 -32 -60 -48
-21 -17 -47 -37 -56 -45 -9 -8 -54 -49 -101 -90 -46 -41 -97 -92 -113 -112
-16 -21 -30 -36 -33 -34 -2 3 2 31 9 63 15 68 12 56 39 163 23 90 33 232 20
284 -5 17 -11 49 -14 71 -3 22 -17 89 -30 148 -29 130 -30 205 -5 300 27 103
24 108 -26 54 -25 -26 -45 -49 -45 -52 0 -2 -13 -24 -30 -48 -16 -25 -30 -47
-30 -50 0 -2 -7 -21 -15 -41 -8 -20 -16 -39 -16 -43 -1 -5 -7 -24 -15 -43 -15
-40 -66 -218 -68 -240 -1 -9 -5 -20 -8 -25 -3 -6 -11 -28 -18 -50 -7 -22 -25
-66 -41 -98 -36 -72 -51 -87 -243 -229 -65 -48 -122 -88 -127 -88 -4 0 -2 19
5 43 37 115 40 139 42 277 0 80 4 167 8 195 8 56 45 154 89 235 94 174 177
341 192 385 22 66 25 130 9 207 -22 108 -24 122 -30 177 -6 50 9 132 27 156 4
6 11 26 14 45 3 18 8 36 10 40 5 9 37 189 39 225 1 17 5 36 10 43 4 7 2 12 -4
12 -6 0 -8 5 -4 11 12 20 12 114 1 128 -7 8 -10 16 -8 18 4 4 -20 65 -28 73
-13 11 -51 70 -51 77 0 5 -8 16 -17 25 -10 8 -29 31 -43 49 -14 19 -39 49 -56
67 -18 17 -30 32 -27 32 3 0 -9 13 -26 29 -17 16 -31 31 -31 34 0 11 -88 95
-94 90 -3 -4 -6 -1 -6 5 0 6 -65 76 -145 156 -80 80 -142 146 -139 146 4 0 -2
8 -12 18 -11 9 -44 49 -74 89 -29 39 -58 69 -63 66 -6 -3 -7 -2 -4 4 8 12 -39
83 -55 83 -6 0 -9 3 -5 6 6 6 -41 76 -55 82 -5 2 -8 8 -8 14 0 17 -47 68 -55
60 -5 -4 -5 -2 -2 4 8 13 -41 87 -52 79 -5 -2 -8 3 -7 13 0 9 -4 16 -10 15 -6
-1 -11 4 -11 12 0 14 -52 90 -90 131 -12 13 -20 24 -17 24 3 0 -1 6 -8 14 -7
8 -24 29 -38 47 -40 54 -101 109 -163 149 -50 33 -82 48 -182 86 -11 4 -33 9
-50 11 -16 2 -37 7 -45 10 -8 3 -24 8 -35 10 -31 7 -38 9 -68 21 -16 7 -32 12
-37 12 -4 0 -37 13 -73 29 -36 16 -68 27 -71 24 -3 -4 -6 -1 -6 5 0 7 -9 12
-20 12 -11 0 -20 5 -20 10 0 6 -6 10 -14 10 -8 0 -31 9 -53 19 -127 64 -207
101 -219 101 -8 0 -14 5 -14 11 0 5 -4 7 -10 4 -5 -3 -10 -1 -10 6 0 7 -3 10
-6 6 -3 -3 -18 -1 -33 4 -59 23 -89 20 -109 -9z m169 -144 c15 -15 25 -29 23
-31 -2 -2 7 -16 21 -31 14 -15 25 -29 25 -32 0 -3 10 -20 23 -37 12 -18 27
-39 32 -48 44 -69 90 -135 97 -137 4 -2 8 -10 8 -18 0 -8 7 -17 15 -20 8 -4
13 -10 10 -14 -3 -4 11 -23 30 -42 19 -18 41 -39 48 -46 6 -7 18 -18 25 -25 7
-6 34 -33 59 -59 26 -26 50 -45 55 -42 5 3 7 2 6 -3 -5 -14 102 -114 114 -107
7 4 8 3 4 -5 -4 -6 4 -21 18 -34 14 -12 71 -66 127 -120 55 -54 105 -94 111
-91 7 4 8 2 4 -4 -8 -14 42 -64 56 -56 4 3 7 2 6 -3 -2 -5 15 -31 37 -58 22
-27 43 -54 47 -60 4 -5 38 -51 75 -102 38 -50 75 -102 83 -114 8 -12 21 -27
28 -35 6 -7 12 -17 12 -23 0 -6 4 -11 8 -11 4 0 15 -12 24 -27 9 -16 25 -37
35 -48 10 -11 27 -33 37 -50 21 -33 32 -47 59 -76 9 -10 17 -23 17 -29 0 -5 6
-13 13 -17 7 -4 21 -21 31 -38 11 -16 23 -34 28 -40 5 -5 33 -43 63 -83 30
-41 55 -70 55 -66 0 4 14 -14 32 -40 17 -26 37 -50 45 -53 7 -3 13 -9 13 -15
0 -8 34 -49 108 -126 17 -18 32 -37 32 -41 0 -4 9 -16 20 -26 10 -9 52 -61 92
-114 40 -52 81 -105 91 -115 9 -11 17 -26 17 -33 0 -7 4 -13 8 -13 4 0 24 -25
43 -55 18 -30 37 -55 42 -55 4 0 7 -5 7 -11 0 -6 9 -23 19 -37 10 -15 19 -29
18 -32 0 -3 8 -30 18 -60 30 -90 25 -162 -17 -246 -20 -40 -52 -94 -70 -120
-19 -27 -58 -84 -87 -126 -29 -43 -57 -78 -62 -78 -9 0 -59 69 -59 82 0 4 -13
30 -30 58 -16 27 -28 50 -26 50 9 0 -155 312 -210 402 -55 87 -150 227 -163
238 -3 3 -19 24 -35 48 -16 23 -33 42 -38 42 -5 0 -7 4 -4 9 4 5 3 11 -1 13
-5 1 -28 28 -53 58 -25 30 -54 65 -65 77 -11 12 -33 39 -50 59 -16 20 -47 54
-67 76 -21 22 -38 42 -38 44 0 5 -99 104 -104 104 -2 0 -20 16 -41 35 -21 19
-43 31 -48 28 -6 -3 -7 -1 -3 5 4 7 4 12 -1 12 -4 0 -24 14 -43 30 -19 16 -40
30 -45 30 -6 0 -19 11 -29 25 -10 14 -23 25 -28 25 -5 0 -19 9 -31 21 -12 12
-38 33 -56 48 -58 44 -125 113 -161 166 -18 28 -38 53 -43 56 -5 3 -7 8 -6 10
2 2 -6 18 -16 34 -43 70 -49 80 -46 84 1 2 -1 7 -6 10 -4 3 -13 15 -20 26 -55
92 -103 169 -134 215 -20 30 -37 58 -37 63 -1 4 -11 17 -22 29 -11 12 -20 25
-20 30 0 8 -29 44 -62 80 -10 10 -15 18 -10 18 4 0 -5 10 -19 23 -15 12 -27
27 -28 32 0 6 -6 10 -13 10 -21 0 -18 -20 7 -47 14 -15 25 -31 25 -36 0 -5 11
-19 25 -32 14 -13 25 -27 25 -32 0 -8 9 -20 38 -53 6 -7 12 -18 12 -22 0 -5 8
-18 18 -29 9 -10 24 -32 32 -47 8 -16 23 -39 35 -52 11 -12 21 -29 23 -36 2
-8 10 -21 18 -30 8 -8 14 -20 14 -25 0 -6 9 -20 20 -31 11 -12 21 -27 22 -34
3 -14 14 -29 38 -56 8 -9 15 -19 14 -22 -2 -12 105 -174 118 -179 4 -2 8 -10
8 -18 0 -8 4 -14 8 -14 5 0 9 -6 9 -14 0 -12 -7 -11 -36 4 -20 10 -39 18 -44
19 -4 0 -17 10 -29 21 -12 11 -25 20 -30 20 -4 0 -10 0 -13 0 -3 0 -14 9 -25
20 -12 12 -25 18 -29 15 -5 -2 -11 2 -14 9 -3 8 -25 21 -49 27 -24 7 -45 16
-48 20 -11 14 -68 38 -75 31 -3 -4 -5 -1 -3 6 2 7 -10 20 -27 30 -27 16 -76
55 -117 95 -10 9 -22 17 -28 17 -5 0 -10 4 -10 9 0 5 -27 37 -60 72 -33 34
-60 64 -60 66 0 2 -9 13 -20 25 -11 12 -20 28 -20 35 0 8 -4 11 -10 8 -5 -3
-10 -2 -10 4 0 9 -57 99 -71 111 -3 3 -11 20 -18 37 -7 18 -16 31 -20 29 -4
-3 -7 3 -8 12 -1 16 -16 63 -34 107 -5 11 -10 35 -11 53 -1 17 -5 32 -8 32 -3
0 -5 35 -5 78 0 42 -3 92 -6 110 -4 17 -4 32 0 32 3 0 5 25 4 55 -1 30 1 55 4
55 6 0 43 -40 98 -107 22 -26 68 -77 101 -113 110 -116 154 -167 154 -178 1
-4 11 -20 24 -36 18 -21 26 -25 32 -15 4 7 3 14 -4 17 -7 2 -12 8 -12 14 0 5
-6 15 -12 23 -7 7 -24 28 -37 45 -26 34 -62 74 -111 126 -16 17 -27 34 -25 36
3 3 -6 11 -20 18 -14 7 -25 18 -25 24 0 7 -8 18 -17 27 -19 16 -105 115 -128
146 -11 15 -7 19 39 35 28 10 58 19 66 21 59 9 148 91 135 124 -2 8 -1 11 4 8
9 -5 27 32 23 48 -1 4 3 7 9 7 5 0 7 5 4 10 -3 6 1 17 9 26 9 9 14 20 10 25
-3 5 2 12 10 15 9 3 13 11 9 18 -9 15 26 -13 58 -46z m234 -29 c28 -13 53 -22
58 -21 4 1 7 -3 7 -9 0 -5 5 -7 10 -4 6 3 10 1 10 -4 0 -6 6 -11 14 -11 8 0
16 -3 18 -7 6 -14 99 -53 110 -47 6 4 8 2 4 -4 -8 -13 89 -47 105 -36 7 4 9 3
6 -3 -8 -13 79 -37 95 -27 7 4 8 3 4 -4 -6 -11 6 -16 27 -13 4 0 7 -4 7 -11 0
-6 3 -8 7 -5 3 4 12 2 19 -4 8 -6 22 -8 31 -5 10 4 14 4 10 0 -3 -4 24 -27 61
-52 37 -24 69 -49 70 -53 2 -5 10 -9 18 -9 8 0 14 -3 14 -8 0 -12 162 -177
171 -175 5 2 6 -3 3 -11 -3 -7 7 -23 22 -35 15 -11 23 -21 18 -21 -5 0 -4 -4
1 -8 6 -4 33 -35 59 -69 27 -35 52 -60 57 -57 5 3 6 -1 4 -8 -3 -8 10 -31 30
-52 19 -21 35 -42 35 -47 0 -5 4 -9 8 -9 5 0 15 -11 22 -25 7 -13 17 -22 22
-19 5 3 7 2 6 -3 -3 -7 38 -68 67 -99 6 -6 28 -33 50 -60 36 -44 86 -100 140
-158 20 -21 131 -150 180 -209 13 -15 23 -30 22 -32 -1 -2 7 -14 18 -27 21
-25 24 -30 77 -110 17 -27 35 -48 39 -48 5 0 8 -3 7 -7 -3 -9 22 -56 32 -63
13 -9 101 -190 103 -210 1 -11 4 -20 7 -20 3 0 5 -10 6 -22 0 -13 4 -43 8 -68
15 -81 17 -104 21 -208 4 -98 -7 -162 -26 -162 -10 0 -59 93 -88 168 -10 26
-32 76 -48 112 -16 36 -40 92 -53 125 -13 33 -26 62 -29 65 -3 3 -7 12 -9 20
-2 8 -7 16 -12 18 -5 2 -6 10 -3 19 5 12 3 14 -7 8 -9 -5 -11 -4 -6 4 4 6 3
17 -2 24 -5 7 -12 23 -15 37 -3 14 -22 43 -42 64 -19 21 -35 41 -35 45 0 4
-13 21 -30 39 -16 18 -30 36 -30 40 0 6 -33 47 -84 105 -9 9 -16 20 -16 23 0
4 -47 67 -75 100 -5 7 -21 27 -35 45 -14 17 -44 52 -67 76 -23 23 -41 43 -38
43 2 0 -25 29 -61 65 -36 36 -67 65 -69 65 -4 0 -55 44 -97 83 -10 10 -24 15
-30 11 -7 -4 -8 -3 -4 5 4 6 0 14 -11 18 -10 4 -20 9 -23 13 -10 12 -67 49
-81 52 -8 2 -19 10 -26 18 -7 8 -13 11 -13 5 0 -5 -4 -5 -8 2 -4 6 -14 13 -22
15 -16 3 -32 14 -63 43 -12 11 -26 19 -30 17 -5 -1 -6 1 -4 6 3 4 -23 38 -59
76 -35 38 -64 70 -64 73 0 2 -12 17 -27 33 -51 53 -82 89 -100 117 -10 16 -20
30 -23 33 -3 3 -23 31 -44 63 -22 32 -53 72 -68 90 -72 80 -98 107 -106 107
-5 0 -17 9 -27 20 -10 11 -24 20 -30 20 -7 0 -16 7 -19 16 -4 9 -9 14 -12 11
-3 -3 -14 2 -23 11 -29 27 -71 62 -76 62 -5 0 -43 38 -65 65 -14 17 -13 18 15
12 17 -3 53 -16 80 -28z m86 -181 c25 -21 49 -35 53 -33 3 3 4 2 1 -2 -7 -10
46 -63 57 -57 5 3 7 2 6 -3 -3 -9 10 -27 53 -74 15 -15 24 -31 21 -34 -3 -3 2
-5 11 -5 10 0 17 -6 17 -13 0 -7 8 -20 18 -29 9 -9 22 -23 27 -30 23 -31 121
-144 139 -160 10 -10 15 -18 11 -18 -4 0 1 -8 11 -17 11 -10 34 -37 53 -61 19
-24 38 -39 44 -35 7 3 9 3 5 -2 -4 -4 -3 -14 4 -22 6 -7 8 -16 5 -19 -8 -8
-139 58 -144 74 -3 6 -11 12 -19 12 -8 0 -14 5 -14 10 0 6 -11 15 -25 22 -13
6 -23 14 -20 18 2 3 -5 13 -17 21 -11 8 -26 19 -33 26 -7 7 -16 9 -20 5 -5 -4
-5 -1 -1 6 5 8 -3 24 -21 42 -36 36 -66 72 -116 138 -22 28 -44 52 -50 52 -6
0 -8 3 -4 6 3 4 1 12 -6 19 -24 26 -47 55 -47 61 0 4 -10 15 -22 25 -11 11
-18 19 -14 19 6 0 -2 11 -31 45 -7 7 -13 18 -13 23 0 5 -7 15 -15 22 -8 7 -15
21 -15 32 0 18 2 17 33 -4 17 -13 53 -40 78 -60z m544 -58 c-3 -5 -12 -10 -18
-10 -7 0 -6 4 3 10 19 12 23 12 15 0z m-1320 -137 c4 -82 11 -142 20 -183 3
-14 8 -43 11 -65 3 -22 8 -42 12 -45 4 -3 8 -18 10 -35 2 -16 7 -32 10 -35 8
-5 13 -24 15 -52 1 -10 5 -18 9 -18 4 0 8 -9 8 -20 0 -11 5 -20 11 -20 5 0 8
-4 4 -9 -3 -5 0 -15 7 -23 7 -7 14 -20 16 -28 2 -8 18 -39 35 -68 18 -30 36
-62 42 -73 5 -11 15 -17 22 -15 7 3 10 -1 7 -8 -3 -8 5 -21 18 -30 12 -9 18
-16 14 -16 -5 0 24 -34 65 -75 41 -41 79 -75 85 -75 7 0 15 -7 18 -16 4 -9 13
-14 22 -10 8 3 13 2 10 -3 -8 -12 42 -44 55 -36 5 4 8 1 7 -5 -4 -18 163 -115
176 -103 3 4 6 1 6 -5 0 -6 17 -19 38 -29 20 -9 40 -22 44 -27 4 -6 8 -7 8 -2
0 5 7 3 15 -4 8 -6 20 -8 26 -4 8 4 9 3 5 -4 -7 -11 38 -38 57 -34 4 1 7 -2 7
-7 0 -5 14 -12 30 -16 17 -4 30 -10 30 -13 0 -4 26 -20 58 -37 31 -16 66 -38
76 -47 11 -10 24 -18 30 -18 6 0 6 -3 1 -9 -6 -6 -36 -5 -77 3 -38 7 -68 11
-68 8 0 -2 -6 0 -13 6 -8 7 -18 7 -27 2 -8 -5 -19 -6 -24 -2 -18 10 -46 9 -46
-2 0 -8 -2 -8 -8 0 -7 11 -202 15 -202 4 0 -3 -19 -6 -43 -6 -39 -1 -85 -7
-132 -18 -49 -11 -81 -19 -89 -24 -6 -3 -28 -5 -50 -4 -60 3 -66 5 -66 13 0 7
-59 24 -72 21 -5 -1 -8 2 -8 6 0 13 -50 33 -62 26 -7 -4 -8 -2 -4 4 4 7 2 12
-3 12 -12 0 -114 71 -119 82 -2 5 -9 5 -14 2 -6 -4 -8 -2 -5 3 8 13 -17 36
-27 25 -4 -4 -7 -2 -6 3 5 22 -1 36 -12 29 -7 -4 -8 -3 -4 5 4 6 1 22 -7 34
-32 50 -47 129 -51 272 -1 50 -4 95 -7 100 -2 6 -4 40 -4 77 0 38 -3 68 -6 68
-4 0 -5 14 -3 30 2 17 0 30 -4 30 -4 0 -7 18 -6 40 0 22 -2 40 -6 40 -3 0 -7
24 -8 53 -5 140 -8 167 -17 167 -5 0 -4 4 4 9 8 5 11 16 8 25 -4 9 -1 16 5 16
6 0 9 3 5 6 -3 3 1 23 8 44 7 21 11 41 7 45 -4 3 -2 9 4 13 5 4 18 24 27 44
17 35 77 102 85 93 2 -2 5 -39 7 -82z m1291 -447 c82 -41 126 -60 137 -58 4 1
7 -3 7 -10 0 -6 3 -9 6 -5 4 3 13 -1 21 -9 8 -8 19 -12 24 -9 5 4 9 2 9 -3 0
-9 36 -29 54 -30 5 0 12 -4 15 -9 3 -5 22 -20 41 -33 19 -14 44 -32 54 -42 11
-10 26 -18 35 -18 8 0 11 -3 8 -7 -9 -8 34 -39 48 -35 5 2 7 1 4 -2 -3 -4 22
-36 57 -73 35 -36 64 -70 64 -75 0 -5 5 -6 10 -3 6 3 10 0 10 -7 0 -8 9 -20
19 -28 11 -7 18 -17 15 -22 -3 -4 2 -11 10 -14 9 -3 16 -12 16 -20 0 -8 5 -14
10 -14 6 0 10 -7 10 -15 0 -9 7 -18 15 -21 8 -4 15 -13 15 -20 0 -8 7 -17 15
-20 8 -4 15 -12 15 -18 0 -7 9 -22 19 -33 11 -12 17 -24 14 -27 -4 -3 -2 -6 3
-6 5 0 18 -17 29 -37 11 -21 28 -47 37 -57 10 -11 21 -29 24 -39 4 -11 15 -30
25 -41 11 -11 19 -25 19 -31 0 -7 9 -22 20 -35 18 -21 22 -29 19 -46 0 -4 3
-10 8 -13 18 -12 227 -439 239 -489 4 -15 10 -29 14 -32 4 -3 4 -13 1 -23 -6
-15 -14 -8 -48 40 -22 32 -55 74 -72 93 -17 19 -31 38 -31 41 0 3 -14 21 -30
40 -34 37 -34 37 -106 124 -27 33 -53 65 -59 71 -5 6 -21 26 -35 44 -14 18
-33 42 -42 53 -10 11 -18 24 -18 30 0 5 -7 6 -16 3 -9 -3 -12 -2 -9 5 4 6 0
18 -9 27 -44 48 -56 62 -56 67 0 3 -26 37 -57 77 -32 39 -57 75 -56 80 2 4 -3
8 -10 8 -11 0 -38 33 -36 46 0 3 -8 13 -18 22 -10 9 -43 51 -74 93 -31 41 -64
82 -73 91 -9 9 -16 21 -16 27 0 6 -4 11 -10 11 -5 0 -17 14 -25 30 -9 17 -20
28 -26 25 -5 -4 -9 -3 -8 2 4 15 -13 43 -22 37 -5 -3 -8 -2 -7 3 4 14 -23 54
-33 48 -5 -4 -9 -3 -8 2 4 16 -13 43 -28 43 -8 0 -12 4 -9 9 9 13 -150 191
-170 191 -12 0 -74 59 -74 71 0 13 -1 13 76 -25z m-2792 -69 c25 -1 46 -5 46
-9 0 -5 6 -8 14 -8 18 0 144 -65 169 -88 24 -21 77 -133 84 -176 3 -17 8 -33
12 -36 9 -7 9 -180 0 -174 -4 2 -9 -1 -11 -7 -6 -17 -56 -19 -94 -3 -19 8 -40
12 -47 8 -7 -4 -9 -4 -5 0 8 9 -18 39 -48 54 -18 10 -26 7 -52 -22 -36 -39
-54 -71 -45 -80 3 -3 2 -6 -4 -6 -5 0 -10 -6 -11 -12 -1 -15 -9 -53 -17 -78
-5 -16 -10 -17 -37 -6 -18 6 -55 23 -82 38 -130 69 -148 78 -158 71 -7 -3 -8
-1 -4 5 6 11 0 14 -20 11 -4 0 -10 4 -14 10 -3 7 -21 13 -38 14 -18 1 -32 4
-32 7 0 3 -12 6 -27 7 -72 5 -147 14 -151 18 -3 3 -11 0 -19 -6 -7 -6 -13 -7
-13 -3 0 5 -33 10 -72 12 -40 1 -85 4 -101 6 -24 3 -26 1 -15 -13 12 -15 11
-15 -7 0 -12 10 -37 16 -63 15 -23 -1 -42 2 -42 5 0 4 -13 5 -30 4 -16 -1 -30
1 -30 5 0 5 -11 7 -25 5 -14 -1 -25 0 -25 2 0 10 54 53 66 53 8 0 14 5 14 10
0 6 7 10 15 10 8 0 15 5 15 10 0 6 7 10 15 10 7 0 18 7 23 16 5 9 12 15 16 15
12 -2 66 29 66 39 0 5 8 6 17 3 12 -5 15 -2 10 9 -4 11 0 15 11 13 9 -1 31 7
47 19 17 12 41 27 55 34 36 17 64 35 72 47 4 6 8 6 8 2 0 -5 13 0 29 9 17 10
28 20 26 23 -1 3 10 7 26 8 17 1 43 12 59 23 17 12 34 18 40 15 5 -3 10 -1 10
4 0 6 9 11 20 11 11 0 20 5 20 11 0 5 5 7 10 4 6 -4 17 -2 24 4 8 7 18 11 22
10 5 -1 11 0 14 1 29 11 97 22 147 23 32 1 49 5 45 12 -3 5 1 4 10 -3 9 -7 36
-13 62 -15z m-1391 -474 c9 0 17 5 17 11 0 6 4 5 9 -3 5 -8 16 -11 25 -8 8 3
18 2 20 -2 3 -5 17 -7 31 -6 14 2 25 -1 25 -6 0 -5 7 -9 15 -9 9 0 47 -16 85
-34 39 -19 70 -33 70 -30 0 3 9 -3 19 -13 11 -10 41 -29 68 -43 26 -14 50 -27
53 -30 8 -8 54 -29 70 -32 8 -2 21 -9 28 -16 8 -7 18 -10 23 -7 5 4 9 2 9 -3
0 -5 21 -20 48 -33 26 -13 49 -27 50 -31 2 -5 10 -8 17 -8 8 0 19 -8 24 -17 6
-10 11 -15 11 -11 0 5 11 -2 24 -13 13 -12 26 -20 28 -18 1 1 19 -12 38 -29
19 -18 38 -32 42 -32 7 0 15 -5 76 -57 15 -13 33 -23 40 -23 6 0 12 -4 12 -9
0 -9 145 -103 156 -101 4 1 10 -3 13 -8 10 -16 88 -52 96 -44 5 4 5 2 1 -5 -4
-8 2 -15 19 -19 14 -3 25 -9 25 -13 0 -4 19 -18 43 -30 82 -44 119 -69 110
-74 -5 -3 -45 -8 -88 -11 -43 -3 -82 -11 -85 -17 -6 -8 -9 -8 -14 0 -5 8 -13
8 -27 1 -10 -6 -19 -9 -19 -6 0 3 -20 -1 -45 -8 -25 -8 -45 -12 -45 -10 0 3
-13 -2 -30 -11 -16 -8 -33 -15 -37 -14 -4 1 -11 0 -15 -1 -5 -1 -12 -4 -18 -5
-5 -1 -12 -4 -15 -5 -3 -1 -8 -3 -12 -4 -5 -1 -23 -6 -41 -10 -19 -4 -29 -12
-26 -18 4 -7 2 -8 -5 -4 -12 8 -90 -18 -128 -42 -13 -8 -23 -11 -23 -7 0 3
-13 -3 -29 -14 -16 -12 -36 -21 -44 -21 -8 0 -20 -7 -27 -15 -7 -8 -19 -15
-26 -15 -8 0 -14 -4 -14 -9 0 -5 -13 -12 -30 -16 -16 -4 -30 -11 -30 -16 0 -5
-3 -8 -7 -7 -12 2 -45 -13 -75 -34 -16 -11 -28 -16 -28 -11 0 4 -4 3 -8 -3 -4
-5 -25 -21 -47 -34 -22 -13 -42 -27 -45 -30 -3 -4 -36 -29 -75 -55 -38 -26
-77 -54 -86 -62 -14 -12 -17 -11 -22 6 -9 37 -1 123 14 132 8 5 11 9 8 9 -3 0
-1 28 6 63 16 86 12 150 -14 235 -5 18 -9 33 -9 35 5 11 -68 208 -110 297 -20
41 -36 77 -36 80 -2 11 -51 85 -58 88 -5 2 -6 7 -4 11 3 4 -6 20 -20 36 -13
15 -24 32 -24 37 0 8 -6 15 -58 72 -12 14 -22 29 -23 33 0 5 -8 18 -19 30 -10
12 -16 24 -13 27 4 3 2 6 -4 6 -6 0 -13 7 -17 15 -3 8 -2 14 2 12 4 -1 21 10
37 26 16 15 35 27 42 27 7 0 13 4 13 9 0 5 17 13 38 18 23 6 36 15 34 23 -2
10 0 11 10 3 7 -6 21 -10 31 -10z m369 -27 c24 -1 49 2 57 8 12 9 13 8 6 -3
-6 -11 -4 -13 8 -8 10 3 17 3 17 -1 0 -4 9 -8 19 -9 10 -1 52 -13 92 -27 40
-14 77 -22 82 -19 6 3 7 1 4 -4 -4 -6 4 -18 18 -27 14 -9 25 -14 25 -11 0 4 7
-1 16 -9 8 -9 20 -14 25 -10 5 3 8 0 7 -8 -2 -7 5 -12 15 -11 10 0 16 -1 13
-4 -2 -3 21 -28 51 -56 31 -29 61 -58 67 -64 6 -7 54 -58 106 -113 52 -55 114
-120 137 -144 22 -25 44 -42 49 -38 4 4 4 2 1 -4 -4 -7 0 -15 9 -18 9 -4 14
-9 11 -12 -3 -4 -32 11 -64 32 -32 21 -60 38 -63 38 -3 0 -9 4 -15 8 -5 5 -21
17 -35 29 -13 11 -40 30 -59 42 -19 12 -42 27 -51 35 -42 38 -147 112 -157
112 -7 0 -13 3 -13 8 -1 10 -80 58 -92 54 -5 -1 -7 2 -3 8 3 5 0 10 -8 10 -8
0 -20 7 -27 15 -7 9 -19 14 -27 11 -7 -3 -13 -1 -13 4 0 13 -67 43 -80 35 -6
-3 -9 -1 -8 7 2 7 -5 12 -14 12 -10 -1 -15 2 -12 7 5 8 -9 13 -28 10 -5 0 -8
3 -8 7 0 4 -36 26 -80 47 -44 22 -80 46 -80 54 0 8 6 11 15 7 8 -3 15 -1 15 4
0 5 6 7 14 4 8 -3 34 -7 58 -8z m363 4 c0 -1 11 -3 25 -5 96 -11 220 -40 295
-68 17 -7 32 -12 35 -12 3 -1 27 -11 54 -23 26 -12 52 -20 56 -17 4 3 11 -2
14 -11 4 -9 13 -14 22 -10 8 3 12 2 9 -4 -3 -6 0 -10 8 -10 8 0 18 -7 21 -16
4 -10 14 -14 25 -11 14 3 18 1 14 -9 -3 -8 0 -14 6 -14 6 0 53 -42 104 -92 51
-51 116 -114 144 -140 28 -25 49 -49 46 -51 -2 -3 5 -8 16 -12 12 -3 19 -10
17 -14 -3 -4 5 -18 18 -32 60 -65 46 -147 -31 -178 -18 -7 -30 -17 -27 -22 3
-5 -2 -6 -10 -3 -8 3 -28 -2 -44 -12 -23 -13 -33 -14 -43 -5 -49 41 -63 50
-70 45 -5 -3 -9 1 -9 8 0 7 -20 24 -45 38 -24 13 -47 30 -50 38 -3 7 -9 10
-15 7 -5 -3 -10 2 -10 11 0 10 -3 15 -6 11 -4 -3 -12 -1 -19 6 -30 29 -90 72
-97 69 -4 -1 -7 1 -6 5 3 10 -95 108 -104 105 -5 -1 -8 4 -8 11 0 7 -9 19 -20
27 -11 8 -20 20 -20 28 0 7 -4 11 -9 8 -5 -3 -11 4 -14 15 -4 15 -11 20 -22
15 -10 -3 -14 -2 -9 5 3 6 -10 26 -30 45 -20 19 -36 37 -36 40 0 8 -27 34 -35
34 -4 0 -19 13 -34 29 -31 33 -200 145 -208 137 -5 -5 -33 18 -33 28 0 7 39
11 90 9 25 -1 45 -2 45 -3z m-931 -16 c3 -8 2 -12 -4 -9 -6 3 -10 10 -10 16 0
14 7 11 14 -7z m2127 -31 c13 -16 12 -17 -3 -4 -10 7 -18 15 -18 17 0 8 8 3
21 -13z m-366 -25 c14 -6 25 -15 25 -20 0 -4 3 -7 8 -6 4 1 23 -6 42 -17 34
-18 170 -31 170 -16 0 8 218 7 250 -2 14 -4 34 -9 45 -11 11 -1 27 -5 35 -8
97 -32 109 -34 103 -24 -4 6 0 5 9 -2 17 -14 47 -23 93 -27 17 -1 38 -6 47
-10 10 -4 57 -4 105 -1 49 4 127 8 174 9 96 1 94 2 219 -104 30 -25 69 -53 85
-62 34 -18 146 -53 158 -49 4 1 7 -1 7 -6 0 -4 14 -13 32 -21 17 -8 47 -29 67
-48 19 -18 39 -33 43 -33 4 0 8 -5 8 -10 0 -6 10 -21 23 -34 39 -42 79 -90
105 -128 13 -21 29 -38 33 -38 5 0 8 -4 7 -8 -3 -9 56 -86 80 -106 7 -6 23
-21 35 -32 12 -12 58 -41 102 -64 44 -23 90 -51 103 -63 12 -11 22 -18 22 -14
0 10 53 -36 142 -126 48 -49 88 -93 88 -98 0 -6 10 -20 21 -32 12 -12 40 -51
64 -87 23 -36 89 -128 146 -205 128 -171 169 -232 169 -249 0 -9 -32 3 -92 34
-51 26 -111 53 -132 60 -22 7 -60 25 -85 40 -26 14 -53 29 -61 33 -47 22 -157
106 -221 170 -69 68 -121 127 -218 247 -59 72 -96 113 -150 164 -25 22 -53 49
-63 59 -10 9 -22 17 -28 17 -5 0 -10 5 -10 10 0 6 -6 10 -13 10 -7 0 -18 9
-25 20 -7 11 -17 20 -23 20 -6 0 -16 6 -24 13 -23 21 -55 47 -60 47 -2 0 -32
20 -67 44 -106 74 -333 173 -390 170 -10 -1 -18 3 -18 7 0 5 -3 8 -7 7 -5 -1
-25 6 -47 15 -21 9 -43 17 -48 17 -5 0 -16 7 -25 15 -8 8 -19 13 -24 10 -5 -4
-9 -2 -9 3 0 9 -42 28 -64 30 -5 0 -12 4 -15 9 -6 9 -132 52 -166 56 -11 1
-25 6 -30 9 -6 4 -29 9 -50 11 -22 3 -47 8 -55 11 -8 3 -26 8 -40 10 -30 6
-48 10 -117 30 -29 8 -53 12 -53 10 0 -3 -13 2 -30 11 -16 8 -33 16 -37 16
-24 0 -60 14 -75 27 -10 8 -18 12 -18 8 0 -4 -10 2 -22 14 -12 11 -27 20 -33
20 -11 0 -25 10 -72 50 -7 6 -13 8 -13 6 0 -11 -146 144 -163 173 -19 33 -13
38 28 19z m-1769 -53 c8 -7 14 -16 14 -20 0 -3 5 -11 10 -18 6 -7 29 -41 53
-77 23 -36 48 -69 54 -73 7 -4 13 -12 13 -17 0 -17 47 -79 55 -72 3 4 5 2 4
-3 -2 -6 18 -54 44 -107 26 -54 47 -102 47 -108 0 -5 5 -10 11 -10 5 0 8 -4 5
-8 -2 -4 4 -26 14 -49 15 -34 38 -105 57 -178 10 -37 12 -245 2 -245 -5 0 -8
-3 -8 -7 3 -20 -2 -41 -14 -57 -12 -16 -16 -10 -42 60 -15 44 -32 84 -36 90
-5 6 -6 14 -2 17 3 4 1 7 -5 7 -7 0 -11 3 -10 8 0 4 -2 14 -5 22 -4 8 -11 28
-17 45 -9 24 -13 27 -21 15 -8 -12 -9 -11 -5 5 3 11 -1 32 -8 47 -25 48 -51
93 -56 98 -3 3 -21 30 -40 60 -38 61 -119 171 -133 181 -5 3 -9 10 -10 15 -2
10 -5 15 -83 109 -32 39 -62 72 -67 74 -4 1 -17 12 -28 24 -14 16 -16 23 -7
29 10 6 10 8 0 8 -7 0 4 16 24 35 19 19 40 35 45 35 6 0 7 5 4 10 -3 6 0 10 8
10 18 0 49 34 40 44 -4 4 0 4 9 1 9 -4 18 -3 21 2 9 14 49 13 63 -2z m2624 1
c0 -2 -8 -10 -17 -17 -16 -13 -17 -12 -4 4 13 16 21 21 21 13z m-861 -133 c20
-23 42 -43 50 -43 8 0 12 -3 8 -6 -3 -3 7 -17 23 -30 32 -28 200 -118 200
-108 0 4 6 2 13 -3 14 -11 99 -36 108 -31 3 2 13 -3 22 -11 9 -7 24 -11 32 -7
8 3 15 1 15 -4 0 -5 8 -8 18 -8 9 0 31 -3 47 -7 17 -4 44 -8 62 -9 17 0 29 -4
27 -7 -2 -4 18 -9 44 -13 50 -6 87 -13 87 -16 0 -1 11 -3 25 -4 14 -2 32 -5
40 -9 8 -4 26 -8 40 -9 14 -2 31 -7 38 -12 7 -4 16 -6 19 -3 3 3 21 -3 41 -13
21 -10 44 -20 52 -22 8 -2 17 -6 20 -9 3 -3 34 -21 70 -39 36 -19 79 -45 96
-57 17 -13 36 -23 42 -23 7 0 12 -3 12 -7 0 -5 18 -19 40 -33 22 -13 40 -28
40 -32 0 -4 5 -8 11 -8 6 0 16 -6 23 -12 8 -7 28 -24 45 -38 47 -38 241 -229
241 -238 0 -4 9 -14 20 -22 11 -8 20 -20 20 -26 0 -7 7 -14 15 -18 8 -3 15
-12 15 -21 0 -8 4 -15 8 -15 7 0 42 -52 42 -63 0 -9 -46 -19 -85 -17 -77 3
-206 49 -272 97 -18 13 -33 22 -33 19 0 -5 -139 81 -165 102 -18 14 -130 76
-135 75 -3 -1 -13 6 -22 14 -10 9 -18 12 -18 7 0 -5 -4 -4 -8 1 -11 15 -72 47
-72 38 0 -4 -4 -3 -8 4 -4 6 -16 13 -27 15 -11 1 -23 8 -27 13 -4 6 -11 10
-15 10 -4 1 -18 6 -29 13 -12 6 -24 8 -28 5 -3 -3 -6 -1 -6 5 0 7 -3 11 -7 10
-9 -2 -52 16 -96 39 -15 8 -34 12 -42 9 -8 -3 -14 0 -12 6 1 7 -2 13 -8 13
-11 1 -167 77 -175 85 -3 3 -18 12 -35 20 -16 8 -64 37 -105 64 -41 27 -76 49
-77 48 -2 -1 -44 40 -95 91 -51 50 -96 91 -101 89 -5 -1 -6 2 -2 8 8 13 -20
41 -31 32 -5 -4 -6 -3 -2 2 4 5 -13 35 -37 67 -25 31 -45 62 -45 68 0 6 -4 11
-9 11 -5 0 -11 8 -14 18 -2 9 -8 26 -12 37 -7 21 6 8 84 -82z m-1924 -133 c20
-28 41 -47 46 -44 5 3 9 2 8 -3 -3 -18 2 -29 25 -55 12 -15 26 -24 30 -21 4 4
4 0 1 -9 -4 -10 1 -21 14 -30 12 -8 18 -18 14 -21 -3 -4 -1 -7 5 -7 7 0 12 -7
12 -16 0 -8 4 -13 9 -10 4 3 13 -6 20 -20 6 -14 15 -23 19 -20 5 3 9 -1 9 -8
0 -16 86 -146 93 -141 3 2 7 -6 7 -17 1 -12 6 -24 11 -27 11 -7 92 -174 92
-190 0 -6 5 -11 12 -11 6 0 9 -3 5 -6 -3 -4 0 -19 8 -34 8 -15 11 -30 8 -34
-4 -3 -1 -6 6 -6 7 0 9 -4 6 -10 -3 -5 -1 -10 5 -10 6 0 9 -4 6 -8 -3 -5 4
-37 14 -71 20 -62 31 -145 22 -168 -4 -14 -43 -18 -41 -5 2 15 -14 52 -22 52
-5 0 -9 9 -9 20 0 11 -5 20 -11 20 -5 0 -7 5 -4 10 3 6 -2 10 -12 10 -12 0
-14 3 -6 8 9 6 4 17 -17 41 -17 18 -30 34 -30 36 0 2 -11 15 -25 29 -14 14
-25 24 -25 22 0 -7 -79 65 -148 136 -41 42 -80 74 -85 71 -6 -4 -7 -1 -2 6 4
7 -1 22 -13 34 -23 26 -91 130 -111 170 -8 15 -18 27 -23 27 -4 0 -8 9 -8 19
0 11 -4 21 -8 23 -4 2 -21 30 -37 63 -37 79 -45 193 -15 220 11 10 17 23 13
29 -3 6 -3 8 1 4 11 -9 46 23 39 36 -20 31 62 -42 92 -84z m4042 71 c13 11 15
11 9 1 -6 -9 -1 -12 16 -10 12 2 29 7 37 12 10 6 12 5 7 -2 -5 -8 4 -12 26
-13 62 -1 164 -24 226 -50 23 -10 42 -16 42 -14 0 3 18 -6 40 -20 22 -14 44
-25 49 -25 5 0 14 -7 21 -15 7 -9 15 -13 18 -10 3 3 11 -4 19 -15 8 -11 18
-20 23 -20 13 0 45 -28 147 -126 46 -44 86 -78 88 -75 3 2 5 0 5 -6 0 -5 22
-34 50 -64 27 -30 49 -57 50 -61 0 -4 14 -22 30 -40 31 -33 151 -203 159 -223
2 -5 9 -17 16 -25 33 -39 230 -420 217 -420 -4 0 -2 -4 3 -8 6 -4 25 -43 42
-87 16 -44 34 -89 38 -100 5 -11 9 -22 10 -25 0 -3 10 -34 22 -70 52 -161 50
-154 84 -330 21 -110 28 -300 15 -420 -3 -36 -9 -85 -11 -110 -8 -69 -16 -141
-20 -159 -2 -9 -6 -42 -10 -74 -4 -31 -10 -57 -14 -57 -7 0 -69 92 -88 130 -7
14 -17 32 -22 40 -35 55 -105 231 -186 465 -35 99 -95 268 -135 375 -39 107
-73 200 -74 205 -1 6 -5 16 -9 22 -5 7 -10 21 -12 30 -2 10 -20 61 -40 113
-36 95 -110 328 -120 378 -3 15 -14 70 -25 122 -11 52 -23 109 -26 125 -10 50
-65 185 -75 185 -6 0 -8 4 -5 9 9 14 -69 89 -110 106 -101 42 -132 49 -224 49
-53 1 -98 -3 -102 -9 -5 -6 -8 -5 -8 3 0 6 -7 12 -15 12 -27 0 -89 37 -110 66
-32 45 -82 94 -89 87 -3 -4 -6 -1 -6 5 0 14 -75 54 -84 45 -3 -4 -6 -2 -6 4 0
10 -64 29 -82 25 -5 -1 -8 3 -8 9 0 6 -9 9 -20 6 -11 -3 -20 -3 -20 -1 0 8 70
32 102 35 18 2 38 7 45 11 6 5 14 5 17 -1 3 -5 15 -7 26 -4 11 3 17 10 13 17
-4 6 1 5 10 -3 14 -11 20 -11 34 0z m-177 -133 c0 -4 3 -7 8 -6 4 1 23 -3 42
-10 41 -14 91 -58 140 -122 58 -75 43 -68 175 -85 17 -2 30 -4 30 -5 0 -1 14
-3 30 -5 17 -2 50 -6 75 -11 25 -4 55 -8 68 -8 12 -1 22 -4 22 -8 0 -5 8 -8
17 -8 36 0 109 -43 134 -78 35 -50 75 -155 86 -229 3 -18 8 -33 12 -33 4 0 7
-8 7 -17 1 -21 7 -56 24 -130 24 -108 15 -107 -96 2 -55 55 -120 116 -144 135
-24 19 -49 40 -55 47 -10 9 -89 69 -330 248 -68 51 -90 65 -102 65 -7 0 -13 4
-13 9 0 6 -22 22 -50 37 -27 15 -50 31 -50 36 0 4 -9 8 -20 8 -11 0 -20 3 -20
8 0 4 -15 13 -32 21 -18 8 -47 24 -64 37 -17 13 -35 20 -39 16 -5 -4 -5 -2 -1
5 3 6 2 15 -4 18 -13 8 26 45 47 45 7 0 13 5 13 11 0 5 3 8 8 6 4 -3 15 -2 25
2 25 9 57 8 57 -1z m-58 -196 c7 -16 106 -81 113 -74 5 4 6 2 2 -3 -3 -6 21
-28 54 -49 32 -21 59 -42 59 -48 0 -5 5 -6 10 -3 6 3 10 3 10 -2 0 -4 17 -19
38 -33 54 -36 116 -84 120 -92 2 -5 10 -8 17 -8 8 0 18 -6 22 -13 4 -7 26 -26
48 -43 124 -91 263 -237 346 -362 67 -103 276 -508 266 -518 -13 -13 -127 130
-240 300 -6 10 -27 38 -44 62 -18 23 -33 46 -33 49 0 3 -5 11 -11 18 -15 18
-135 185 -166 232 -14 22 -31 44 -37 51 -6 6 -28 31 -50 57 -47 56 -141 119
-366 243 -14 8 -21 14 -16 14 5 0 -4 10 -20 22 -16 12 -32 27 -36 33 -3 5 -18
24 -32 40 -15 17 -29 40 -32 52 -3 12 -12 24 -20 27 -8 3 -14 12 -14 21 0 8
-4 15 -10 15 -5 0 -10 5 -10 10 0 12 27 14 32 2z m-3953 -38 c5 3 7 -3 4 -14
-4 -15 0 -20 16 -20 12 0 20 -4 16 -9 -3 -5 2 -16 10 -24 8 -9 15 -20 15 -25
0 -6 3 -12 8 -14 4 -1 29 -34 56 -73 44 -62 146 -174 146 -160 0 3 19 -11 41
-32 70 -64 129 -124 129 -132 0 -3 9 -13 20 -21 11 -8 20 -19 20 -25 0 -6 8
-20 18 -31 40 -43 71 -137 68 -208 -1 -26 3 -46 9 -46 6 0 6 -3 -1 -8 -15 -10
-25 -52 -12 -52 5 0 2 -7 -7 -16 -12 -13 -13 -19 -4 -31 10 -11 10 -14 -2 -11
-9 2 -13 -5 -12 -20 2 -15 -1 -21 -8 -16 -8 5 -10 -1 -7 -19 3 -15 2 -24 -2
-22 -8 5 -25 -42 -22 -57 1 -5 -3 -8 -9 -8 -6 0 -9 -9 -6 -20 3 -10 2 -19 -2
-18 -19 2 -22 -4 -10 -19 8 -9 9 -14 3 -10 -10 6 -24 -12 -26 -33 0 -3 -7 -14
-14 -25 -8 -11 -14 -27 -14 -37 0 -10 -5 -18 -11 -18 -6 0 -9 -7 -5 -15 3 -8
1 -15 -5 -15 -6 0 -7 -4 -4 -10 3 -5 1 -10 -4 -10 -6 0 -10 -3 -9 -7 1 -5 -4
-21 -11 -37 -6 -16 -13 -36 -14 -45 -1 -9 -7 -23 -12 -31 -13 -22 -14 -342 -1
-359 8 -11 8 -13 -1 -7 -7 4 -13 2 -13 -3 0 -19 -36 -12 -76 15 -21 15 -40 30
-42 35 -2 5 -10 9 -18 9 -8 0 -13 6 -12 13 2 6 -3 11 -10 9 -8 -1 -11 1 -8 6
3 5 -5 19 -17 33 -13 13 -49 58 -82 99 -78 97 -81 101 -105 128 -11 12 -20 24
-20 26 0 6 -38 52 -73 87 -15 16 -24 29 -20 29 4 0 -2 10 -14 23 -47 47 -91
97 -87 97 2 0 -22 26 -54 58 -31 33 -66 71 -76 85 -11 14 -24 23 -28 21 -5 -3
-7 0 -6 8 2 7 -2 12 -9 11 -7 -2 -10 4 -7 12 4 9 0 15 -10 15 -9 0 -15 4 -13
8 3 10 -45 82 -55 82 -5 0 -8 6 -8 13 0 18 -35 49 -44 40 -4 -4 -4 -1 -1 8 3
8 -2 24 -12 34 -10 11 -24 32 -32 48 -8 15 -18 27 -23 27 -4 0 -8 6 -8 14 0
13 75 54 110 61 8 2 17 4 20 5 3 1 10 3 15 5 6 1 12 3 15 4 7 4 49 9 98 12 23
1 42 5 42 9 0 3 10 6 23 6 76 1 98 4 91 17 -6 9 -5 9 7 0 9 -8 20 -9 29 -3 8
6 24 10 35 10 24 0 85 48 88 70 2 8 5 20 8 25 15 25 18 46 7 39 -7 -5 -8 -3
-2 7 10 16 11 25 20 94 3 28 7 55 9 62 2 7 0 15 -6 18 -5 4 -6 12 -2 18 9 14
11 87 3 87 -3 0 -6 8 -6 18 -1 9 -4 58 -8 107 l-7 90 20 -23 c11 -13 25 -21
30 -18z m2371 2 c0 -2 -8 -10 -17 -17 -16 -13 -17 -12 -4 4 13 16 21 21 21 13z
m-160 -40 c0 -2 -8 -10 -17 -17 -16 -13 -17 -12 -4 4 13 16 21 21 21 13z
m1213 -8 c-2 -5 3 -8 11 -8 22 0 186 -80 186 -91 0 -5 5 -9 10 -9 6 0 55 -33
108 -74 127 -96 194 -157 282 -253 48 -52 64 -72 163 -198 34 -44 71 -90 83
-101 11 -12 29 -32 40 -46 10 -13 31 -32 47 -42 15 -10 27 -25 27 -32 0 -18
-35 -11 -110 24 -65 30 -39 7 -276 240 -105 103 -233 225 -284 272 -51 47 -99
91 -106 98 -7 6 -18 12 -25 12 -7 0 -10 2 -7 5 7 8 -112 121 -123 118 -5 -2
-8 1 -6 5 1 5 -13 23 -30 39 -39 37 -42 51 -9 49 13 0 22 -4 19 -8z m-996
-145 c46 -2 75 -7 142 -23 24 -6 51 -8 58 -6 8 3 12 2 9 -3 -4 -6 120 -50 159
-56 6 -1 17 -4 25 -7 17 -6 102 -33 110 -34 44 -6 90 -28 90 -42 -1 -33 -25
-51 -108 -83 -31 -11 -217 -15 -267 -6 -11 3 -26 -1 -34 -7 -11 -8 -13 -8 -7
2 4 7 2 12 -6 13 -7 0 -22 2 -33 5 -11 2 -40 6 -65 9 -25 2 -56 7 -70 10 -14
3 -36 7 -50 10 -14 2 -46 8 -71 13 -25 5 -57 8 -72 8 -15 -1 -27 2 -27 6 0 13
-28 9 -33 -4 -4 -9 -6 -8 -6 3 -1 11 -10 15 -33 13 -18 -1 -40 2 -49 6 -10 6
-21 5 -29 -3 -10 -9 -11 -9 -6 1 5 8 -3 12 -26 13 -18 1 -64 2 -103 4 -38 1
-85 -2 -105 -7 -19 -5 -44 -11 -54 -13 -11 -3 -23 -10 -28 -17 -6 -10 -8 -10
-8 -1 0 9 -11 6 -35 -7 -19 -11 -35 -16 -35 -12 0 4 -4 2 -8 -3 -7 -11 -50
-32 -66 -33 -5 0 -12 -4 -15 -9 -3 -4 -23 -17 -44 -28 -21 -11 -46 -27 -55
-36 -17 -15 -46 -29 -58 -28 -4 0 -10 -4 -13 -9 -3 -5 -42 -32 -86 -60 -44
-28 -85 -56 -91 -61 -14 -12 -120 -60 -142 -65 -9 -1 -24 -6 -32 -9 -8 -4 -28
-8 -45 -11 -16 -2 -31 -5 -32 -6 -4 -3 -12 -5 -61 -14 -23 -4 -40 -12 -37 -16
3 -5 0 -12 -6 -16 -8 -4 -9 -3 -5 4 10 16 -17 15 -32 0 -7 -7 -12 -9 -12 -6 0
4 -31 -9 -70 -28 -48 -23 -77 -44 -92 -69 -13 -19 -26 -35 -30 -35 -11 0 -10
7 7 40 9 17 12 30 8 30 -5 0 -3 4 2 8 10 7 32 50 33 65 0 5 8 14 17 21 9 6 17
21 18 33 0 12 4 20 8 17 10 -6 49 72 41 82 -4 4 -2 4 5 0 6 -3 18 2 25 12 7
11 17 19 21 20 5 0 19 8 30 18 12 11 34 25 50 31 15 7 27 17 27 22 0 6 6 8 14
5 8 -3 20 3 27 14 7 11 18 18 26 15 7 -3 16 2 19 11 3 9 10 14 14 11 5 -3 11
-1 15 5 3 5 15 10 26 10 10 0 19 4 19 9 0 10 39 27 53 23 4 -1 7 3 7 8 0 6 6
10 14 10 7 0 27 7 42 15 16 8 37 15 47 15 11 0 15 4 11 12 -4 6 -3 8 4 4 6 -3
22 -2 36 4 27 10 72 21 94 22 6 1 12 6 12 11 0 6 2 8 6 5 3 -3 22 -2 42 4 40
10 107 19 135 19 9 0 17 3 17 7 0 4 12 7 28 8 15 0 59 4 97 8 39 4 85 8 103 9
17 1 32 4 32 8 0 3 11 5 25 4 14 -2 28 1 31 6 3 6 11 5 20 -2 8 -6 14 -8 14
-3 0 5 12 10 28 11 15 1 38 3 52 5 14 3 49 8 78 13 28 4 52 10 52 14 0 3 18 7
40 8 22 0 48 4 58 9 15 6 39 10 95 13 11 1 15 6 11 13 -5 7 -3 8 7 2 8 -5 33
-10 56 -11z m-312 -223 c11 -1 -30 -20 -57 -25 -9 -2 -25 -8 -35 -12 -10 -5
-25 -9 -33 -8 -8 0 -17 -2 -20 -6 -3 -4 -21 -10 -40 -12 -19 -3 -35 -6 -35 -7
0 -1 -7 -3 -15 -5 -72 -17 -159 -50 -230 -86 -102 -51 -141 -79 -133 -92 3 -6
1 -7 -5 -3 -12 7 -20 2 -77 -51 -18 -17 -36 -29 -39 -25 -3 3 -6 -3 -6 -13 0
-10 -3 -16 -6 -12 -10 9 -145 -133 -138 -145 4 -6 3 -8 -3 -5 -8 5 -112 -93
-114 -107 0 -3 -20 -26 -44 -51 -25 -25 -45 -50 -45 -55 0 -6 -4 -10 -8 -10
-11 0 -55 -61 -55 -76 0 -7 -4 -12 -9 -11 -12 2 -88 -129 -80 -137 3 -3 0 -6
-7 -6 -8 0 -11 -7 -7 -15 3 -8 2 -15 -3 -15 -5 0 -14 -21 -21 -47 -7 -27 -16
-52 -20 -58 -9 -12 -25 -76 -22 -87 1 -5 -2 -8 -8 -8 -6 0 -9 -3 -8 -7 3 -15
-24 -99 -43 -132 -11 -19 -17 -41 -14 -50 3 -8 3 -12 -1 -9 -6 7 -34 -15 -34
-27 0 -3 -8 -15 -18 -26 -11 -10 -25 -32 -33 -47 -8 -14 -21 -35 -29 -45 -8
-10 -15 -21 -15 -25 -1 -4 -6 -17 -13 -29 -13 -24 -34 -32 -27 -10 2 6 6 39 9
72 7 77 12 104 37 195 12 41 22 80 23 85 1 6 4 15 8 20 3 6 12 30 19 55 7 25
14 52 17 60 2 8 5 27 6 42 0 14 4 24 7 22 5 -3 16 22 19 43 0 2 7 20 15 40 8
21 17 49 19 63 3 14 5 25 6 25 9 0 13 97 10 264 0 19 -6 41 -13 50 -10 12 -9
13 1 7 9 -5 12 -3 11 5 -2 8 1 28 5 46 7 32 27 47 67 52 5 0 8 4 6 9 -3 4 6 8
19 9 13 1 35 4 49 5 14 1 25 5 25 8 0 4 10 6 23 5 12 -1 26 0 32 3 5 4 23 7
38 8 16 2 36 8 45 16 13 11 14 11 7 -1 -5 -9 -4 -12 2 -8 5 3 25 9 44 12 45 7
80 26 72 38 -3 6 -1 7 6 3 12 -8 81 32 81 47 0 4 7 7 15 7 8 0 15 5 15 11 0 5
4 8 9 5 5 -3 19 4 33 17 13 12 26 22 30 22 3 0 28 16 54 35 27 19 51 35 54 35
3 0 32 18 65 39 33 22 81 50 107 63 26 13 49 27 52 31 2 4 20 9 38 10 33 3 73
9 73 12 0 1 50 4 110 7 61 3 111 6 112 7 2 2 47 -1 68 -4z m327 -37 c46 -14
90 -27 98 -28 8 -1 23 -6 32 -10 10 -4 32 -8 50 -9 18 0 35 -4 39 -8 3 -4 27
-10 55 -12 27 -3 49 -6 49 -7 0 -2 52 -7 140 -13 39 -2 73 -5 77 -5 15 -2 -29
-111 -44 -111 -5 0 -6 -6 -2 -12 4 -7 4 -10 0 -6 -5 4 -29 -8 -55 -26 -25 -18
-78 -43 -116 -55 -39 -12 -77 -25 -85 -28 -8 -4 -20 -5 -27 -4 -6 1 -14 -3
-18 -9 -3 -5 -14 -10 -23 -10 -25 0 -204 -88 -199 -97 3 -5 -6 -9 -19 -9 -13
-1 -37 -10 -52 -20 -15 -10 -29 -19 -32 -20 -3 0 -26 -10 -51 -21 -78 -36
-232 -91 -271 -98 -21 -4 -38 -11 -38 -15 0 -5 -10 -6 -22 -2 -11 3 -19 1 -16
-4 4 -5 -6 -9 -20 -10 -15 -1 -52 -5 -82 -10 -62 -9 -253 -11 -317 -3 -44 6
-123 -20 -123 -40 0 -5 -6 -16 -13 -23 -13 -13 -57 -114 -61 -139 -1 -8 -4
-18 -7 -24 -6 -9 -19 -57 -20 -70 -1 -18 -82 -165 -91 -165 -6 0 -8 -3 -5 -6
4 -4 -10 -20 -31 -36 -20 -17 -36 -35 -34 -40 1 -5 -2 -7 -7 -4 -5 3 -22 -1
-39 -10 -41 -20 -63 -25 -150 -31 l-73 -6 11 29 c6 16 17 35 23 43 9 12 9 13
0 7 -9 -5 -11 -2 -7 8 3 9 10 16 15 16 5 0 9 6 9 14 0 7 13 38 30 69 17 32 27
64 24 74 -4 13 -3 15 4 5 7 -11 12 -7 20 15 6 15 24 51 41 80 21 36 27 53 18
56 -8 4 -7 6 3 6 8 1 28 25 44 54 30 52 68 108 96 137 8 9 26 31 40 50 33 44
93 112 156 177 29 29 50 53 48 53 -2 0 18 19 44 43 25 23 59 53 74 67 37 34
44 39 113 85 33 22 63 45 67 50 5 6 8 6 8 1 0 -6 5 -5 12 2 7 7 20 12 31 12
10 0 16 3 14 8 -5 7 37 14 96 16 15 1 27 5 27 10 0 5 8 2 17 -5 14 -12 16 -12
8 0 -6 11 -5 12 6 5 21 -13 32 -12 52 5 16 13 18 13 15 1 -3 -15 7 -16 62 -6
14 2 25 5 25 6 0 1 10 3 21 5 12 3 34 10 50 17 16 6 35 12 42 13 7 0 16 5 20
10 6 9 23 14 60 17 6 1 12 5 12 10 0 5 3 7 8 5 4 -3 16 -1 27 4 29 11 26 11
117 -18z m698 -48 c0 -8 5 -15 10 -15 6 0 10 -8 10 -19 0 -10 7 -35 15 -55 8
-20 13 -36 10 -36 -4 0 -3 -6 2 -12 4 -7 8 -33 10 -58 5 -101 15 -139 54 -217
23 -46 45 -83 50 -83 5 0 9 -5 9 -12 0 -10 188 -299 311 -480 11 -15 19 -29
19 -32 0 -12 103 -157 145 -204 113 -125 316 -229 540 -276 44 -10 89 -20 100
-23 11 -3 98 -7 194 -9 96 -2 176 -5 178 -7 3 -4 -49 -15 -152 -33 -11 -2 -31
-6 -45 -8 -14 -3 -41 -7 -60 -10 -19 -3 -60 -10 -90 -16 -30 -6 -68 -13 -85
-16 -16 -2 -100 -20 -185 -39 -355 -82 -467 -97 -605 -82 -159 18 -298 117
-454 327 -155 207 -199 339 -166 498 20 102 24 118 31 145 15 52 3 283 -15
297 -12 9 -6 165 8 200 8 19 30 69 49 110 20 41 35 78 34 83 -1 4 2 7 7 7 5 0
13 10 17 23 8 26 36 66 47 67 4 0 7 -7 7 -15z m164 -25 c32 -16 64 -34 72 -41
8 -6 14 -8 14 -3 0 5 4 4 8 -2 8 -12 162 -116 162 -109 0 2 11 -6 24 -18 24
-22 112 -69 191 -102 31 -13 272 -78 445 -120 30 -7 205 -65 225 -75 11 -5 64
-29 118 -54 113 -52 293 -157 372 -219 6 -4 47 -34 92 -67 113 -83 181 -157
265 -290 36 -57 45 -83 54 -153 3 -23 7 -48 9 -54 6 -17 -10 -16 -27 1 -21 22
-70 78 -118 136 -195 237 -401 386 -602 436 -46 11 -66 15 -103 19 -22 3 -51
7 -65 10 -14 3 -45 7 -70 10 -25 2 -61 7 -80 9 -19 3 -55 8 -80 11 -25 3 -70
10 -100 15 -30 5 -68 11 -85 14 -108 17 -345 111 -345 135 0 6 -8 12 -17 15
-30 10 -159 141 -233 236 -19 25 -38 47 -42 48 -4 2 -8 9 -8 16 0 7 -9 21 -20
31 -11 10 -20 23 -20 30 0 6 -8 20 -18 31 -10 10 -24 33 -32 51 -8 17 -19 29
-25 26 -5 -4 -7 -2 -2 2 4 5 0 19 -8 32 -9 13 -14 23 -12 23 2 0 29 -13 61
-30z m-84 -49 c0 -6 5 -11 10 -11 6 0 10 -5 10 -11 0 -6 6 -17 13 -24 23 -26
34 -41 38 -50 11 -27 93 -145 101 -145 4 0 8 -6 8 -13 0 -7 9 -23 20 -35 12
-12 19 -22 17 -22 -15 0 133 -151 293 -300 62 -58 122 -114 134 -125 12 -11
59 -54 106 -95 46 -41 96 -86 111 -100 42 -39 120 -104 137 -114 9 -5 26 -18
37 -29 27 -25 316 -216 385 -254 30 -17 72 -36 93 -43 43 -14 49 -29 10 -24
-99 10 -230 54 -448 147 -135 58 -353 175 -418 224 -75 58 -270 250 -347 342
-25 29 -50 58 -55 65 -6 6 -35 45 -65 86 -30 41 -58 77 -62 78 -5 2 -8 9 -8
17 0 7 -7 18 -15 25 -14 12 -25 30 -66 110 -9 20 -20 56 -24 80 -3 25 -8 56
-10 70 -2 14 -6 45 -9 70 -3 25 -10 61 -16 80 -13 44 -13 44 5 26 8 -8 15 -19
15 -25z m-1860 -55 c0 -2 -8 -10 -17 -17 -16 -13 -17 -12 -4 4 13 16 21 21 21
13z m-719 -133 c13 -16 12 -17 -3 -4 -10 7 -18 15 -18 17 0 8 8 3 21 -13z
m2171 -138 c76 -73 91 -96 90 -139 -1 -23 -4 -50 -6 -61 -4 -21 -17 -143 -22
-210 -2 -22 -4 -82 -4 -132 0 -108 -8 -114 -60 -51 -80 96 -104 119 -154 143
-54 27 -157 51 -247 60 -126 11 -207 23 -221 31 -9 6 46 75 123 154 27 27 49
55 49 60 0 6 6 10 14 10 8 0 16 6 19 14 10 26 131 100 204 126 40 14 97 26
127 26 49 1 58 -2 88 -31z m-3325 -90 c7 -7 9 -15 6 -19 -4 -3 -1 -6 6 -6 12
0 41 -24 41 -34 0 -11 65 -71 73 -68 5 1 6 -1 3 -6 -2 -4 11 -25 30 -46 19
-20 34 -39 34 -41 0 -5 35 -48 62 -76 9 -9 14 -20 11 -23 -4 -3 1 -6 11 -6 9
0 15 -4 11 -9 -3 -5 4 -16 15 -24 11 -7 18 -16 16 -18 -3 -2 13 -24 34 -49 34
-40 39 -43 56 -30 18 13 18 13 2 -4 -15 -17 -13 -22 34 -80 27 -33 54 -60 59
-58 6 1 8 -2 5 -7 -3 -5 7 -23 23 -40 16 -17 27 -31 24 -31 -2 0 2 -6 9 -13 7
-8 26 -30 42 -50 16 -20 34 -34 39 -30 6 3 7 2 4 -4 -4 -5 4 -19 16 -29 55
-47 106 -84 116 -84 6 0 11 -4 11 -10 0 -5 6 -10 14 -10 8 0 18 -6 22 -12 4
-7 4 -10 -1 -6 -5 5 -24 -16 -43 -45 -20 -28 -38 -54 -42 -57 -4 -3 -19 -31
-34 -62 -15 -31 -34 -59 -41 -62 -20 -7 -62 2 -106 25 -22 11 -39 17 -39 15 0
-3 -12 6 -27 20 -14 13 -28 22 -31 20 -2 -3 -10 0 -17 7 -16 15 -82 60 -160
109 -11 7 -22 16 -25 19 -3 3 -27 21 -55 39 -54 37 -53 36 -141 109 -34 27
-65 47 -69 43 -4 -4 -5 -2 -4 3 2 6 -5 21 -16 33 -42 49 -51 60 -72 88 -12 16
-22 33 -22 37 0 5 -9 17 -20 26 -11 10 -18 21 -14 25 3 3 1 6 -5 6 -7 0 -11 3
-10 8 4 13 -13 52 -23 52 -5 0 -8 3 -7 8 5 17 -14 52 -25 45 -9 -5 -9 -3 0 8
10 12 9 21 -2 42 -8 15 -10 25 -5 22 6 -4 8 7 6 25 -2 17 2 36 8 43 11 11 35
47 63 92 7 11 16 28 19 38 3 9 10 17 14 17 6 0 12 13 18 40 0 3 8 21 16 41 12
28 12 39 3 49 -9 10 -9 11 1 6 6 -4 12 -2 12 4 0 13 50 2 67 -15z m1198 -35
c-3 -5 -2 -10 3 -10 10 0 8 -156 -2 -247 -5 -35 -8 -66 -8 -70 0 -5 -11 -27
-23 -50 -13 -22 -21 -44 -18 -47 4 -3 2 -6 -4 -6 -9 0 -40 -55 -31 -55 1 0 -7
-11 -19 -25 -13 -13 -23 -29 -23 -36 0 -7 -4 -14 -8 -16 -5 -1 -26 -27 -47
-56 -34 -48 -39 -52 -48 -35 -6 10 -13 20 -16 23 -3 3 -6 14 -7 25 -1 11 -4
38 -9 60 -4 22 -6 49 -5 60 1 11 2 41 3 67 1 25 5 44 9 42 6 -4 22 14 23 26 0
8 67 102 87 124 9 10 15 22 13 26 -3 5 2 10 10 14 8 3 15 12 15 21 0 8 3 15 8
15 4 0 16 17 27 38 34 66 67 122 72 122 2 0 1 -4 -2 -10z m3190 -138 c197 -76
213 -80 355 -88 242 -12 285 -17 365 -40 163 -47 332 -144 428 -248 107 -114
387 -531 387 -576 0 -9 -42 -7 -77 4 -10 3 -33 8 -52 11 -19 3 -38 8 -43 11
-4 3 -16 7 -25 9 -56 12 -279 108 -503 218 -195 96 -510 277 -530 305 -3 5
-21 19 -40 32 -19 13 -39 29 -45 35 -5 6 -44 40 -85 76 -110 94 -300 287 -300
304 0 11 5 13 18 6 9 -5 76 -31 147 -59z m-1885 7 c0 -3 14 -4 30 -3 17 1 30
-2 30 -6 0 -5 7 -16 16 -24 8 -9 12 -16 7 -16 -4 0 -9 -10 -10 -23 0 -12 -7
-35 -14 -52 -7 -16 -13 -32 -14 -35 0 -3 -20 -43 -44 -89 -42 -82 -48 -98 -58
-153 -3 -16 -9 -28 -13 -28 -5 0 -7 -8 -5 -17 1 -10 -1 -22 -5 -28 -7 -9 -15
-45 -36 -155 -4 -19 -7 -50 -8 -67 -1 -18 -3 -33 -6 -33 -7 0 -12 -90 -13
-230 0 -101 4 -136 21 -182 24 -67 20 -73 -55 -92 -64 -16 -154 -11 -231 13
-18 5 -36 9 -40 9 -4 -1 -30 30 -59 68 -97 128 -145 180 -214 237 -25 20 -51
37 -56 37 -6 0 -16 6 -22 14 -7 8 -21 13 -32 11 -10 -2 -19 0 -19 5 0 5 -8 11
-18 14 -27 9 -59 75 -57 121 2 68 38 155 86 206 54 57 76 91 120 179 23 47 45
87 49 90 11 9 40 78 40 97 1 26 23 52 48 56 12 2 25 6 28 10 4 4 18 7 30 7 13
0 26 5 29 11 4 6 13 8 21 5 8 -3 14 -1 14 4 0 5 7 7 15 4 8 -4 21 -1 29 5 7 6
15 9 18 6 2 -2 32 0 66 6 35 5 86 12 114 14 28 3 52 6 54 7 5 6 164 3 164 -3z
m-1475 -88 c3 -5 2 -12 -3 -15 -5 -3 -9 1 -9 9 0 17 3 19 12 6z m5850 -21 c-3
-5 -3 -10 2 -10 4 0 8 -28 8 -63 1 -62 6 -110 25 -222 13 -77 12 -188 -1 -245
-6 -25 -12 -52 -14 -60 -2 -8 -8 -35 -15 -60 -7 -25 -14 -54 -16 -65 -2 -11
-12 -54 -22 -95 l-17 -74 -33 73 c-87 193 -79 282 74 819 2 6 6 12 9 12 4 0 3
-4 0 -10z m-4130 -40 c13 5 26 6 29 3 3 -3 29 -8 58 -10 45 -3 107 -10 116
-12 1 -1 4 -1 7 -2 25 -3 140 -41 176 -57 46 -21 118 -87 168 -152 14 -19 28
-37 31 -40 3 -3 11 -15 18 -28 67 -120 64 -140 -13 -89 -60 40 -90 52 -177 72
-122 28 -312 39 -378 22 -14 -3 -35 -8 -46 -11 -69 -15 -173 -61 -246 -110
-24 -16 -28 -16 -28 -3 0 9 4 18 9 21 5 3 12 23 16 43 4 21 10 42 13 48 4 5 7
13 8 18 1 4 3 9 4 12 1 3 3 8 4 13 1 4 10 22 19 40 10 17 14 32 10 32 -5 0 -3
4 2 8 18 13 36 53 29 64 -4 6 -3 8 3 5 9 -6 21 11 25 33 1 3 8 10 17 17 9 7
13 13 9 13 -4 0 3 11 15 24 24 25 57 37 71 25 5 -4 19 -4 31 1z m-1515 -14 c0
-3 -4 -8 -10 -11 -5 -3 -10 -1 -10 4 0 6 5 11 10 11 6 0 10 -2 10 -4z m2997
-179 c110 -107 119 -114 209 -172 125 -82 417 -224 494 -240 3 -1 37 -11 75
-23 39 -12 96 -29 129 -38 71 -20 59 -32 -27 -28 -66 4 -152 12 -152 14 0 1
-8 3 -19 5 -108 20 -229 59 -356 113 -177 75 -247 130 -340 266 -29 44 -77
111 -107 150 -89 119 -68 108 94 -47z m-4512 51 c10 -35 18 -67 19 -73 1 -5 5
-16 9 -22 5 -7 5 -17 2 -23 -3 -5 -1 -10 6 -10 7 0 10 -3 6 -6 -9 -10 39 -130
69 -172 26 -35 194 -205 194 -196 0 2 8 -4 18 -13 35 -34 82 -73 82 -69 0 3
13 -8 28 -22 16 -15 37 -34 48 -42 92 -72 110 -86 116 -95 4 -5 8 -7 8 -4 0 3
21 -14 47 -38 26 -23 52 -43 58 -43 6 0 16 -9 23 -20 7 -11 18 -20 26 -20 7 0
19 -7 27 -16 7 -8 21 -13 31 -11 11 3 15 1 11 -6 -4 -6 2 -8 15 -5 12 4 24 2
27 -3 3 -4 13 -5 21 -2 13 5 15 1 9 -17 -4 -12 -8 -28 -9 -34 -1 -6 -11 -32
-23 -57 -19 -43 -24 -47 -92 -69 -58 -18 -84 -21 -148 -17 -43 3 -96 11 -118
18 -22 7 -43 12 -47 11 -5 -1 -8 3 -8 9 0 5 -4 8 -9 5 -10 -6 -174 74 -200 98
-10 9 -21 13 -26 9 -4 -5 -5 -3 -1 4 3 6 1 15 -7 20 -15 10 -77 88 -77 98 0 4
-9 20 -21 36 -11 16 -17 29 -13 29 5 0 3 5 -4 12 -7 7 -12 18 -12 26 0 8 -8
21 -17 29 -10 8 -12 12 -5 8 10 -5 10 -1 0 22 -7 15 -15 30 -18 33 -3 3 -6 16
-8 30 -1 14 -6 34 -11 45 -5 11 -14 35 -21 52 -7 18 -15 31 -19 29 -3 -2 -7 6
-7 17 -1 12 -23 56 -48 97 -25 41 -49 83 -52 93 -4 9 -10 17 -15 17 -5 0 -9 9
-9 20 0 11 -4 20 -8 20 -15 0 -13 75 2 112 9 19 12 39 8 43 -4 5 -2 5 4 2 6
-4 19 10 30 31 10 20 25 42 33 48 8 6 11 16 7 22 -4 8 -2 10 7 6 8 -3 18 -1
22 5 13 22 23 9 40 -51z m119 -111 c4 4 4 -1 0 -11 -6 -15 -4 -17 6 -11 8 5
11 4 6 -3 -3 -6 -1 -16 6 -24 7 -7 19 -25 27 -40 8 -16 18 -28 23 -28 4 0 8
-6 8 -14 0 -7 14 -27 30 -44 17 -18 30 -37 30 -42 0 -6 4 -9 9 -5 5 3 16 -1
24 -9 8 -8 17 -12 21 -9 3 4 6 2 6 -4 0 -14 56 -37 69 -28 6 3 9 0 6 -7 -5
-14 60 -54 78 -50 5 2 6 -2 3 -7 -6 -9 22 -26 37 -22 5 1 6 -3 2 -9 -3 -5 -2
-10 3 -10 5 0 21 -12 36 -26 14 -15 26 -24 26 -20 0 3 23 -17 52 -45 84 -82
202 -150 230 -133 7 4 8 2 4 -4 -7 -11 8 -16 42 -15 7 1 11 -2 8 -5 -3 -3 -2
-10 3 -16 14 -17 16 -69 3 -93 -8 -15 -18 -20 -34 -16 -25 7 -149 70 -162 84
-6 5 -18 9 -28 9 -10 0 -18 3 -18 8 0 4 -25 23 -55 42 -30 19 -54 38 -55 43 0
4 -5 7 -12 7 -7 0 -21 9 -33 20 -11 11 -56 50 -100 87 -43 38 -93 84 -110 102
-16 19 -42 48 -57 63 -16 16 -28 33 -28 38 0 4 -4 10 -8 12 -23 8 -119 165
-127 207 -2 9 -6 30 -10 46 l-7 30 19 -28 c11 -15 23 -24 27 -20z m3166 -62
c30 -4 66 -9 80 -12 13 -4 36 -7 50 -9 14 -1 25 -3 25 -4 0 -1 8 -3 17 -5 55
-10 105 -33 187 -83 31 -19 77 -69 126 -138 11 -15 31 -41 45 -58 14 -17 32
-39 40 -49 8 -10 22 -27 30 -37 8 -9 26 -32 40 -51 47 -62 131 -136 184 -162
44 -22 182 -64 271 -83 45 -9 109 -33 95 -35 -8 -1 -24 -3 -35 -4 -28 -4 -244
-16 -340 -20 -44 -2 -129 -6 -190 -11 -176 -12 -361 -8 -490 11 -88 13 -122
16 -250 20 -125 4 -231 -5 -275 -22 -8 -4 -18 -7 -22 -7 -3 -1 -10 -4 -14 -8
-4 -5 -16 -8 -26 -8 -10 0 -18 -4 -18 -8 0 -5 -6 -9 -12 -9 -7 0 -21 -4 -30
-8 -13 -5 -21 3 -36 37 -11 24 -25 61 -31 83 -11 41 -11 275 0 275 3 0 6 24 6
53 1 28 2 53 3 55 5 5 8 23 9 51 1 33 33 71 96 117 22 16 43 33 47 39 4 5 8 6
8 2 0 -4 19 3 43 17 56 33 147 66 205 75 47 7 59 7 162 -4z m-1945 -126 c-2
-10 0 -32 5 -48 4 -16 6 -31 4 -34 -2 -2 -6 -63 -8 -136 -2 -73 -7 -135 -10
-138 -3 -4 0 -13 7 -21 7 -9 7 -13 1 -9 -7 4 -17 -17 -29 -61 -9 -37 -17 -73
-18 -79 0 -7 -4 -13 -8 -13 -6 0 -20 -37 -18 -49 0 -2 -3 -7 -8 -10 -25 -19
-105 -184 -100 -208 2 -13 1 -23 -3 -23 -14 0 11 -143 37 -210 9 -22 14 -41
19 -74 2 -17 7 -32 12 -35 4 -3 8 -17 9 -31 1 -14 4 -47 8 -75 3 -27 7 -84 10
-125 3 -41 8 -95 11 -120 3 -25 6 -51 7 -57 0 -7 4 -13 8 -13 4 0 6 -8 5 -17
-2 -10 9 -45 24 -78 31 -67 30 -81 -6 -88 -32 -6 -51 14 -95 96 -18 34 -37 65
-43 69 -6 4 -8 8 -4 8 4 0 -4 24 -16 53 -23 51 -34 80 -37 95 0 4 -6 16 -12
27 -6 11 -12 25 -14 30 -1 6 -14 48 -28 95 -15 47 -28 96 -31 110 -3 14 -7 32
-9 40 -4 15 -15 75 -21 115 -1 11 -3 20 -4 20 -9 0 -20 403 -11 419 2 6 6 19
7 30 8 71 66 217 102 254 6 7 12 16 12 20 0 4 21 30 46 57 25 28 60 68 77 89
18 22 39 46 47 55 8 9 26 37 40 63 23 44 43 48 35 7z m5645 4 c9 -163 5 -346
-11 -422 -46 -220 -115 -323 -266 -393 -105 -48 -118 -48 -135 0 -15 42 -17
253 -4 347 4 33 9 65 9 72 0 7 28 31 61 55 57 39 152 116 201 163 37 36 92
109 114 153 24 46 29 51 31 25z m-5249 -66 c13 -10 14 -16 3 -42 -7 -16 -13
-26 -14 -22 0 4 -10 -2 -22 -15 -13 -13 -57 -48 -98 -78 -99 -72 -107 -79
-137 -118 -32 -43 -55 -125 -39 -143 8 -9 8 -10 -1 -5 -7 4 -22 2 -33 -4 -26
-14 -67 -3 -51 13 7 7 7 15 -2 26 -9 12 -9 13 1 7 11 -6 17 11 13 37 0 4 2 7
7 7 4 0 14 15 21 33 21 46 83 151 96 159 5 4 7 8 2 8 -4 0 13 19 37 42 25 22
43 45 40 49 -3 5 1 7 8 4 7 -3 26 6 42 20 16 13 33 22 37 19 5 -3 9 0 9 5 0
15 61 13 81 -2z m6414 -41 c11 -2 24 -5 30 -5 6 -1 6 -4 0 -10 -6 -5 -41 -11
-80 -15 -104 -9 -168 -17 -185 -22 -8 -3 -33 -8 -55 -11 -22 -3 -89 -23 -150
-45 -60 -22 -146 -52 -190 -68 -44 -15 -99 -31 -122 -35 -38 -6 -41 -5 -36 13
8 31 59 72 148 117 105 55 166 75 245 82 36 3 66 6 67 7 5 4 309 -4 328 -8z
m-6320 -42 c9 -19 19 -47 22 -62 12 -56 6 -201 -12 -279 -3 -13 -7 -31 -9 -40
-11 -49 -39 -101 -59 -110 -35 -16 -90 7 -145 58 -27 25 -51 53 -55 62 -3 9
-13 17 -22 17 -8 0 -15 7 -15 15 0 8 -4 15 -8 15 -5 0 -18 9 -30 20 -26 25
-29 65 -4 79 9 6 13 11 8 11 -5 0 32 30 82 66 51 36 92 70 92 75 0 5 7 9 15 9
8 0 15 5 15 11 0 5 3 8 8 6 4 -2 23 15 42 39 19 23 40 43 46 43 7 1 19 -15 29
-35z m6605 -79 c136 -13 335 -59 325 -75 -3 -4 -92 -7 -198 -5 -105 2 -217 -1
-247 -6 -56 -9 -140 -45 -140 -61 0 -4 -4 -8 -10 -8 -5 0 -31 -15 -57 -34 -27
-18 -64 -42 -83 -52 -19 -10 -37 -22 -40 -25 -10 -11 -226 -131 -314 -175 -50
-24 -113 -48 -140 -53 -77 -14 -371 -9 -371 6 0 7 31 46 68 88 87 96 146 128
282 155 106 21 217 61 350 125 157 75 253 114 308 124 48 8 158 7 267 -4z
m-6484 -84 c-3 -4 13 -14 36 -20 46 -14 88 -52 139 -126 19 -27 42 -57 52 -66
9 -9 17 -21 17 -27 0 -22 109 -122 153 -141 52 -22 66 -25 272 -56 66 -10 115
-25 115 -35 0 -9 -18 -8 -109 5 -123 17 -167 21 -223 19 -35 -1 -63 -3 -63 -4
0 -1 -7 -3 -15 -5 -8 -2 -35 -12 -60 -24 -25 -11 -61 -22 -81 -24 -19 -2 -39
-5 -44 -8 -13 -7 -69 -13 -127 -13 -27 -1 -48 -5 -48 -9 0 -4 -8 -3 -17 2 -18
9 -25 11 -42 11 -14 0 -31 52 -33 100 -1 48 7 107 22 159 5 17 10 35 11 39 1
4 3 12 5 17 14 46 33 158 29 166 -4 5 -1 9 6 9 8 0 9 3 0 13 -6 8 -8 17 -4 20
9 10 15 9 9 -2z m3809 -57 c70 -17 217 -80 223 -95 2 -5 10 -9 18 -9 8 0 14
-4 14 -8 0 -5 9 -13 19 -18 52 -25 240 -218 226 -232 -2 -3 -30 18 -62 45
-131 113 -312 208 -438 227 -22 4 -51 8 -65 11 -14 2 -45 6 -70 9 -153 18
-228 30 -250 39 -24 9 -22 10 25 23 28 8 73 17 100 20 28 4 51 7 53 9 8 7 148
-7 207 -21z m-260 -79 c28 -4 64 -8 82 -10 17 -2 51 -9 75 -15 23 -7 50 -14
58 -15 8 -2 47 -15 85 -28 231 -80 429 -216 541 -373 93 -130 117 -235 109
-474 -2 -91 -7 -176 -9 -190 -2 -14 -4 -29 -5 -35 -2 -15 -19 15 -42 75 -62
165 -160 313 -293 445 -169 167 -305 257 -476 315 -54 18 -270 71 -349 85 -15
3 -89 20 -166 39 -174 43 -208 48 -317 51 -49 1 -90 4 -94 7 -10 10 250 89
345 104 18 3 43 8 55 10 11 3 48 7 81 10 33 3 61 7 62 8 5 5 207 -2 258 -9z
m-4002 -84 c4 -1 7 -8 7 -16 0 -9 7 -18 15 -21 8 -4 15 -13 15 -21 0 -8 6 -13
13 -10 22 8 12 -81 -12 -107 -12 -12 -18 -26 -14 -31 5 -4 3 -5 -3 -2 -18 10
-82 -87 -102 -153 -2 -8 -5 -45 -6 -82 0 -38 -5 -68 -9 -68 -5 0 -5 -5 -1 -12
4 -6 9 -34 11 -62 2 -28 6 -64 9 -81 3 -16 5 -39 5 -50 0 -32 40 -209 51 -222
6 -7 7 -13 3 -13 -4 0 2 -16 14 -36 12 -19 21 -41 21 -48 0 -34 27 -49 105
-60 11 -2 27 -6 35 -9 8 -3 30 -10 49 -15 19 -4 36 -13 38 -19 5 -13 -61 -89
-90 -104 -27 -15 -115 -21 -122 -9 -3 6 -15 10 -26 10 -10 0 -19 5 -19 10 0 6
-7 10 -15 10 -7 0 -18 6 -22 13 -4 7 -23 24 -41 39 -18 15 -32 29 -31 30 1 2
-10 23 -25 47 -34 53 -47 92 -51 146 -2 22 -4 40 -5 40 -1 0 -2 82 -3 182 -1
100 -5 185 -9 189 -5 4 -8 18 -8 30 0 12 -7 29 -15 38 -9 8 -15 18 -15 21 1 3
-4 29 -10 59 -11 53 -6 129 11 174 5 13 7 28 3 33 -3 5 0 9 6 9 7 0 9 7 6 16
-3 8 -2 13 3 10 4 -3 14 13 21 35 8 23 20 43 27 46 7 3 11 9 8 13 -3 4 3 10
13 14 9 3 37 14 62 25 25 10 56 18 70 16 14 -2 28 -4 33 -4z m1858 -115 c37
-4 77 -9 90 -11 13 -3 55 -7 93 -10 99 -8 110 -18 55 -45 -24 -13 -46 -23 -49
-22 -3 0 -21 -7 -40 -15 -34 -14 -115 -41 -152 -49 -51 -11 -67 -15 -118 -24
-121 -21 -136 -24 -170 -23 -65 1 -148 24 -187 52 -38 28 -72 76 -60 87 13 13
205 50 312 60 39 4 71 7 72 8 3 2 90 -2 154 -8z m1199 -2 c8 -8 -4 -25 -43
-60 -79 -72 -101 -90 -176 -144 -133 -94 -129 -93 -431 -105 -91 -3 -178 -7
-195 -9 -79 -9 -138 -18 -167 -27 -46 -13 -105 -11 -163 5 -27 8 -91 26 -140
39 -168 47 -206 71 -129 82 16 2 39 6 50 9 23 5 84 15 124 21 70 10 135 31
235 74 94 42 144 62 165 66 3 1 19 4 35 8 58 13 101 20 145 23 25 1 45 3 45 4
0 2 113 8 279 14 82 3 150 7 152 9 9 8 204 1 214 -9z m495 -18 c33 -3 71 -8
85 -11 14 -3 41 -7 60 -10 162 -22 384 -88 530 -158 169 -81 286 -179 399
-335 56 -79 55 -80 -35 -14 -256 186 -696 379 -999 438 -11 2 -31 6 -45 9 -14
3 -54 7 -90 10 -116 10 -182 26 -213 54 -18 15 -18 16 5 22 26 6 211 3 303 -5z
m-440 -27 c15 -24 6 -156 -16 -235 -11 -42 -37 -61 -104 -78 -107 -27 -357
-21 -470 11 -19 6 -19 6 2 14 12 4 41 11 65 14 110 15 201 36 235 54 80 41
177 120 232 189 36 44 45 49 56 31z m256 -65 c70 -10 84 -12 84 -14 0 -1 9 -3
20 -4 122 -18 523 -143 590 -184 6 -4 15 -7 22 -8 31 -5 351 -171 423 -219
109 -75 187 -156 279 -291 41 -61 76 -142 66 -152 -3 -3 -24 16 -48 43 -160
185 -324 316 -537 427 -97 51 -267 129 -291 133 -8 2 -67 27 -130 55 -63 29
-130 58 -149 66 -271 101 -399 152 -394 157 4 4 10 4 14 2 4 -2 27 -7 51 -11z
m-3154 -13 c18 -2 10 -46 -20 -113 -14 -31 -23 -59 -19 -62 3 -3 0 -6 -7 -6
-7 0 -10 -4 -7 -8 3 -4 1 -24 -3 -43 -10 -42 14 -141 48 -206 28 -52 32 -93
16 -169 -12 -61 -12 -90 0 -135 6 -23 3 -27 -26 -33 -95 -19 -137 0 -174 79
-20 42 -22 50 -30 105 -3 19 -8 51 -11 70 -3 19 -7 64 -9 100 -2 36 -4 65 -5
65 -1 0 -2 19 -4 43 -1 23 2 42 7 42 5 0 4 6 -2 13 -6 8 -8 16 -5 20 5 5 8 29
13 104 3 43 151 143 204 138 12 -1 28 -3 34 -4z m3468 -180 c105 -46 204 -89
222 -97 17 -8 78 -33 134 -55 116 -46 230 -101 274 -134 16 -12 82 -60 145
-107 63 -46 129 -93 145 -102 17 -10 55 -48 85 -83 30 -36 60 -71 65 -77 38
-41 175 -244 175 -258 0 -13 -9 -10 -92 32 -85 44 -228 95 -292 104 -21 4 -41
8 -45 10 -7 4 -101 16 -181 22 -30 3 -143 6 -250 8 -107 2 -208 7 -225 11 -43
11 -121 51 -188 97 -48 32 -229 178 -247 197 -3 3 -36 33 -75 66 -135 116
-185 169 -180 196 4 26 15 92 20 124 1 11 10 54 19 95 8 41 18 86 20 100 3 14
5 26 5 26 4 7 317 -111 466 -175z m-2742 115 c73 -13 93 -18 141 -38 78 -33
79 -34 50 -79 -13 -21 -22 -39 -19 -39 3 0 0 -10 -7 -22 -10 -17 -13 -85 -13
-256 0 -270 4 -258 -101 -281 -33 -7 -79 -19 -103 -27 -25 -8 -50 -14 -56 -14
-6 0 -31 42 -54 93 -24 50 -58 121 -76 157 -17 36 -32 67 -32 70 -1 3 -8 23
-18 45 -19 45 -25 85 -17 100 18 30 21 102 6 173 -21 99 -22 96 55 109 116 19
173 21 244 9z m-595 -9 c6 0 12 -4 12 -9 0 -4 3 -7 8 -6 4 1 32 -4 62 -10 30
-6 67 -13 82 -15 15 -1 30 -6 34 -10 4 -4 8 -76 10 -159 3 -185 0 -162 27
-191 107 -116 138 -166 142 -224 4 -72 12 -102 50 -188 48 -109 48 -112 11
-153 -38 -41 -124 -89 -173 -96 -42 -6 -55 7 -137 131 -68 104 -76 111 -134
115 -18 1 -37 7 -41 13 -10 12 -71 205 -71 223 0 7 7 29 17 50 9 20 17 40 17
44 1 3 4 10 9 14 12 12 8 98 -6 140 -8 22 -13 49 -12 62 1 13 -2 25 -7 28 -4
3 -6 8 -4 12 2 4 7 30 10 57 4 28 17 80 29 117 17 52 26 67 37 62 8 -4 21 -7
28 -7z m1107 -31 c27 -18 179 -85 205 -91 8 -2 35 -11 60 -20 25 -9 61 -18 80
-21 19 -3 47 -7 62 -10 14 -2 73 -6 130 -9 205 -10 301 -19 378 -35 68 -14
125 -22 265 -35 322 -30 303 -23 376 -122 53 -71 93 -158 114 -245 9 -40 18
-77 20 -83 1 -5 4 -14 5 -20 1 -5 11 -22 21 -37 25 -34 24 -63 -2 -99 -61 -86
-227 -131 -479 -129 -129 0 -172 3 -340 25 -32 5 -80 14 -102 21 -10 3 -30 7
-45 10 -31 5 -71 17 -153 47 -30 10 -62 20 -71 22 -48 10 -272 119 -384 187
-68 41 -192 139 -265 208 -8 9 -38 31 -65 50 -88 61 -106 90 -104 168 1 84 18
112 95 160 38 24 76 46 84 49 8 4 21 12 27 19 16 16 55 11 88 -10z m4142 -13
c127 -65 330 -244 593 -522 8 -9 33 -39 55 -66 22 -28 56 -68 77 -90 20 -22
53 -58 74 -80 153 -166 515 -543 774 -805 74 -75 141 -143 148 -152 27 -33
-19 -95 -102 -138 -79 -40 -59 -54 -368 263 -371 382 -493 503 -553 553 -28
23 -84 69 -125 103 -41 34 -104 88 -140 120 -130 116 -152 131 -278 176 -65
23 -316 87 -392 100 -45 7 -180 42 -211 54 -36 13 -47 30 -63 100 -20 85 -16
199 7 234 50 76 316 191 417 180 19 -2 59 -16 87 -30z m-4381 -378 c32 -31
175 -161 209 -190 37 -33 225 -145 243 -145 6 0 12 -4 12 -10 0 -5 5 -10 11
-10 13 0 180 -92 176 -97 -3 -3 -80 11 -112 20 -64 18 -141 50 -245 100 -69
33 -152 72 -185 87 -68 31 -97 58 -121 115 -23 55 -52 163 -46 170 5 5 23 -7
58 -40z m2045 -43 c93 -84 160 -154 289 -302 133 -153 256 -246 411 -311 70
-29 244 -75 319 -85 19 -2 46 -7 60 -9 14 -3 50 -7 80 -10 50 -5 186 -27 250
-40 14 -3 53 -10 88 -16 46 -8 62 -15 60 -26 -3 -16 -74 -57 -157 -91 -301
-123 -744 -64 -1041 138 -88 60 -129 105 -280 305 -160 212 -179 254 -187 418
l-6 109 31 -16 c17 -9 55 -37 83 -64z m-3931 48 c0 -5 3 -9 8 -9 29 5 42 -3
117 -69 19 -17 57 -67 67 -89 6 -13 15 -23 20 -23 5 0 7 -4 4 -8 -3 -5 4 -19
15 -30 11 -12 18 -22 15 -22 -3 0 3 -19 13 -42 29 -68 33 -81 38 -118 11 -86
3 -119 -41 -175 -79 -100 -81 -111 -44 -235 l14 -45 -53 -37 c-30 -21 -58 -38
-62 -38 -5 0 -12 -7 -15 -16 -4 -9 -9 -14 -12 -11 -3 3 -30 -3 -59 -13 -59
-20 -158 -21 -210 -1 -88 34 -114 55 -138 111 -14 30 -30 78 -37 105 -6 28
-14 57 -17 65 -3 8 -7 25 -9 37 -7 53 -63 203 -76 203 -5 0 -8 6 -8 13 0 16
-67 77 -85 77 -8 0 -15 5 -15 10 0 6 -3 9 -7 8 -15 -4 -73 21 -73 32 0 6 5 20
10 31 8 14 7 19 -2 19 -11 0 137 75 187 95 11 5 22 9 25 10 3 2 15 6 27 10 13
4 20 11 18 16 -3 4 3 7 12 7 10 0 45 12 78 27 33 16 63 28 68 27 4 -1 7 2 7 6
0 5 6 9 13 9 6 0 35 10 62 23 46 21 120 48 138 49 4 1 7 -3 7 -9z m2020 -298
c25 -14 83 -47 130 -73 117 -65 186 -87 310 -95 30 -2 80 -6 110 -8 30 -2 89
-14 130 -26 41 -12 80 -23 85 -24 6 -1 26 -7 45 -14 19 -6 49 -14 65 -17 39
-8 60 -13 60 -15 0 -1 9 -3 20 -4 11 -2 34 -6 50 -9 162 -35 372 -44 523 -22
164 24 233 51 295 119 9 11 20 16 24 12 15 -14 -215 -202 -301 -245 -91 -46
-159 -46 -371 -4 -22 4 -152 6 -290 5 -683 -8 -688 -7 -786 22 -110 33 -197
102 -239 190 -18 39 -24 70 -28 157 -2 60 -2 116 2 124 6 16 10 14 166 -73z
m2250 -11 c19 -14 37 -28 40 -31 13 -14 110 -71 150 -89 73 -31 147 -39 446
-45 93 -2 189 -8 214 -14 48 -12 402 -142 439 -161 46 -25 42 -86 -8 -113 -26
-14 -155 -16 -231 -4 -25 4 -58 9 -75 12 -16 2 -41 7 -55 9 -14 3 -36 7 -50
10 -14 3 -36 7 -50 10 -14 2 -41 7 -60 10 -19 4 -55 11 -80 16 -25 6 -54 12
-64 15 -197 40 -346 99 -467 187 -92 66 -121 93 -182 175 -50 66 -43 69 33 13z
m1684 -10 c31 -18 62 -38 69 -44 6 -7 37 -32 67 -57 138 -112 205 -201 265
-350 21 -52 60 -140 87 -194 43 -89 58 -136 42 -136 -3 0 -22 11 -42 25 -32
22 -70 37 -134 51 -280 63 -385 103 -455 173 -110 108 -162 300 -139 509 4 38
2 36 41 50 56 19 137 8 199 -27z m-4164 -51 c8 -5 12 -10 7 -10 -10 0 57 -132
111 -215 41 -64 147 -178 201 -215 19 -13 20 -18 8 -40 -18 -36 -110 -79 -180
-85 -85 -7 -160 30 -257 126 -128 125 -160 168 -154 204 2 11 6 58 9 105 4 47
12 91 19 98 26 26 207 51 236 32z m-673 -215 c17 -46 24 -81 29 -163 7 -106
-1 -113 -129 -103 -24 1 -100 81 -122 128 -23 48 -14 129 23 197 21 39 37 56
72 72 l44 21 36 -61 c20 -34 41 -74 47 -91z m-484 12 c94 -58 198 -153 256
-237 23 -33 41 -60 39 -61 -2 0 -10 -2 -19 -4 -39 -7 -97 -43 -139 -85 -55
-54 -82 -128 -60 -164 16 -26 352 -499 360 -506 8 -8 77 -113 89 -137 7 -13 8
-23 3 -23 -11 0 -134 102 -192 159 -75 74 -147 140 -270 247 -127 112 -208
195 -272 282 -24 31 -45 59 -48 62 -18 18 -88 158 -92 182 -2 13 -6 25 -9 28
-9 6 -21 72 -24 126 -2 39 0 43 37 65 22 13 54 33 72 45 17 11 41 23 51 27 11
3 38 13 60 21 51 20 93 13 158 -27z m897 -109 c0 -4 6 -13 13 -20 19 -20 136
-177 147 -199 9 -16 7 -19 -12 -20 -13 -1 -25 -1 -28 -1 -121 9 -159 12 -180
17 -13 2 -40 7 -60 10 -115 17 -149 31 -156 63 -3 15 -7 32 -9 38 -5 16 30 48
104 97 35 23 78 51 95 63 l31 21 27 -31 c15 -17 28 -34 28 -38z m2471 -2 c68
-108 111 -141 204 -156 52 -8 111 -32 249 -99 175 -86 254 -115 347 -127 24
-3 62 -10 83 -14 21 -5 98 -7 170 -6 145 4 216 20 408 97 97 38 142 47 152 30
14 -22 -276 -264 -364 -303 -31 -14 -98 -38 -125 -44 -125 -31 -176 -43 -205
-48 -204 -31 -484 -29 -635 4 -64 14 -192 58 -238 81 -113 58 -258 181 -291
247 -23 45 -30 118 -17 172 7 25 14 56 17 70 9 42 55 117 80 130 28 16 93 28
116 22 10 -2 32 -27 49 -56z m-1506 -113 c91 -25 188 -31 285 -18 25 3 99 8
165 10 96 3 134 0 188 -15 157 -44 217 -47 337 -17 52 13 99 22 103 20 25 -14
-57 -188 -136 -291 -50 -64 -190 -208 -252 -260 -175 -143 -395 -258 -600
-313 -44 -12 -82 -23 -85 -26 -13 -12 27 -19 64 -11 22 5 50 11 61 14 135 27
232 63 401 149 113 58 186 104 244 157 14 13 34 30 44 38 17 13 18 13 11 0
-23 -38 -211 -232 -303 -314 -88 -77 -331 -229 -398 -248 -148 -42 -188 -50
-249 -51 -38 0 -81 3 -95 6 -165 36 -238 59 -335 107 -84 42 -126 75 -188 151
l-38 47 26 48 c14 27 35 80 46 119 11 38 23 77 26 85 4 8 5 19 4 23 -4 22 43
106 67 118 57 29 197 114 200 121 2 5 10 8 17 8 7 0 15 3 17 8 9 20 119 64
258 102 153 42 157 42 260 35 247 -18 314 -15 485 21 88 19 178 37 200 40 22
3 51 11 64 17 30 15 42 42 15 34 -11 -4 -39 -9 -64 -12 -24 -4 -47 -8 -51 -10
-3 -2 -21 -7 -40 -10 -19 -3 -83 -18 -144 -32 -115 -28 -122 -28 -505 -20 -92
2 -121 -2 -230 -31 -196 -52 -240 -70 -341 -137 -52 -35 -96 -61 -98 -59 -8 8
83 114 162 190 99 95 173 159 266 231 9 7 23 10 31 7 8 -4 56 -17 105 -31z
m-1320 -127 c22 -3 56 -8 75 -11 19 -2 44 -6 55 -8 20 -4 59 -11 123 -22 44
-7 180 -36 227 -49 6 -1 26 -6 45 -10 51 -12 88 -49 100 -101 1 -5 6 -21 11
-34 16 -41 11 -133 -9 -191 -11 -30 -36 -90 -56 -132 -20 -43 -51 -111 -70
-151 -35 -74 -76 -190 -76 -213 0 -19 -49 -31 -115 -28 -126 5 -214 54 -295
162 -14 19 -30 39 -35 45 -19 21 -310 407 -320 425 -6 9 -27 42 -47 72 -54 81
-54 109 1 172 40 45 83 65 160 74 19 3 37 6 38 8 5 5 142 -1 188 -8z m-810
-200 c111 -166 130 -186 244 -269 47 -33 95 -69 106 -78 72 -60 146 -132 273
-261 179 -182 261 -240 372 -264 l79 -17 -42 -61 c-23 -34 -44 -63 -47 -66 -3
-3 -22 -26 -43 -52 -38 -47 -87 -84 -129 -95 -13 -4 -59 -7 -103 -7 -67 0 -89
4 -135 26 -57 28 -188 121 -244 173 -26 24 -84 72 -110 90 -16 11 -33 25 -40
30 -17 15 -125 85 -131 85 -3 0 -22 10 -43 23 -20 13 -77 45 -127 72 -49 26
-113 63 -142 81 -28 18 -54 30 -57 27 -3 -4 -6 -2 -6 4 0 6 -17 22 -37 36 -40
26 -94 76 -128 118 -46 56 -105 149 -103 160 2 7 13 23 26 35 12 12 22 26 22
32 0 6 3 12 8 14 4 2 23 23 43 48 80 99 199 200 236 200 6 0 13 4 15 8 2 7
118 49 140 51 4 1 51 -64 103 -143z m3340 110 c5 -6 35 -40 65 -76 124 -147
169 -176 371 -235 135 -40 163 -54 108 -56 -129 -5 -180 5 -409 81 -155 52
-190 75 -210 136 -11 33 -8 76 11 147 9 34 12 36 32 26 12 -7 26 -17 32 -23z
m1908 -132 c-3 -55 -39 -182 -97 -352 -20 -57 -36 -114 -36 -126 0 -12 -3 -26
-7 -29 -3 -4 -8 -21 -10 -39 -4 -39 -12 -48 -60 -73 -21 -11 -40 -23 -43 -26
-13 -17 -245 -122 -315 -143 -115 -34 -494 -116 -650 -140 -130 -21 -192 -23
-275 -11 -97 14 -296 46 -305 49 -5 1 -23 7 -39 11 -70 19 -108 50 -174 142
-90 123 -97 145 -97 318 0 132 6 223 19 290 11 57 28 105 37 105 8 0 101 -80
129 -110 76 -84 368 -143 710 -143 316 0 654 51 865 130 116 44 164 76 265
175 72 71 75 73 81 48 3 -14 4 -48 2 -76z m-2238 -315 c26 -161 37 -387 23
-491 -7 -49 -29 -100 -57 -132 -29 -33 -94 -58 -208 -82 -117 -23 -203 -57
-260 -100 -19 -14 -66 -41 -105 -59 l-72 -33 -150 4 c-83 1 -167 5 -187 8 -82
13 -188 35 -244 52 -33 10 -62 19 -65 19 -30 7 -124 61 -155 89 l-40 36 55
-21 c140 -55 214 -63 395 -45 162 16 181 18 210 22 17 2 50 7 75 10 25 2 52 7
60 9 8 2 35 7 60 10 25 3 53 8 62 11 9 3 27 7 40 9 105 20 190 45 248 75 65
33 152 127 193 208 20 39 34 72 32 72 -2 0 4 24 14 53 10 28 28 109 41 179 14
70 26 126 28 124 1 -2 5 -14 7 -27z m-100 -70 c-4 -11 -9 -36 -11 -56 -8 -66
-46 -228 -65 -279 -20 -52 -104 -154 -127 -154 -6 0 -12 -4 -12 -8 0 -19 -145
-74 -256 -96 -125 -25 -150 -27 -489 -42 -217 -9 -219 -9 -311 10 -49 10 -153
67 -193 106 -37 36 -79 106 -69 116 2 1 19 -1 38 -6 148 -39 194 -48 265 -57
72 -8 322 -8 376 0 62 10 195 45 238 64 20 8 41 16 46 17 6 1 27 10 49 19 21
9 41 17 44 17 3 0 55 24 116 54 157 77 186 103 324 294 24 34 47 34 37 1z
m3379 -147 c-1 -96 -10 -127 -107 -381 l-55 -143 -8 43 c-16 95 -4 160 71 384
24 72 49 150 55 174 11 41 13 43 28 27 14 -13 17 -35 16 -104z m-4855 -131
c56 -51 96 -75 186 -112 11 -4 53 -18 93 -30 39 -12 72 -24 72 -26 0 -5 -114
4 -170 14 -51 8 -131 29 -165 44 -16 7 -33 12 -36 11 -15 -3 -48 46 -54 78 -4
19 -8 42 -10 50 -3 17 3 30 13 30 4 0 36 -27 71 -59z m-1792 20 c32 -16 96
-41 143 -56 47 -14 94 -31 105 -36 11 -5 40 -16 65 -24 84 -29 181 -96 283
-196 160 -157 181 -175 238 -212 64 -40 111 -58 187 -71 7 -1 17 -7 24 -14 42
-42 -255 -51 -407 -12 -49 12 -96 27 -102 32 -7 6 -13 8 -13 5 0 -5 -62 19
-202 76 -16 6 -28 15 -28 19 0 4 -9 8 -20 8 -11 0 -20 4 -20 8 0 5 -12 14 -27
21 -39 18 -152 95 -191 131 -18 16 -35 30 -37 30 -2 0 -23 19 -46 42 l-42 43
-2 91 c-3 107 2 144 21 144 7 0 39 -13 71 -29z m5342 -87 c-21 -25 -129 -99
-189 -129 -30 -15 -114 -67 -186 -114 -183 -122 -226 -136 -404 -135 -109 1
-151 7 -280 44 -58 17 -116 33 -129 36 -13 3 -34 10 -45 16 -12 6 -23 11 -26
10 -10 -3 -120 33 -120 39 0 3 24 2 53 -3 90 -15 382 -11 467 8 14 3 39 7 55
9 44 6 533 132 664 171 30 9 75 29 100 44 48 30 63 32 40 4z m-1693 -109 c6
-5 24 -21 40 -35 77 -66 273 -166 364 -185 8 -2 28 -8 43 -14 37 -15 207 -48
287 -57 70 -8 230 -10 294 -3 44 4 57 -10 23 -27 -12 -6 -49 -25 -82 -42 -77
-39 -215 -102 -215 -97 0 2 -15 -2 -32 -9 -84 -34 -175 -17 -343 65 -293 142
-362 197 -413 327 -17 46 -32 95 -32 109 l0 26 27 -24 c15 -13 32 -28 39 -34z
m-180 -111 c-14 -55 -58 -85 -280 -194 -223 -109 -320 -146 -411 -157 -66 -8
-197 -8 -262 0 -114 15 -252 51 -241 63 3 2 43 4 89 4 369 -5 342 -9 503 84
104 60 138 73 211 81 118 13 122 15 235 87 55 36 110 84 110 98 0 4 10 20 23
36 l22 29 3 -55 c2 -29 1 -64 -2 -76z m1840 -7 c-44 -86 -142 -243 -166 -267
-3 -3 -18 -23 -34 -45 -86 -118 -338 -321 -552 -444 -71 -41 -191 -114 -268
-163 -76 -49 -139 -88 -140 -86 -18 25 -67 114 -86 153 -74 160 34 373 199
391 20 2 57 6 83 9 102 10 318 124 651 342 188 124 358 226 364 219 2 -2 -21
-51 -51 -109z m108 36 c-1 -23 -5 -61 -9 -85 -4 -24 -9 -56 -11 -73 -3 -16 -7
-38 -10 -47 -3 -9 -6 -25 -8 -35 -19 -95 -82 -286 -124 -371 -31 -65 -97 -146
-155 -189 -17 -14 -118 -65 -212 -109 -161 -75 -245 -147 -381 -330 -32 -44
-61 -81 -64 -84 -3 -3 -19 -24 -36 -47 -40 -56 -109 -129 -139 -149 -37 -24
-90 -28 -122 -9 -15 9 -43 42 -62 73 -40 66 -46 134 -18 189 30 58 119 140
282 263 55 41 105 80 111 85 6 6 23 19 38 30 16 11 47 34 70 51 22 17 86 60
141 95 132 83 247 171 316 239 100 100 270 344 339 489 47 97 60 101 54 14z
m-3760 -52 c26 -38 60 -78 74 -88 26 -17 199 -103 207 -103 3 0 28 -11 57 -24
107 -49 320 -127 386 -141 12 -3 32 -7 45 -10 160 -39 348 -41 477 -6 68 19
139 28 100 14 -8 -3 -34 -19 -57 -34 -23 -16 -81 -42 -130 -58 -82 -28 -110
-35 -188 -47 -16 -3 -41 -7 -55 -9 -35 -6 -224 -16 -285 -15 -107 2 -169 15
-285 56 -169 62 -299 148 -419 278 -20 21 -46 49 -58 62 -32 32 -73 94 -73
109 0 18 60 75 95 90 40 18 53 9 109 -74z m-1604 -67 c19 -23 40 -43 46 -43 7
-1 14 -7 17 -14 4 -11 161 -94 222 -117 124 -48 310 -93 435 -107 51 -6 171
-6 280 0 l45 2 36 -108 c54 -158 104 -235 183 -286 l48 -30 -39 -9 c-40 -11
-82 -18 -148 -27 -22 -3 -53 -7 -70 -10 -128 -19 -387 -25 -495 -12 -165 21
-254 68 -342 177 -20 25 -53 63 -75 86 -21 23 -51 56 -66 73 -32 36 -92 151
-103 196 -4 17 -9 35 -13 40 -3 6 -6 15 -7 22 -1 6 -7 35 -14 65 -6 29 -13 71
-16 93 -3 22 -7 50 -9 63 -4 22 -3 22 23 6 15 -9 43 -36 62 -60z m1464 -125
c122 -122 138 -134 322 -236 63 -34 208 -91 254 -99 14 -2 48 -9 75 -14 60
-12 121 -19 193 -21 29 0 52 -3 50 -4 -2 -2 -35 -9 -73 -15 -75 -12 -107 -17
-142 -24 -92 -19 -311 -26 -413 -14 -69 9 -80 11 -171 39 -41 13 -76 23 -79
24 -14 2 -121 59 -165 88 -101 65 -100 64 -99 110 0 23 8 59 17 80 9 20 17 41
18 45 2 13 54 97 73 120 11 12 24 22 30 22 5 0 55 -45 110 -101z m2099 -48
c31 -13 57 -25 57 -29 0 -13 -75 -72 -198 -156 -138 -95 -340 -226 -346 -226
-2 0 -39 -20 -81 -45 -79 -47 -313 -162 -375 -185 -19 -7 -50 -19 -68 -27 -18
-8 -40 -16 -50 -18 -9 -3 -59 -16 -110 -30 -188 -50 -350 -52 -487 -5 -65 22
-146 65 -340 180 -71 42 -155 90 -185 106 -103 53 -153 102 -185 177 -26 62 0
56 175 -41 57 -32 209 -86 271 -96 91 -15 142 -20 229 -19 94 0 211 8 260 17
14 3 68 12 120 21 78 13 199 38 293 61 9 2 26 6 37 9 12 2 55 14 98 25 42 12
82 23 87 24 6 2 24 6 40 10 29 8 161 71 260 124 28 15 80 44 117 64 159 86
265 103 381 59z m268 -259 c57 -14 61 -20 42 -50 -10 -15 -22 -32 -28 -38 -5
-6 -35 -40 -65 -74 -30 -35 -63 -73 -73 -84 -40 -45 -124 -142 -187 -217 -136
-160 -301 -324 -434 -431 -11 -10 -26 -22 -32 -26 -5 -5 -30 -22 -55 -38 -24
-16 -46 -32 -49 -35 -9 -11 -155 -77 -185 -83 -16 -3 -48 -9 -70 -12 -22 -3
-43 -8 -48 -11 -13 -8 -141 -4 -166 5 -22 8 -18 13 65 77 49 38 113 92 143
120 165 154 334 335 434 465 48 63 39 51 182 206 161 173 176 186 235 217 52
26 60 27 155 23 55 -3 116 -10 136 -14z m-481 -108 c0 -4 -15 -23 -34 -43 -19
-20 -57 -63 -86 -96 -29 -33 -67 -76 -84 -95 -17 -19 -53 -62 -81 -95 -27 -33
-52 -62 -55 -65 -5 -5 -79 -94 -115 -140 -45 -56 -254 -260 -310 -301 -146
-108 -200 -135 -405 -197 -131 -40 -176 -49 -220 -47 -84 5 -187 19 -290 40
-14 2 -38 7 -55 10 -40 7 -64 12 -103 24 -18 5 -36 11 -40 12 -51 14 -61 23
-80 72 -33 84 -44 155 -46 295 l-1 94 54 -7 c29 -4 65 -9 80 -12 56 -11 169
-9 236 4 64 12 87 17 153 28 13 2 27 6 30 10 7 7 -106 -1 -168 -12 -44 -8
-211 -9 -267 -1 -52 7 -93 32 -93 57 0 41 24 121 44 145 42 52 127 42 388 -45
97 -32 187 -59 200 -60 13 0 32 -4 43 -9 18 -8 17 -10 -12 -21 -18 -8 -33 -17
-33 -22 0 -4 3 -6 8 -4 4 3 32 8 62 12 30 3 66 8 80 10 59 9 108 15 145 19
166 18 298 57 450 133 108 54 110 55 207 121 115 78 164 105 258 141 47 18 92
36 100 41 18 11 40 12 40 4z m542 -34 c-1 -6 -4 -44 -6 -84 -4 -89 8 -126 69
-218 46 -69 48 -88 13 -94 -7 -1 -43 -12 -80 -24 -37 -12 -70 -22 -72 -21 -19
0 -236 -118 -256 -139 -3 -3 -23 -18 -45 -34 -45 -33 -179 -165 -275 -274 -81
-91 -159 -151 -258 -198 -42 -20 -85 -41 -96 -46 -72 -38 -292 -86 -377 -83
-45 2 -176 40 -254 75 -121 53 -165 75 -165 81 0 6 25 15 65 24 6 2 30 9 55
16 54 15 46 13 95 26 22 6 47 12 55 12 8 1 29 3 45 4 17 2 48 -1 70 -6 62 -13
150 -11 295 7 59 7 150 57 320 174 156 107 240 182 352 312 26 30 57 67 70 81
13 14 48 54 78 89 30 34 70 79 89 99 86 93 148 167 169 203 22 35 51 48 44 18z
m-3492 -176 c52 -13 102 -27 110 -29 195 -56 329 -64 520 -30 14 3 39 7 55 9
17 3 46 8 65 11 35 6 54 9 140 20 25 3 50 7 56 9 6 2 16 1 23 -3 9 -6 3 -25
-21 -72 -17 -35 -35 -66 -38 -69 -3 -3 -18 -22 -33 -42 -15 -21 -60 -64 -100
-95 -40 -32 -74 -60 -77 -63 -17 -20 -83 -40 -112 -35 -41 7 -209 65 -225 78
-7 5 -13 7 -13 3 0 -3 -15 0 -33 8 -67 28 -165 45 -262 47 -115 2 -149 11
-187 51 -23 22 -28 37 -28 75 0 79 26 153 54 153 6 0 54 -12 106 -26z"/>
    </g>
</svg>
